<svg width="300" height="260" viewBox="0 0 300 260" fill="none" xmlns="http://www.w3.org/2000/svg">
<g id="Illustration">
<g id="Shape">
<path id="Rectangle" opacity="0.128511" fill-rule="evenodd" clip-rule="evenodd" d="M110.86 109.362C112.568 104.116 118.203 101.246 123.451 102.947L221.81 134.823C227.07 136.527 229.948 142.176 228.236 147.433L205.747 216.465C204.039 221.711 198.405 224.581 193.156 222.88L94.7966 191.004C89.5371 189.3 86.6588 183.651 88.3713 178.394L110.86 109.362Z" fill="url(#paint0_linear_246_3442)"/>
<path id="Rectangle_2" opacity="0.216285" fill-rule="evenodd" clip-rule="evenodd" d="M149.201 35.9687C150.91 30.7232 156.544 27.8524 161.792 29.5532L273.036 65.6046C278.295 67.309 281.173 72.958 279.461 78.2149L253.872 156.766C252.163 162.011 246.529 164.882 241.281 163.181L130.037 127.13C124.778 125.425 121.899 119.776 123.612 114.519L149.201 35.9687Z" fill="url(#paint1_linear_246_3442)"/>
<g id="Rectangle_3" opacity="0.226656" filter="url(#filter0_f_246_3442)">
<path fill-rule="evenodd" clip-rule="evenodd" d="M29.8284 18.5626C31.5372 13.317 37.1714 10.4463 42.4195 12.1471L95.9246 29.4868C101.184 31.1912 104.062 36.8402 102.35 42.0971L90.8697 77.3376C89.1609 82.5831 83.5268 85.4539 78.2786 83.7531L24.7736 66.4134C19.514 64.7089 16.6357 59.0599 18.3483 53.803L29.8284 18.5626Z" fill="url(#paint2_linear_246_3442)"/>
</g>
<path id="Rectangle_4" opacity="0.216285" fill-rule="evenodd" clip-rule="evenodd" d="M229.163 197.589C230.872 192.344 236.506 189.473 241.754 191.174L259.471 196.915C264.73 198.62 267.609 204.269 265.896 209.526L254.416 244.766C252.707 250.012 247.073 252.882 241.825 251.182L224.108 245.44C218.849 243.736 215.97 238.087 217.683 232.83L229.163 197.589Z" fill="url(#paint3_linear_246_3442)"/>
<path id="Rectangle_5" opacity="0.128511" fill-rule="evenodd" clip-rule="evenodd" d="M272.094 148.713C273.803 143.467 279.437 140.597 284.685 142.297L290.473 144.173C295.732 145.877 298.61 151.526 296.898 156.783L291.154 174.414C289.446 179.66 283.812 182.53 278.563 180.83L272.776 178.954C267.516 177.25 264.638 171.601 266.351 166.344L272.094 148.713Z" fill="url(#paint4_linear_246_3442)"/>
</g>
<g id="Cloud Storage">
<g id="Phone1">
<path id="Rectangle_6" fill-rule="evenodd" clip-rule="evenodd" d="M65.5505 72.186C65.5505 58.3032 76.8048 47.049 90.6875 47.049H141.497C155.38 47.049 166.634 58.3032 166.634 72.1859V231.739C166.634 245.621 155.38 256.876 141.497 256.876H90.6876C76.8048 256.876 65.5505 245.621 65.5505 231.739V72.186Z" fill="#00CFE8" fill-opacity="0.225361"/>
<g id="Group 52">
<path id="Rectangle_7" fill-rule="evenodd" clip-rule="evenodd" d="M69.1956 74.8103C69.1956 64.5809 77.4881 56.2883 87.7176 56.2883H144.134C154.364 56.2883 162.656 64.5809 162.656 74.8103V231.87C162.656 242.1 154.364 250.392 144.134 250.392H87.7176C77.4881 250.392 69.1956 242.1 69.1956 231.87V74.8103Z" fill="white"/>
<mask id="mask0_246_3442" style="mask-type:luminance" maskUnits="userSpaceOnUse" x="69" y="56" width="94" height="195">
<path id="Rectangle_8" fill-rule="evenodd" clip-rule="evenodd" d="M69.1956 74.8103C69.1956 64.5809 77.4881 56.2883 87.7176 56.2883H144.134C154.364 56.2883 162.656 64.5809 162.656 74.8103V231.87C162.656 242.1 154.364 250.392 144.134 250.392H87.7176C77.4881 250.392 69.1956 242.1 69.1956 231.87V74.8103Z" fill="white"/>
</mask>
<g mask="url(#mask0_246_3442)">
<ellipse id="Oval" cx="111.643" cy="168.066" rx="8.01623" ry="8.01765" fill="#68DE9E" fill-opacity="0.642073"/>
<path id="Oval_2" fill-rule="evenodd" clip-rule="evenodd" d="M79.4533 168.567C100.829 168.567 118.157 185.898 118.157 207.277C118.157 228.656 100.829 245.987 79.4533 245.987C58.0781 245.987 40.75 228.656 40.75 207.277C40.75 185.898 58.0781 168.567 79.4533 168.567ZM79.4529 185.479C67.4163 185.479 57.6588 195.238 57.6588 207.277C57.6588 219.316 67.4163 229.075 79.4529 229.075C91.4894 229.075 101.247 219.316 101.247 207.277C101.247 195.238 91.4894 185.479 79.4529 185.479Z" fill="url(#paint5_linear_246_3442)"/>
</g>
</g>
<path id="Path" d="M125.58 50.4717C126.445 50.4717 127.146 51.1447 127.146 51.975C127.146 52.7868 126.475 53.4483 125.637 53.4773L125.58 53.4783H97.8557C96.991 53.4783 96.29 52.8052 96.29 51.975C96.29 51.1632 96.9602 50.5017 97.7983 50.4727L97.8557 50.4717H125.58Z" fill="#56CDD9"/>
<path id="Path_2" d="M130.672 50.2212C131.536 50.2212 132.237 50.9223 132.237 51.7871C132.237 52.6328 131.567 53.3218 130.729 53.3521L130.672 53.3531H130.589C129.725 53.3531 129.024 52.652 129.024 51.7871C129.024 50.9415 129.694 50.2524 130.532 50.2222L130.589 50.2212H130.672Z" fill="#56CDD9"/>
</g>
<g id="Group 28">
<path id="Rectangle_9" fill-rule="evenodd" clip-rule="evenodd" d="M154.168 163.317C154.168 160.003 156.854 157.317 160.168 157.317H172.477L178.336 163.359V180.017C178.336 183.33 175.65 186.017 172.336 186.017H160.168C156.854 186.017 154.168 183.33 154.168 180.017V163.317Z" fill="#FB9C9D"/>
<path id="PDF" fill-rule="evenodd" clip-rule="evenodd" d="M159.223 178.464V176.062H160.745C161.44 176.062 161.981 175.887 162.367 175.537C162.754 175.186 162.948 174.697 162.948 174.068C162.948 173.44 162.754 172.951 162.367 172.6C161.981 172.25 161.44 172.074 160.745 172.074H157.809V178.464H159.223ZM160.564 174.993H159.223V173.153H160.564C160.921 173.153 161.187 173.229 161.362 173.38C161.537 173.531 161.625 173.763 161.625 174.077C161.625 174.688 161.271 174.993 160.564 174.993ZM166.346 178.464C167.047 178.464 167.648 178.337 168.149 178.083C168.651 177.83 169.033 177.462 169.296 176.982C169.559 176.502 169.69 175.929 169.69 175.265C169.69 174.6 169.557 174.029 169.291 173.552C169.026 173.074 168.642 172.709 168.14 172.455C167.639 172.201 167.041 172.074 166.346 172.074H163.863V178.464H166.346ZM166.246 177.322H165.277V173.216H166.246C167.606 173.216 168.286 173.899 168.286 175.265C168.286 176.636 167.606 177.322 166.246 177.322ZM172.174 178.464V175.772H174.911V174.657H172.174V173.189H175.092V172.074H170.778V178.464H172.174Z" fill="white"/>
<path id="Path_3" opacity="0.33996" d="M178.336 163.359H175.477C173.82 163.359 172.477 162.016 172.477 160.359V157.317L178.336 163.359Z" fill="#EA5455"/>
</g>
<g id="Group 28_2">
<path id="Rectangle_10" fill-rule="evenodd" clip-rule="evenodd" d="M84.6842 201.584C84.6842 198.27 87.3705 195.584 90.6842 195.584H102.994L108.853 201.626V218.284C108.853 221.597 106.166 224.284 102.853 224.284H90.6842C87.3705 224.284 84.6842 221.597 84.6842 218.284V201.584Z" fill="#FFBC7C"/>
<path id="Rectangle_11" fill-rule="evenodd" clip-rule="evenodd" d="M88.7123 212.196C88.7123 211.92 88.9361 211.696 89.2123 211.696H92.2403C92.5165 211.696 92.7403 211.92 92.7403 212.196V218.749C92.7403 219.025 92.5165 219.249 92.2403 219.249H89.2123C88.9361 219.249 88.7123 219.025 88.7123 218.749V212.196Z" fill="white"/>
<path id="Rectangle_12" fill-rule="evenodd" clip-rule="evenodd" d="M94.7544 207.161C94.7544 206.885 94.9783 206.661 95.2544 206.661H98.2824C98.5586 206.661 98.7824 206.885 98.7824 207.161V218.749C98.7824 219.025 98.5586 219.249 98.2824 219.249H95.2544C94.9783 219.249 94.7544 219.025 94.7544 218.749V207.161Z" fill="white"/>
<path id="Rectangle_13" fill-rule="evenodd" clip-rule="evenodd" d="M100.796 210.685C100.796 210.409 101.02 210.185 101.296 210.185H104.324C104.601 210.185 104.824 210.409 104.824 210.685V218.749C104.824 219.025 104.601 219.249 104.324 219.249H101.296C101.02 219.249 100.796 219.025 100.796 218.749V210.685Z" fill="white"/>
<path id="Path_4" opacity="0.732678" d="M108.852 201.626H105.993C104.337 201.626 102.993 200.283 102.993 198.626V195.584L108.852 201.626Z" fill="#FC9735"/>
</g>
<g id="Group 28_3">
<path id="Rectangle_14" fill-rule="evenodd" clip-rule="evenodd" d="M118.921 182.954C118.921 179.64 121.607 176.954 124.921 176.954H137.231L143.089 182.996V199.653C143.089 202.967 140.403 205.653 137.089 205.653H124.921C121.607 205.653 118.921 202.967 118.921 199.653V182.954Z" fill="#B7B0FF"/>
<g id="Group 31">
<circle id="Oval_3" cx="127.124" cy="195.659" r="2.41683" fill="white"/>
<circle id="Oval_4" cx="132.919" cy="194.616" r="2.41683" fill="white"/>
<path id="Path_5" fill-rule="evenodd" clip-rule="evenodd" d="M135.336 186.824V194.434H134.43L134.429 188.674L129.534 190.261V195.587H128.628L128.628 188.998L135.336 186.824Z" fill="white"/>
</g>
<path id="Path_6" opacity="0.33996" d="M143.089 182.996H140.23C138.573 182.996 137.23 181.653 137.23 179.996V176.954L143.089 182.996Z" fill="#564EA6"/>
</g>
<g id="Group 73">
<path id="Rectangle_15" opacity="0.272833" fill-rule="evenodd" clip-rule="evenodd" d="M146.669 90.0257C146.669 84.0875 141.855 79.2737 135.917 79.2737H95.6612C89.723 79.2737 84.9092 84.0875 84.9092 90.0257V140.203C84.9092 146.141 89.723 150.955 95.6612 150.955H135.917C141.855 150.955 146.669 146.141 146.669 140.203V90.0257Z" fill="#00CFE8"/>
<path id="Rectangle_16" fill-rule="evenodd" clip-rule="evenodd" d="M141.997 92.6439C141.997 88.2289 138.418 84.6498 134.003 84.6498H98.2736C93.8585 84.6498 90.2794 88.2289 90.2794 92.6439C90.2794 97.059 93.8585 100.638 98.2736 100.638H134.003C138.418 100.638 141.997 97.059 141.997 92.6439Z" fill="#F4FEFF"/>
<path id="Rectangle_17" fill-rule="evenodd" clip-rule="evenodd" d="M138.501 92.588C138.501 89.6884 136.151 87.3379 133.251 87.3379H132.563C129.664 87.3379 127.313 89.6884 127.313 92.588C127.313 95.4876 129.664 97.8381 132.563 97.8381H133.251C136.151 97.8381 138.501 95.4876 138.501 92.588Z" fill="#7367F0" fill-opacity="0.210173"/>
<path id="Rectangle_18" fill-rule="evenodd" clip-rule="evenodd" d="M141.997 113.644C141.997 109.229 138.418 105.65 134.003 105.65H98.2736C93.8585 105.65 90.2794 109.229 90.2794 113.644C90.2794 118.059 93.8585 121.639 98.2736 121.639H134.003C138.418 121.639 141.997 118.059 141.997 113.644Z" fill="#F4FEFF"/>
<path id="Rectangle_19" fill-rule="evenodd" clip-rule="evenodd" d="M138.501 113.588C138.501 110.689 136.151 108.338 133.251 108.338H132.563C129.664 108.338 127.313 110.689 127.313 113.588C127.313 116.488 129.664 118.838 132.563 118.838H133.251C136.151 118.838 138.501 116.488 138.501 113.588Z" fill="#7367F0" fill-opacity="0.210173"/>
<path id="Rectangle_20" fill-rule="evenodd" clip-rule="evenodd" d="M141.997 134.645C141.997 130.23 138.418 126.651 134.003 126.651H98.2736C93.8585 126.651 90.2794 130.23 90.2794 134.645C90.2794 139.06 93.8585 142.639 98.2736 142.639H134.003C138.418 142.639 141.997 139.06 141.997 134.645Z" fill="#F4FEFF"/>
<path id="Rectangle_21" fill-rule="evenodd" clip-rule="evenodd" d="M138.501 134.589C138.501 131.689 136.151 129.339 133.251 129.339H132.563C129.664 129.339 127.313 131.689 127.313 134.589C127.313 137.488 129.664 139.839 132.563 139.839H133.251C136.151 139.839 138.501 137.488 138.501 134.589Z" fill="#7367F0" fill-opacity="0.210173"/>
</g>
<g id="Group 37">
<path id="Rectangle_22" fill-rule="evenodd" clip-rule="evenodd" d="M197.973 76.1788C197.973 74.1911 199.584 72.5798 201.572 72.5798H202.063C203.78 72.5798 205.171 73.9712 205.171 75.6875C205.171 76.2106 205.595 76.6347 206.118 76.6347H226.664C228.873 76.6347 230.664 78.4256 230.664 80.6347V96.206C230.664 98.4151 228.873 100.206 226.664 100.206H201.973C199.764 100.206 197.973 98.4151 197.973 96.206V76.1788Z" fill="#FF9F43"/>
<path id="Rectangle_23" fill-rule="evenodd" clip-rule="evenodd" d="M205.647 75.5254C205.742 74.9336 206.252 74.4982 206.851 74.4982H230.596C231.346 74.4982 231.918 75.1689 231.8 75.9095L228.242 98.2194C228.147 98.8111 227.637 99.2466 227.038 99.2466H203.293C202.543 99.2466 201.971 98.5759 202.089 97.8352L205.647 75.5254Z" fill="url(#paint6_linear_246_3442)"/>
<path id="Rectangle_24" fill-rule="evenodd" clip-rule="evenodd" d="M230.152 80.7834C232.667 80.7834 234.558 83.0777 234.078 85.5469L232.426 94.0446C231.695 97.8038 228.403 100.518 224.573 100.518H202.826C200.31 100.518 198.419 98.2235 198.899 95.7543L200.552 87.2566C201.282 83.4974 204.575 80.7834 208.404 80.7834L230.152 80.7834Z" fill="#FABB7E"/>
</g>
<g id="Group 28_4">
<path id="Rectangle_25" fill-rule="evenodd" clip-rule="evenodd" d="M180.854 124.044C180.854 120.73 183.54 118.044 186.854 118.044H209.092C212.406 118.044 215.092 120.73 215.092 124.044V140.744C215.092 144.057 212.406 146.744 209.092 146.744H186.854C183.54 146.744 180.854 144.057 180.854 140.744V124.044Z" fill="#77ECAB"/>
<path id="Path 6" fill-rule="evenodd" clip-rule="evenodd" d="M195.119 128.182C194.577 127.918 193.945 128.313 193.945 128.916V135.84C193.945 136.451 194.591 136.845 195.134 136.567L202.059 133.013C202.657 132.706 202.648 131.847 202.043 131.553L195.119 128.182Z" fill="white"/>
<rect id="Rectangle_26" x="184.378" y="120.561" width="3.02104" height="3.02104" fill="white"/>
<rect id="Rectangle_27" x="190.421" y="120.561" width="3.02104" height="3.02104" fill="white"/>
<rect id="Rectangle_28" x="196.463" y="120.561" width="3.02104" height="3.02104" fill="white"/>
<rect id="Rectangle_29" x="202.505" y="120.561" width="3.02104" height="3.02104" fill="white"/>
<rect id="Rectangle_30" x="208.547" y="120.561" width="3.02104" height="3.02104" fill="white"/>
<rect id="Rectangle_31" x="184.378" y="140.702" width="3.02104" height="3.02104" fill="white"/>
<rect id="Rectangle_32" x="190.421" y="140.702" width="3.02104" height="3.02104" fill="white"/>
<rect id="Rectangle_33" x="196.463" y="140.702" width="3.02104" height="3.02104" fill="white"/>
<rect id="Rectangle_34" x="202.505" y="140.702" width="3.02104" height="3.02104" fill="white"/>
<rect id="Rectangle_35" x="208.547" y="140.702" width="3.02104" height="3.02104" fill="white"/>
</g>
<g id="Men3.6">
<g id="RLeg">
<path id="Path_7" fill-rule="evenodd" clip-rule="evenodd" d="M18.9322 245.662L17.1179 256.616L23.3757 256.583L23.5873 245.49L18.9322 245.662Z" fill="#B8B6C9"/>
<path id="Path_8" fill-rule="evenodd" clip-rule="evenodd" d="M16.6207 252.481L16.5764 253.404C15.9082 254.142 15.6225 255.669 15.7193 257.985C15.7193 259.533 24.6726 259.487 25.1694 257.985C25.3389 255.472 25.0344 253.912 24.256 253.305L24.2511 252.414C24.248 251.835 23.8566 251.331 23.2951 251.181L22.162 250.877C21.1843 249.456 19.8518 249.506 18.7101 251.055L17.6365 251.287C17.0652 251.411 16.6486 251.9 16.6207 252.481Z" fill="#2F2B57"/>
<path id="Path_9" fill-rule="evenodd" clip-rule="evenodd" d="M40.1558 159.306C40.1558 159.306 32.0645 203.755 30.6457 208.384C29.2269 213.013 25.2922 247.828 25.2922 247.828L16.7933 247.852C16.7933 247.852 16.6122 221.052 17.4707 216.745C18.3292 212.437 20.2672 205.344 20.2672 205.344C20.2672 205.344 21.707 179.592 22.5685 173.585C23.4296 167.578 26.1943 158.674 26.1943 158.674L40.1558 159.306Z" fill="#2F2B57"/>
<path id="Path_10" fill-rule="evenodd" clip-rule="evenodd" d="M33.998 192.279L34.7745 186.229L34.2064 187.895C31.3779 196.24 29.4547 202.718 28.4368 207.328C27.5802 211.208 27.4001 217.907 27.8965 227.424L28.4608 222.76C29.2744 216.156 30.0654 210.361 30.6246 208.455L30.6799 208.27C31.2055 206.46 32.5148 199.97 33.998 192.279Z" fill="white" fill-opacity="0.192499"/>
</g>
<g id="LLeg">
<path id="Path_11" fill-rule="evenodd" clip-rule="evenodd" d="M39.4884 247.218L45.2001 247.256L45.2017 247.417C45.2206 248.203 45.4348 251.672 47.7283 253.004L48.1859 253.274C50.7685 254.822 54.3413 257.31 54.3413 257.31L39.0524 257.83L39.4884 247.218Z" fill="#B8B6C9"/>
<path id="Path_12" fill-rule="evenodd" clip-rule="evenodd" d="M40.2786 251.104C38.9394 250.981 38.2698 253.55 38.2698 258.811L45.1265 258.836L45.5911 257.83L46.0277 258.006C46.9575 258.371 47.6178 258.573 48.0087 258.611L48.3715 258.644C50.294 258.81 52.9582 258.888 56.3644 258.877L56.3757 258.818C56.4334 258.462 56.5861 256.558 53.6253 255.111L53.4864 255.045C50.1111 253.463 47.6378 251.23 47.1038 250.933L47.0779 250.919C46.5995 250.684 46.9116 250.551 46.2319 251.104C45.5523 251.657 45.4404 253.111 43.9003 253.156C41.9181 253.215 42.2874 251.289 40.2786 251.104Z" fill="#2F2B57"/>
<path id="Path_13" fill-rule="evenodd" clip-rule="evenodd" d="M32.3637 180.255C34.5544 188.154 36.34 207.444 36.34 207.444C36.34 207.444 36.5416 209.476 35.6689 215.105C34.7962 220.734 38.2349 248.126 38.2349 248.126L47.286 248.144C47.286 248.144 48.4024 211.346 48.4553 207.476C48.538 201.442 50.4951 159.602 50.4951 159.602L31.6708 159.174C31.6708 159.174 30.1731 172.356 32.3637 180.255Z" fill="#353160"/>
<path id="Path_14" fill-rule="evenodd" clip-rule="evenodd" d="M45.5619 175.436L45.5975 175.591C46.8977 181.059 44.6678 205.291 45.3027 211.053L45.5555 213.115C45.9968 216.819 46.7436 223.573 47.7958 233.375L48.024 225.17C48.2335 217.373 48.4116 210.035 48.4502 207.804L48.4553 207.476C48.538 201.442 50.4951 159.602 50.4951 159.602L46.9735 159.523L46.8196 160.199C45.265 167.132 44.8458 172.211 45.5619 175.436Z" fill="white" fill-opacity="0.192499"/>
<path id="Path 47" d="M48.5375 252.481L48.9708 251.729" stroke="white" stroke-width="2" stroke-linecap="round"/>
<path id="Path 47_2" d="M49.815 253.34L50.2483 252.588" stroke="white" stroke-width="2" stroke-linecap="round"/>
<path id="Path 47_3" d="M51.0915 254.199L51.5248 253.448" stroke="white" stroke-width="2" stroke-linecap="round"/>
</g>
<g id="Head">
<path id="Path_15" fill-rule="evenodd" clip-rule="evenodd" d="M45.8956 105.038C47.8617 105.253 47.7223 108.707 45.329 108.887C44.8398 112.217 43.0953 113.803 40.9684 113.987L41.0863 119.023L31.6785 119.017C31.6785 119.017 34.3277 115.459 34.1956 110.589C34.0636 105.718 34.2843 101.142 34.2843 101.142L46.4696 101.361L45.8956 105.038Z" fill="url(#paint7_linear_246_3442)"/>
<path id="Path_16" fill-rule="evenodd" clip-rule="evenodd" d="M46.8388 102.986C47.6866 103.395 47.0117 105.245 46.5824 105.245C44.6131 104.466 42.9804 107.268 42.1504 110.083C39.7933 112.393 34.5853 112.445 34.0472 110.512C32.0102 106.278 31.9103 100.156 34.2874 99.6832C32.4214 94.7632 57.6218 92.1895 46.8388 102.986Z" fill="url(#paint8_linear_246_3442)"/>
<path id="Path 45" fill-rule="evenodd" clip-rule="evenodd" d="M44.734 110.774C44.6372 110.562 44.0601 112.014 43.1271 112.792C42.1616 113.598 40.7123 113.834 40.9675 113.987C42.9263 115.159 45.5226 112.502 44.734 110.774Z" fill="url(#paint9_linear_246_3442)"/>
</g>
<g id="Group 9">
<path id="Path_17" fill-rule="evenodd" clip-rule="evenodd" d="M8.4015 128.402C8.4015 128.402 8.81482 125.619 8.68363 123.788C8.441 120.401 8.90503 117.544 8.15504 117.1C7.1931 116.53 6.95254 121.587 6.95254 121.587C6.95254 121.587 1.45886 112.644 0.313543 113.724C-0.831772 114.805 1.55732 119.504 1.1785 120.863C0.799676 122.222 4.58526 128.794 4.58526 128.794L8.4015 128.402Z" fill="url(#paint10_linear_246_3442)"/>
<path id="Path_18" fill-rule="evenodd" clip-rule="evenodd" d="M28.7101 130.01C28.7101 130.01 20.3887 142.954 18.5503 145.464C16.6219 148.096 13.2164 149.262 10.7996 145.062C8.66193 141.347 4.0848 132.044 3.50551 129.152C3.07332 126.994 7.5001 123.778 9.62771 127.002C11.7553 130.226 15.1155 135.074 15.1155 135.074C15.1155 135.074 20.641 125.064 22.3636 122.702C27.0088 116.333 34.0864 122.052 28.7101 130.01Z" fill="#02C4DC"/>
<path id="Path_19" fill-rule="evenodd" clip-rule="evenodd" d="M15.1152 135.075L13.2869 138.222L13.9531 133.364L15.1152 135.075Z" fill="black" fill-opacity="0.159856"/>
<path id="Path 54" d="M9.47296 127.106C7.53975 126.495 5.7696 126.821 4.35702 129.199" stroke="#5386BF" stroke-linecap="round"/>
</g>
<g id="Group 17">
<path id="Path_20" fill-rule="evenodd" clip-rule="evenodd" d="M32.6992 116.569L42.4204 116.632L42.8183 116.792C44.4219 117.45 50.3776 120.01 51.4871 122.203C53.341 125.867 50.8984 155.226 51.9632 156.997C54.2095 160.735 51.2753 163.312 41.5255 164.287L41.2279 164.316C31.2404 165.268 22.3798 164.488 23.9877 159.451C25.5959 154.412 20.6753 121.963 25.2895 119.721L32.6992 116.569Z" fill="#00CFE8"/>
<path id="Path_21" fill-rule="evenodd" clip-rule="evenodd" d="M43.1835 124.004C41.7433 127.139 44.6039 135.299 51.7652 148.482L51.8538 145.537C52.0881 138.186 52.4327 129.225 52.0002 124.716C47.4769 121.292 44.5382 121.055 43.1835 124.004Z" fill="black" fill-opacity="0.159856"/>
<path id="Rectangle_36" fill-rule="evenodd" clip-rule="evenodd" d="M43.0745 115.708C42.4697 115.544 32.3428 115.708 31.9404 115.708C31.5381 115.708 31.5381 117.429 31.9404 117.429C32.1864 117.429 35.3271 117.382 43.0752 117.289C43.7744 117.28 45.6395 118.071 45.6395 118.071C45.6395 118.071 43.6792 115.873 43.0745 115.708Z" fill="url(#paint11_linear_246_3442)"/>
</g>
<g id="Group 8">
<path id="Path_22" fill-rule="evenodd" clip-rule="evenodd" d="M82.3592 145.616C82.3592 145.616 87.661 146.458 88.6611 145.631C89.6612 144.805 93.645 139.185 93.2098 138.218C92.7747 137.252 89.1399 139.296 88.8302 138.682C88.432 137.892 90.4876 135.074 88.6863 134.91C88.2224 134.867 87.8948 136.602 86.5888 137.744C85.283 138.887 82.1309 141.421 82.1309 141.421L82.3592 145.616Z" fill="url(#paint12_linear_246_3442)"/>
<path id="Path_23" fill-rule="evenodd" clip-rule="evenodd" d="M50.3184 120.879C54.9003 125.239 61.3878 135.533 62.77 136.44C64.1526 137.347 81.4449 139.177 83.073 140.653C84.433 141.887 84.5555 145.64 83.073 146.681C81.5903 147.722 62.1211 146.326 58.5505 145.286C54.9796 144.246 48.8635 134.712 46.1316 131.737C38.4914 123.415 45.7366 116.519 50.3184 120.879Z" fill="#02C4DC"/>
<path id="Path 53" d="M81.2747 140.049C82.1309 141.051 82.5629 142.51 82.1309 145.362" stroke="#5386BF" stroke-linecap="round"/>
</g>
</g>
</g>
</g>
<defs>
<filter id="filter0_f_246_3442" x="6.98063" y="0.784222" width="106.737" height="94.3317" filterUnits="userSpaceOnUse" color-interpolation-filters="sRGB">
<feFlood flood-opacity="0" result="BackgroundImageFix"/>
<feBlend mode="normal" in="SourceGraphic" in2="BackgroundImageFix" result="shape"/>
<feGaussianBlur stdDeviation="5.43656" result="effect1_foregroundBlur_246_3442"/>
</filter>
<linearGradient id="paint0_linear_246_3442" x1="33.9388" y1="202.658" x2="172.9" y2="276.881" gradientUnits="userSpaceOnUse">
<stop stop-color="#FAFEFF"/>
<stop offset="1" stop-color="#28C76F"/>
</linearGradient>
<linearGradient id="paint1_linear_246_3442" x1="83.7392" y1="101.162" x2="163.917" y2="178.411" gradientUnits="userSpaceOnUse">
<stop stop-color="#FAFEFF"/>
<stop offset="1" stop-color="#00CFE8"/>
</linearGradient>
<linearGradient id="paint2_linear_246_3442" x1="-16.4548" y1="72.3867" x2="69.3784" y2="118.285" gradientUnits="userSpaceOnUse">
<stop stop-color="#FAFEFF"/>
<stop offset="1" stop-color="#77ECAB"/>
</linearGradient>
<linearGradient id="paint3_linear_246_3442" x1="205.083" y1="233.19" x2="233.889" y2="251.099" gradientUnits="userSpaceOnUse">
<stop stop-color="#FAFEFF"/>
<stop offset="1" stop-color="#00CFE8"/>
</linearGradient>
<linearGradient id="paint4_linear_246_3442" x1="250.504" y1="184.796" x2="281.49" y2="198.063" gradientUnits="userSpaceOnUse">
<stop stop-color="#FAFEFF"/>
<stop offset="1" stop-color="#28C76F"/>
</linearGradient>
<linearGradient id="paint5_linear_246_3442" x1="57.0253" y1="259.487" x2="120.301" y2="226.939" gradientUnits="userSpaceOnUse">
<stop stop-color="#F8FDFF"/>
<stop offset="1" stop-color="#88EFB6"/>
</linearGradient>
<linearGradient id="paint6_linear_246_3442" x1="229.474" y1="82.2644" x2="229.474" y2="67.6978" gradientUnits="userSpaceOnUse">
<stop stop-color="#F8FDFF"/>
<stop offset="1" stop-color="#AAD4FF"/>
</linearGradient>
<linearGradient id="paint7_linear_246_3442" x1="49.9537" y1="96.7898" x2="48.3785" y2="118.082" gradientUnits="userSpaceOnUse">
<stop stop-color="#FDC6C6"/>
<stop offset="1" stop-color="#FAB2B2"/>
</linearGradient>
<linearGradient id="paint8_linear_246_3442" x1="48.138" y1="100.737" x2="29.0974" y2="100.737" gradientUnits="userSpaceOnUse">
<stop stop-color="#3F4044"/>
<stop offset="1" stop-color="#222735"/>
</linearGradient>
<linearGradient id="paint9_linear_246_3442" x1="46.117" y1="116.177" x2="38.6976" y2="117.342" gradientUnits="userSpaceOnUse">
<stop stop-color="#4D63A0"/>
<stop offset="1" stop-color="#222735"/>
</linearGradient>
<linearGradient id="paint10_linear_246_3442" x1="10.2164" y1="109.943" x2="8.20496" y2="127.87" gradientUnits="userSpaceOnUse">
<stop stop-color="#FDC6C6"/>
<stop offset="1" stop-color="#FAB2B2"/>
</linearGradient>
<linearGradient id="paint11_linear_246_3442" x1="71.272" y1="112.163" x2="71.2438" y2="124.128" gradientUnits="userSpaceOnUse">
<stop stop-color="#D7FFFF"/>
<stop offset="1" stop-color="#648BF0"/>
</linearGradient>
<linearGradient id="paint12_linear_246_3442" x1="95.1657" y1="132.21" x2="94.3157" y2="145.429" gradientUnits="userSpaceOnUse">
<stop stop-color="#FDC6C6"/>
<stop offset="1" stop-color="#FAB2B2"/>
</linearGradient>
</defs>
</svg>
