<svg width="375" height="180" viewBox="0 0 375 180" fill="none" xmlns="http://www.w3.org/2000/svg">
<rect width="375" height="180" fill="#F8F8F8"/>
<path opacity="0.150019" fill-rule="evenodd" clip-rule="evenodd" d="M234.625 81.5286C230.708 77.6214 230.708 71.2763 234.625 67.3691L247.692 54.334C251.596 50.4404 257.914 50.4404 261.817 54.334L274.884 67.3691C278.801 71.2763 278.801 77.6214 274.884 81.5286L261.817 94.5637C257.914 98.4573 251.596 98.4573 247.692 94.5637L234.625 81.5286Z" fill="#BFE7FF"/>
<g opacity="0.0375744" filter="url(#filter0_f_246_1867)">
<path fill-rule="evenodd" clip-rule="evenodd" d="M154.239 38.8813C150.323 34.974 150.323 28.629 154.239 24.7218L156.881 22.0863C160.785 18.1926 167.103 18.1926 171.006 22.0862L173.648 24.7218C177.565 28.629 177.565 34.974 173.648 38.8813L171.006 41.5168C167.103 45.4104 160.785 45.4104 156.881 41.5168L154.239 38.8813Z" fill="#7367F0"/>
</g>
<path opacity="0.0659412" fill-rule="evenodd" clip-rule="evenodd" d="M167.892 82.8471C163.975 78.9399 163.975 72.5948 167.892 68.6876L206.337 30.3367C210.24 26.443 216.559 26.443 220.462 30.3367L258.907 68.6876C262.824 72.5948 262.824 78.9399 258.907 82.8471L220.462 121.198C216.559 125.092 210.24 125.092 206.337 121.198L167.892 82.8471Z" fill="#7367F0"/>
<path opacity="0.0895647" fill-rule="evenodd" clip-rule="evenodd" d="M130.199 76.5218C129.097 75.4198 127.308 75.422 126.203 76.5267L95.0002 107.73C93.8955 108.834 93.8933 110.623 94.9953 111.725L126.122 142.851C127.224 143.953 129.012 143.951 130.117 142.846L161.32 111.644C162.425 110.539 162.427 108.75 161.325 107.648L130.199 76.5218ZM108.98 109.71L128.182 90.5083L147.336 109.663L128.134 128.865L108.98 109.71Z" fill="#7367F0"/>
<path fill-rule="evenodd" clip-rule="evenodd" d="M145.17 104.107L145.17 141.511L145.208 141.474L145.199 143.329L166.707 164.713H163.84L145.17 146.141L145.17 164.703H142.906L142.906 146.85L124.959 164.713H121.809L142.906 143.733L142.906 104.107H145.17Z" fill="url(#paint0_linear_246_1867)"/>
<path fill-rule="evenodd" clip-rule="evenodd" d="M149.417 142.9C149.417 141.649 148.403 140.635 147.151 140.635H141.208C139.957 140.635 138.943 141.649 138.943 142.9C138.943 144.151 139.957 145.165 141.208 145.165H147.151C148.402 145.165 149.417 144.151 149.417 142.9Z" fill="#C8DAFF"/>
<path fill-rule="evenodd" clip-rule="evenodd" d="M126.426 51.2939H166.115C166.857 51.2939 167.459 51.8934 167.459 52.6329V118.833C167.459 119.552 166.89 120.138 166.176 120.17L166.11 120.172L126.421 120.018C125.681 120.015 125.082 119.417 125.082 118.679V52.6329C125.082 51.8934 125.684 51.2939 126.426 51.2939Z" fill="#AFA7FF"/>
<path fill-rule="evenodd" clip-rule="evenodd" d="M124.481 51.2939H164.17C164.912 51.2939 165.514 51.8934 165.514 52.6329V118.833C165.514 119.552 164.945 120.138 164.231 120.17L164.165 120.172L124.476 120.018C123.736 120.015 123.137 119.417 123.137 118.679V52.6329C123.137 51.8934 123.739 51.2939 124.481 51.2939Z" fill="#D5D1FF"/>
<path fill-rule="evenodd" clip-rule="evenodd" d="M126.397 52.6772H162.199C163.049 52.6772 163.737 53.363 163.737 54.209V116.709C163.737 117.555 163.049 118.241 162.199 118.241H126.397C125.548 118.241 124.859 117.555 124.859 116.709V54.209C124.859 53.363 125.548 52.6772 126.397 52.6772Z" fill="white"/>
<path fill-rule="evenodd" clip-rule="evenodd" d="M137.634 116.304H148.464C149.077 116.304 149.575 116.8 149.575 117.411V121.007H137.634C137.02 121.007 136.523 120.512 136.523 119.9V117.411C136.523 116.8 137.02 116.304 137.634 116.304Z" fill="#A7C3FF"/>
<path fill-rule="evenodd" clip-rule="evenodd" d="M149.296 119.9H150.407V121.007H149.296V119.9Z" fill="#A7C3FF"/>
<path fill-rule="evenodd" clip-rule="evenodd" d="M137.077 116.304H147.907C148.521 116.304 149.018 116.8 149.018 117.411V119.9C149.018 120.512 148.521 121.007 147.907 121.007H137.077C136.463 121.007 135.966 120.512 135.966 119.9V117.411C135.966 116.8 136.463 116.304 137.077 116.304Z" fill="#C8DAFF"/>
<rect x="183.797" y="59.3593" width="17.601" height="20.2279" rx="6" fill="#91D6FF"/>
<rect x="182.427" y="59.3593" width="17.601" height="20.2279" rx="6" fill="#E3F4FF"/>
<path fill-rule="evenodd" clip-rule="evenodd" d="M184.484 65.7457C184.484 63.5366 186.275 61.7457 188.484 61.7457H193.971C196.18 61.7457 197.971 63.5366 197.971 65.7457V73.3144C197.971 75.5236 196.18 77.3144 193.971 77.3144H188.484C186.275 77.3144 184.484 75.5236 184.484 73.3144V65.7457Z" fill="white"/>
<path d="M184.484 63.1173C184.484 62.3598 185.098 61.7457 185.856 61.7457V77.3144C185.098 77.3144 184.484 76.7004 184.484 75.9429V63.1173Z" fill="#91D6FF"/>
<path fill-rule="evenodd" clip-rule="evenodd" d="M194.99 73.1166C195.3 73.1166 195.494 72.7815 195.34 72.5127L191.357 65.5738C191.201 65.301 190.806 65.3045 190.654 65.58L186.835 72.5189C186.687 72.7876 186.881 73.1166 187.188 73.1166H194.99Z" fill="#83F2D5"/>
<path opacity="0.44687" fill-rule="evenodd" clip-rule="evenodd" d="M195.553 70.0608C195.864 70.0608 196.058 69.7248 195.903 69.456L193.983 66.1325C193.826 65.861 193.433 65.8645 193.281 66.1388L191.44 69.4623C191.291 69.731 191.486 70.0608 191.793 70.0608H195.553Z" fill="#63CBE8"/>
<rect x="209.032" y="59.3593" width="17.601" height="20.2279" rx="6" fill="#91D6FF"/>
<rect x="207.661" y="59.3593" width="17.601" height="20.2279" rx="6" fill="#E3F4FF"/>
<path fill-rule="evenodd" clip-rule="evenodd" d="M209.719 65.7457C209.719 63.5366 211.51 61.7457 213.719 61.7457H219.205C221.414 61.7457 223.205 63.5366 223.205 65.7457V73.3144C223.205 75.5236 221.414 77.3144 219.205 77.3144H213.719C211.51 77.3144 209.719 75.5236 209.719 73.3144V65.7457Z" fill="white"/>
<rect x="212.92" y="66.8595" width="6.74325" height="6.70476" rx="0.4032" fill="#83F2D5"/>
<rect opacity="0.44687" x="216.576" y="64.2457" width="5.14315" height="5.1138" rx="0.4032" fill="#63CBE8"/>
<path d="M209.719 63.1173C209.719 62.3598 210.333 61.7457 211.09 61.7457V77.3144C210.333 77.3144 209.719 76.7004 209.719 75.9429V63.1173Z" fill="#91D6FF"/>
<rect x="234.008" y="59.3593" width="17.601" height="20.2279" rx="6" fill="#91D6FF"/>
<rect x="232.638" y="59.3593" width="17.601" height="20.2279" rx="6" fill="#E3F4FF"/>
<path fill-rule="evenodd" clip-rule="evenodd" d="M234.695 65.7457C234.695 63.5366 236.486 61.7457 238.695 61.7457H244.182C246.391 61.7457 248.182 63.5366 248.182 65.7457V73.3144C248.182 75.5236 246.391 77.3144 244.182 77.3144H238.695C236.486 77.3144 234.695 75.5236 234.695 73.3144V65.7457Z" fill="white"/>
<ellipse cx="241.608" cy="70.2118" rx="4.74313" ry="4.71606" fill="#83F2D5"/>
<ellipse opacity="0.44687" cx="243.896" cy="66.4617" rx="2.4573" ry="2.44326" fill="#63CBE8"/>
<path d="M234.695 63.1173C234.695 62.3598 235.309 61.7457 236.067 61.7457V77.3144C235.309 77.3144 234.695 76.7004 234.695 75.9429V63.1173Z" fill="#91D6FF"/>
<g filter="url(#filter1_dd_246_1867)">
<path fill-rule="evenodd" clip-rule="evenodd" d="M119.727 100.911C119.727 97.9347 122.139 95.5221 125.115 95.5221H155.15C158.126 95.5221 160.538 97.9347 160.538 100.911V105.298C160.538 108.274 158.126 110.687 155.15 110.687H125.115C122.139 110.687 119.727 108.274 119.727 105.298V100.911Z" fill="white"/>
</g>
<path opacity="0.465472" d="M133.026 104.406C133.026 104.153 133.231 103.947 133.485 103.947H141.126C141.38 103.947 141.585 104.153 141.585 104.406C141.585 104.66 141.38 104.866 141.126 104.866H133.485C133.231 104.866 133.026 104.66 133.026 104.406Z" fill="#FFBF29"/>
<path d="M133.026 101.802C133.026 101.548 133.231 101.343 133.485 101.343H138.069C138.323 101.343 138.528 101.548 138.528 101.802C138.528 102.056 138.323 102.262 138.069 102.262H133.485C133.231 102.262 133.026 102.056 133.026 101.802Z" fill="#FFBF29"/>
<path d="M148.043 101.385C148.174 101.096 148.514 100.969 148.802 101.1C148.897 101.144 148.979 101.213 149.037 101.299L149.058 101.332L150.183 103.248C150.193 103.266 150.217 103.272 150.235 103.261L150.24 103.258L150.244 103.254L150.842 102.576C151.052 102.338 151.414 102.316 151.651 102.526C151.667 102.54 151.682 102.555 151.696 102.57L151.716 102.594L152.593 103.673C152.607 103.69 152.631 103.692 152.647 103.679L152.652 103.675L152.655 103.669L154.041 101.426C154.208 101.156 154.561 101.073 154.83 101.239C154.872 101.265 154.91 101.296 154.944 101.332L154.968 101.359L155.614 102.133C155.708 102.246 155.693 102.415 155.58 102.51C155.473 102.6 155.317 102.591 155.22 102.495L155.203 102.477L154.558 101.703C154.555 101.7 154.552 101.697 154.549 101.695C154.534 101.686 154.515 101.688 154.502 101.7L154.496 101.708L153.11 103.951C153.077 104.006 153.034 104.054 152.985 104.095C152.748 104.288 152.403 104.26 152.2 104.037L152.178 104.012L151.301 102.932C151.3 102.931 151.299 102.929 151.297 102.928C151.284 102.916 151.265 102.915 151.251 102.924L151.243 102.931L150.645 103.609C150.605 103.654 150.558 103.693 150.506 103.724C150.242 103.879 149.905 103.799 149.738 103.546L149.721 103.52L148.597 101.604C148.593 101.597 148.587 101.592 148.58 101.588C148.564 101.581 148.546 101.586 148.535 101.599L148.53 101.607L147.434 104.016C147.394 104.106 147.33 104.183 147.251 104.241L147.221 104.262L145.922 105.092C145.798 105.171 145.632 105.135 145.553 105.01C145.478 104.892 145.506 104.737 145.615 104.654L145.635 104.64L146.933 103.81C146.937 103.807 146.941 103.804 146.944 103.8L146.948 103.794L148.043 101.385Z" fill="#FFBF29"/>
<ellipse cx="127.294" cy="103.258" rx="3.1335" ry="3.14014" fill="#FFBF29"/>
<g filter="url(#filter2_dd_246_1867)">
<path fill-rule="evenodd" clip-rule="evenodd" d="M119.727 64.2369C119.727 59.8187 123.308 56.2369 127.727 56.2369H152.436C156.855 56.2369 160.436 59.8187 160.436 64.2369V82.6346C160.436 87.0529 156.855 90.6346 152.436 90.6346H127.727C123.308 90.6346 119.727 87.0529 119.727 82.6346V64.2369Z" fill="white"/>
</g>
<mask id="mask0_246_1867" style="mask-type:luminance" maskUnits="userSpaceOnUse" x="119" y="56" width="42" height="35">
<path fill-rule="evenodd" clip-rule="evenodd" d="M119.727 64.2369C119.727 59.8187 123.308 56.2369 127.727 56.2369H152.436C156.855 56.2369 160.436 59.8187 160.436 64.2369V82.6346C160.436 87.0529 156.855 90.6346 152.436 90.6346H127.727C123.308 90.6346 119.727 87.0529 119.727 82.6346V64.2369Z" fill="white"/>
</mask>
<g mask="url(#mask0_246_1867)">
<path opacity="0.414737" fill-rule="evenodd" clip-rule="evenodd" d="M125.173 82.2643C125.173 82.2643 130.001 80.8837 132.131 78.0656C134.26 75.2476 134.978 72.5161 138.64 72.5161C142.302 72.5161 142.771 76.6996 146.73 76.6996C150.688 76.6996 150.905 71.3646 152.221 69.2462C153.536 67.1278 155.807 67.1278 155.807 67.1278V83.9734C155.807 84.9454 155.019 85.7334 154.047 85.7334H126.933C125.961 85.7334 125.173 84.9454 125.173 83.9734V82.2643Z" fill="#FFE3B5"/>
<g filter="url(#filter3_d_246_1867)">
<path d="M125.173 82.557C125.173 82.557 130.001 81.1704 132.131 78.3401C134.26 75.5099 134.978 72.7666 138.64 72.7666C142.302 72.7666 142.771 76.9682 146.73 76.9682C150.688 76.9682 150.905 71.61 152.221 69.4824C153.536 67.3549 155.807 67.3549 155.807 67.3549" stroke="#FFBF29" stroke-width="2.64" stroke-linecap="round"/>
</g>
<rect x="122.902" y="59.6405" width="12.7076" height="1.36139" rx="0.680694" fill="#FFBF29"/>
<path opacity="0.465472" d="M122.902 63.7246C122.902 63.3487 123.207 63.0439 123.583 63.0439H128.121C128.497 63.0439 128.802 63.3487 128.802 63.7246C128.802 64.1006 128.497 64.4053 128.121 64.4053H123.583C123.207 64.4053 122.902 64.1006 122.902 63.7246Z" fill="#FFBF29"/>
<ellipse cx="152.518" cy="60.4347" rx="0.794224" ry="0.794148" fill="white"/>
<ellipse cx="154.785" cy="60.4347" rx="0.794219" ry="0.794148" fill="white"/>
<ellipse cx="157.056" cy="60.4347" rx="0.794234" ry="0.794148" fill="white"/>
</g>
<path fill-rule="evenodd" clip-rule="evenodd" d="M215.095 162.115C215.095 161.448 214.574 160.897 213.908 160.861L204.269 160.331H201.075L191.394 160.861C190.728 160.898 190.207 161.448 190.207 162.115H215.095Z" fill="#BFE7FF"/>
<path fill-rule="evenodd" clip-rule="evenodd" d="M203.839 142.611H201.468V160.45H203.839V142.611Z" fill="#BFE7FF"/>
<rect width="3.55544" height="4.16248" rx="0.84" transform="matrix(-1 0 0 1 204.429 157.953)" fill="#91D6FF"/>
<path fill-rule="evenodd" clip-rule="evenodd" d="M205.614 142.143C205.614 141.679 205.238 141.303 204.774 141.303H200.528C200.065 141.303 199.688 141.679 199.688 142.143V142.994C199.688 143.338 199.897 143.646 200.216 143.774L201.019 144.097C201.119 144.136 201.225 144.157 201.332 144.157H203.97C204.078 144.157 204.184 144.136 204.283 144.097L205.087 143.774C205.406 143.646 205.614 143.338 205.614 142.994V142.143Z" fill="#91D6FF"/>
<rect width="2.37034" height="2.37858" rx="1.18517" transform="matrix(-1 0 0 1 215.689 162.115)" fill="#91D6FF"/>
<rect width="2.37031" height="2.37858" rx="1.18515" transform="matrix(-1 0 0 1 191.985 162.115)" fill="#91D6FF"/>
<rect width="2.37033" height="2.37858" rx="1.18516" transform="matrix(-1 0 0 1 203.839 162.115)" fill="#91D6FF"/>
<path fill-rule="evenodd" clip-rule="evenodd" d="M205.497 139.876C205.497 138.825 204.645 137.973 203.594 137.973L188.674 137.973C187.624 137.973 186.772 138.825 186.772 139.876C186.772 140.927 187.624 141.778 188.674 141.778H203.594C204.645 141.778 205.497 140.927 205.497 139.876Z" fill="#BFE7FF"/>
<path fill-rule="evenodd" clip-rule="evenodd" d="M214.74 120.371H211.422C211.422 120.371 211.422 125.129 211.422 129.886C211.422 134.643 206.089 139.4 206.089 139.4H210.474C210.474 139.4 214.74 135.349 214.74 129.886C214.74 125.129 214.74 120.371 214.74 120.371Z" fill="#91D6FF"/>
<path fill-rule="evenodd" clip-rule="evenodd" d="M213.316 120.371H209.998C209.998 120.371 209.998 125.129 209.998 129.886C209.998 134.643 204.664 139.4 204.664 139.4H208.575C208.575 139.4 213.316 135.46 213.316 129.886C213.316 125.129 213.316 120.371 213.316 120.371Z" fill="#BFE7FF"/>
<path fill-rule="evenodd" clip-rule="evenodd" d="M223.036 120.474C223.036 116.608 219.902 113.474 216.035 113.474H208.577C204.711 113.474 201.576 116.608 201.576 120.474C201.576 124.34 204.711 127.475 208.577 127.475H216.035C219.902 127.475 223.036 124.34 223.036 120.474Z" fill="#BFE7FF"/>
<path fill-rule="evenodd" clip-rule="evenodd" d="M223.138 115.01C223.138 114.162 222.45 113.474 221.602 113.474C220.753 113.474 220.065 114.162 220.065 115.01V125.938C220.065 126.787 220.753 127.475 221.602 127.475C222.45 127.475 223.138 126.787 223.138 125.938V115.01Z" fill="#91D6FF"/>
<path fill-rule="evenodd" clip-rule="evenodd" d="M217.11 139.876C217.11 138.825 216.258 137.973 215.207 137.973L200.762 137.973C199.711 137.973 198.859 138.825 198.859 139.876C198.859 140.927 199.711 141.778 200.762 141.778H215.207C216.258 141.778 217.11 140.927 217.11 139.876Z" fill="#91D6FF"/>
<path fill-rule="evenodd" clip-rule="evenodd" d="M191.046 152.866C191.046 152.866 192.411 155.623 191.292 156.491C190.172 157.36 187.212 158.988 187.212 158.988L195.053 158.496L193.31 152.484L191.046 152.866Z" fill="url(#paint1_linear_246_1867)"/>
<path fill-rule="evenodd" clip-rule="evenodd" d="M194.276 155.361C194.029 155.479 194.435 156.586 193.566 156.508C192.698 156.431 192.153 155.286 191.513 155.36C190.873 155.434 190.467 156.587 189.248 157.39C188.029 158.193 186.223 159.151 186.344 159.959C186.465 160.766 189.308 160.982 190.749 160.715C192.189 160.448 192.861 159.869 193.796 159.915C194.73 159.961 195.318 159.847 195.611 159.247C195.904 158.646 194.56 155.225 194.276 155.361Z" fill="#EEDFE8"/>
<path fill-rule="evenodd" clip-rule="evenodd" d="M194.207 159.046L194.127 159.041C192.969 158.944 192.174 159.672 191.072 159.877C189.969 160.083 187.062 160.154 186.597 159.464C186.575 159.432 186.555 159.398 186.536 159.364C186.38 159.556 186.307 159.761 186.344 160C186.465 160.769 189.309 160.975 190.75 160.72C192.19 160.466 192.863 159.915 193.797 159.959L193.963 159.965C194.802 159.988 195.337 159.859 195.612 159.323C195.679 159.192 195.664 158.911 195.597 158.556C195.206 158.823 194.713 159.061 194.207 159.046Z" fill="#EC7AA5"/>
<path fill-rule="evenodd" clip-rule="evenodd" d="M202.858 128.571C200.484 128.677 187.271 131.6 184.871 132.096C182.47 132.593 180.441 135.279 182.271 138.39C184.327 141.882 189.632 151.799 190.92 154.035C191.557 155.142 194.773 154.521 194.018 152.664C192.61 149.202 191.956 140.504 188.365 137.333C188.365 137.333 200.44 139.434 205.655 137.027C209.446 135.278 208.588 128.315 202.858 128.571Z" fill="#413C75"/>
<path fill-rule="evenodd" clip-rule="evenodd" d="M186.296 113.753C186.296 113.753 186.323 112.341 185.647 111.332C184.971 110.323 184.944 109.25 184.433 109.285C183.922 109.32 184.428 111.813 184.428 111.813C184.428 111.813 183.779 111.565 183.313 111.251C182.847 110.938 181.434 109.392 181.103 109.666C180.543 110.133 181.445 112.765 181.937 113.292C182.43 113.818 184.862 115.289 184.862 115.289L192.025 122.506L193.097 118.675L186.296 113.753Z" fill="url(#paint2_linear_246_1867)"/>
<path fill-rule="evenodd" clip-rule="evenodd" d="M200.624 113.116C199.52 115.677 197.498 120.382 196.664 121.786C195.619 123.544 193.972 124.318 192.043 123.014C191.64 122.741 190.481 121.787 190.481 121.787C190.653 120.116 191.277 118.719 192.353 117.597L193.084 118.201C193.084 118.201 195.156 112.889 196.823 109.811C198.267 107.149 202.305 109.222 200.624 113.116Z" fill="#EA5455"/>
<path fill-rule="evenodd" clip-rule="evenodd" d="M193.062 118.204C193.062 118.204 192.506 120.092 192.376 119.982C192.246 119.873 192.475 117.71 192.475 117.71L193.062 118.204Z" fill="black" fill-opacity="0.159856"/>
<path fill-rule="evenodd" clip-rule="evenodd" d="M205.398 103.174V105.44L207.062 104.1C207.062 104.1 207.574 101.929 207.99 100.316C208.25 99.305 208.886 95.8823 206.327 96.0426C204.231 92.3474 198.126 94.6344 198.077 99.149C198.019 104.579 198.066 106.693 198.066 106.693C201.519 106.891 203.462 106.392 205.398 103.174Z" fill="#422851"/>
<path fill-rule="evenodd" clip-rule="evenodd" d="M207.097 107.489C207.097 107.489 205.549 107.126 205.495 104.589C205.441 102.052 205.479 101.186 205.479 101.186L202.069 101.125C202.069 101.125 202.032 103.952 202.031 104.974C202.03 107.461 200.201 107.665 200.201 107.665C200.201 107.665 200.514 109.716 203.604 109.89C206.016 110.026 207.097 107.489 207.097 107.489Z" fill="url(#paint3_linear_246_1867)"/>
<path fill-rule="evenodd" clip-rule="evenodd" d="M206.275 99.9194C207.796 99.8606 207.548 102.088 205.968 102.085C205.968 102.085 205.05 105.248 201.863 105.248C199.275 105.248 199.107 101.561 199.083 100.825C199.058 100.041 199.055 97.4644 199.055 97.4644L206.334 97.4611L206.275 99.9194Z" fill="url(#paint4_linear_246_1867)"/>
<path fill-rule="evenodd" clip-rule="evenodd" d="M206.394 99.9047C205.763 100.009 205.84 100.426 205.668 100.39C204.798 100.205 201.274 100.449 200.82 98.511C200.256 99.7216 200.118 100.019 198.875 100.344V96.7968L206.737 96.0426C206.737 96.0426 206.615 99.868 206.394 99.9047Z" fill="#422851"/>
<path d="M202.478 103.123C202.478 103.123 201.719 103.766 200.84 103.164" stroke="#F77B7B" stroke-width="1.5" stroke-linecap="round"/>
<path d="M201.977 103.867C201.741 103.976 201.513 103.984 201.31 103.875" stroke="#F49494" stroke-linecap="round"/>
<path d="M206.118 101.117C206.103 100.76 206.212 100.476 206.576 100.419" stroke="#F77B7B" stroke-linecap="round"/>
<path fill-rule="evenodd" clip-rule="evenodd" d="M206.752 107.229C204.809 108.419 202.563 108.856 200.472 107.563C197.06 114.292 196.21 122.319 197.03 131.192C202.006 133.162 206.188 132.775 209.748 130.523L206.752 107.229Z" fill="#FFE4F4"/>
<path fill-rule="evenodd" clip-rule="evenodd" d="M182.541 152.977C182.541 152.977 182.582 156.221 179.908 157.434C177.237 158.647 175.333 158.574 175.575 159.512C175.818 160.45 182.772 160.412 183.421 159.678C183.975 159.055 185.179 153.245 185.51 153.69L182.541 152.977Z" fill="url(#paint5_linear_246_1867)"/>
<path fill-rule="evenodd" clip-rule="evenodd" d="M184.484 157.559C184.074 157.264 183.73 158.964 182.617 158.491C181.504 158.019 182.382 156.456 181.681 156.168C180.981 155.88 179.629 157.429 177.832 157.806C176.036 158.182 174.578 158.512 174.163 159.211C173.806 159.812 174.163 160.004 174.163 160.004C174.163 160.004 175.893 160.867 176.967 161.057C178.528 161.334 183.039 161.517 183.533 161.014C183.837 160.705 184.689 157.707 184.484 157.559Z" fill="#EEDFE8"/>
<path fill-rule="evenodd" clip-rule="evenodd" d="M174.066 159.282C173.727 159.834 174.262 160.121 174.326 160.153L174.583 160.263C175.073 160.466 176.176 160.902 176.992 161.058C178.487 161.344 183.118 161.513 183.616 161.022C183.704 160.935 183.812 160.62 183.917 160.21L183.599 160.244C182.069 160.406 178.656 160.7 176.971 160.303C175.476 159.95 174.657 159.371 174.284 159.033C174.193 159.111 174.12 159.193 174.066 159.282Z" fill="#EC7AA5"/>
<path fill-rule="evenodd" clip-rule="evenodd" d="M210.297 127.568C210.297 127.568 213.749 134.857 208.899 137.36C204.208 139.78 190.167 136.917 190.167 136.917C190.167 136.917 190.417 138.938 190.167 140.739C189.511 145.445 186.395 153.285 185.735 154.27C184.823 155.632 182.046 154.605 181.993 153.47C181.941 152.336 184.087 137.849 184.414 135.087C184.738 132.324 185.763 131.923 188.758 131.167C189.446 130.994 197.58 128.972 198.325 129.031C204.728 129.538 210.297 127.568 210.297 127.568Z" fill="#524D87"/>
<path fill-rule="evenodd" clip-rule="evenodd" d="M206.514 136.607C201.87 137.128 189.576 136.055 189.083 136.543C188.611 137.008 188.69 145.103 187.632 149.788L187.793 149.346C188.788 146.584 189.82 143.224 190.166 140.739C190.417 138.937 190.166 136.917 190.166 136.917L190.733 137.027C193.402 137.528 204.771 139.49 208.899 137.36C211.135 136.206 212.048 134.288 211.636 131.608C210.928 134.638 209.221 136.304 206.514 136.607Z" fill="white" fill-opacity="0.056108"/>
<path fill-rule="evenodd" clip-rule="evenodd" d="M206.667 107.235C203.45 117.776 201.52 132.72 211.569 130.12C206.231 120.291 213.488 115.867 211.843 110.787C211.281 109.051 206.709 107.099 206.667 107.235Z" fill="#EA5455"/>
<path fill-rule="evenodd" clip-rule="evenodd" d="M210.297 111.612C206.66 112.161 209.658 118.511 208.458 119.467C207.257 120.424 205.168 120.527 204.942 121.112C204.49 122.286 206.679 125.251 211.509 130.007L211.57 130.12C206.92 121.558 211.827 117.098 212.082 112.732C211.543 111.887 210.948 111.514 210.297 111.612Z" fill="black" fill-opacity="0.159856"/>
<path fill-rule="evenodd" clip-rule="evenodd" d="M200.643 107.49C199.415 110.57 198.825 112.986 198.274 117.507C197.815 121.272 198.045 129.042 198.045 129.042L196.528 129.34C196.528 129.34 195.443 117.336 195.805 115.791C196.414 113.197 196.826 111.682 197.63 109.311C198.073 108.009 200.643 107.49 200.643 107.49Z" fill="#EA5455"/>
<path fill-rule="evenodd" clip-rule="evenodd" d="M205.992 119.201C205.992 119.201 204.011 117.218 203.325 116.987C202.639 116.757 198.88 116.481 198.905 117.001C198.934 117.558 201.353 117.526 201.577 117.8C201.8 118.074 202.111 120.208 202.957 120.419C203.8 120.629 205.549 121.252 205.549 121.252L213.335 125.275L212.505 121.252L205.992 119.201Z" fill="url(#paint6_linear_246_1867)"/>
<path fill-rule="evenodd" clip-rule="evenodd" d="M211.956 110.802C214.318 114.135 216.334 119.211 217.108 121.191C217.882 123.17 217.101 126.156 213.698 125.569C213.293 125.5 212.634 125.243 212.634 125.243C211.383 123.528 211.163 122.055 211.63 120.744L212.07 120.93C212.07 120.93 208.688 114.935 207.862 113.327C206.482 110.643 209.876 107.865 211.956 110.802Z" fill="#EA5455"/>
<path fill-rule="evenodd" clip-rule="evenodd" d="M212.069 120.93C212.069 120.93 213.787 121.769 213.571 121.4C213.355 121.031 211.414 119.765 211.414 119.765L212.069 120.93Z" fill="black" fill-opacity="0.159856"/>
<path fill-rule="evenodd" clip-rule="evenodd" d="M167.896 126.366H171.018V164.761H167.896V126.366Z" fill="#DBDBDB"/>
<path fill-rule="evenodd" clip-rule="evenodd" d="M167.376 126.366H169.457V164.761H167.376V126.366Z" fill="#EFEFEF"/>
<path fill-rule="evenodd" clip-rule="evenodd" d="M147.822 126.366H150.943V164.761H147.822V126.366Z" fill="#DBDBDB"/>
<path fill-rule="evenodd" clip-rule="evenodd" d="M147.301 126.366H149.382V164.761H147.301V126.366Z" fill="#EFEFEF"/>
<path fill-rule="evenodd" clip-rule="evenodd" d="M221.101 126.365H224.223V164.761H221.101V126.365Z" fill="#DBDBDB"/>
<path fill-rule="evenodd" clip-rule="evenodd" d="M220.58 126.365H222.661V164.761H220.58L220.58 126.365Z" fill="#EFEFEF"/>
<path fill-rule="evenodd" clip-rule="evenodd" d="M199.722 126.365L202.844 126.365V164.761H199.722V126.365Z" fill="#DBDBDB"/>
<path fill-rule="evenodd" clip-rule="evenodd" d="M199.205 126.365H201.286V164.761H199.205V126.365Z" fill="#EFEFEF"/>
<path fill-rule="evenodd" clip-rule="evenodd" d="M168.842 126.86C168.842 125.933 169.594 125.18 170.522 125.18H223.452C224.38 125.18 225.132 125.933 225.132 126.86V128.444C225.132 129.371 224.38 130.124 223.452 130.124H170.522C169.594 130.124 168.842 129.371 168.842 128.444V126.86Z" fill="#DBDBDB"/>
<path fill-rule="evenodd" clip-rule="evenodd" d="M145.09 126.86C145.09 125.933 145.842 125.18 146.77 125.18H199.463C200.391 125.18 201.143 125.933 201.143 126.86V128.444C201.143 129.371 200.391 130.124 199.463 130.124H146.77C145.842 130.124 145.09 129.371 145.09 128.444V126.86Z" fill="#DBDBDB"/>
<rect x="140.284" y="125.18" width="87.9357" height="2.53936" rx="1.26968" fill="#EFEFEF"/>
<path fill-rule="evenodd" clip-rule="evenodd" d="M160.143 116.977V115.887L161.517 115.887L161.517 115.309C161.517 114.99 161.774 114.732 162.09 114.732C162.406 114.732 162.663 114.99 162.663 115.309V116.515C162.663 116.77 162.457 116.977 162.204 116.977H160.143Z" fill="#02B596"/>
<path fill-rule="evenodd" clip-rule="evenodd" d="M156.331 117.604V116.564C156.331 116.245 156.587 115.986 156.903 115.986C157.22 115.986 157.476 116.245 157.476 116.564L157.476 117.142H158.163L158.163 114.484C158.163 113.782 158.728 113.213 159.423 113.213C160.119 113.213 160.684 113.782 160.684 114.484V121.072H158.163L158.163 118.298L157.018 118.298C156.638 118.298 156.331 117.987 156.331 117.604Z" fill="#02D3AF"/>
<path fill-rule="evenodd" clip-rule="evenodd" d="M156.443 119.267H162.262L161.845 124.865C161.834 125.019 161.708 125.137 161.555 125.137H157.15C156.997 125.137 156.871 125.019 156.86 124.865L156.443 119.267Z" fill="url(#paint7_linear_246_1867)"/>
<path fill-rule="evenodd" clip-rule="evenodd" d="M156.443 119.267H162.261C162.422 119.267 162.552 119.398 162.552 119.56V120.734C162.552 120.896 162.422 121.028 162.261 121.028H156.443C156.282 121.028 156.152 120.896 156.152 120.734V119.56C156.152 119.398 156.282 119.267 156.443 119.267Z" fill="#FFB3A4"/>
<path fill-rule="evenodd" clip-rule="evenodd" d="M175.318 124.928C175.318 124.711 175.493 124.536 175.71 124.536H203.094C203.31 124.536 203.486 124.711 203.486 124.928C203.486 125.144 203.31 125.32 203.094 125.32H175.71C175.493 125.32 175.318 125.144 175.318 124.928Z" fill="#8F84FF"/>
<path fill-rule="evenodd" clip-rule="evenodd" d="M193.876 124.928C193.876 124.711 194.051 124.536 194.268 124.536H203.096C203.313 124.536 203.488 124.711 203.488 124.928C203.488 125.144 203.313 125.32 203.096 125.32H194.268C194.051 125.32 193.876 125.144 193.876 124.928Z" fill="#7367F0"/>
<path fill-rule="evenodd" clip-rule="evenodd" d="M174.362 116.749C174.087 114.597 175.763 112.693 177.933 112.693H189.803C191.615 112.693 193.144 114.039 193.374 115.836L193.972 120.513C194.247 122.665 192.57 124.569 190.401 124.569H178.53C176.719 124.569 175.189 123.223 174.959 121.426L174.362 116.749Z" fill="#7367F0"/>
<path fill-rule="evenodd" clip-rule="evenodd" d="M174.362 116.749C174.087 114.597 175.763 112.693 177.933 112.693H189.196C191.008 112.693 192.537 114.039 192.767 115.836L193.365 120.513C193.64 122.665 191.963 124.569 189.794 124.569H178.53C176.719 124.569 175.189 123.223 174.959 121.426L174.362 116.749Z" fill="#B1A9FF"/>
<ellipse cx="1.20932" cy="1.32032" rx="1.20932" ry="1.32032" transform="matrix(0.798638 -0.601811 0.601819 0.798633 181.791 118.493)" fill="white"/>
<path fill-rule="evenodd" clip-rule="evenodd" d="M206.883 122.785C206.883 122.528 207.092 122.319 207.35 122.319H218.981C219.771 122.319 220.412 122.96 220.412 123.75C220.412 124.54 219.771 125.181 218.981 125.181H207.35C207.092 125.181 206.883 124.972 206.883 124.714V122.785Z" fill="#F16B79"/>
<path d="M206.883 123.163C206.883 123.013 207.005 122.891 207.156 122.891L213.917 122.891C214.391 122.891 214.775 123.276 214.775 123.75C214.775 124.224 214.391 124.608 213.917 124.608H207.156C207.005 124.608 206.883 124.486 206.883 124.336V123.163Z" fill="#EAEFFF"/>
<rect width="34.1323" height="51.6031" rx="7.68" transform="matrix(-1 0 0 1 268.023 113.213)" fill="#91D6FF"/>
<rect width="24.922" height="51.6031" rx="7.68" transform="matrix(-1 0 0 1 258.812 113.213)" fill="#BFE7FF"/>
<path fill-rule="evenodd" clip-rule="evenodd" d="M256.646 155.31C256.646 151.26 253.363 147.977 249.313 147.977H243.391C239.341 147.977 236.058 151.26 236.058 155.31C236.058 159.36 239.341 162.643 243.391 162.643H249.313C253.363 162.643 256.646 159.36 256.646 155.31Z" fill="#E3F4FF"/>
<path d="M249.601 147.977H243.1C243.1 149.477 244.316 150.693 245.816 150.693H246.885C248.385 150.693 249.601 149.477 249.601 147.977Z" fill="#91D6FF"/>
<path fill-rule="evenodd" clip-rule="evenodd" d="M256.646 120.215C256.646 119.11 255.75 118.215 254.646 118.215H241.976C238.708 118.215 236.058 120.865 236.058 124.133C236.058 127.402 238.708 130.052 241.976 130.052H254.646C255.75 130.052 256.646 129.156 256.646 128.052V120.215Z" fill="#91D6FF"/>
<path fill-rule="evenodd" clip-rule="evenodd" d="M252.131 122.719C252.131 118.669 248.848 115.386 244.798 115.386H238.876C234.826 115.386 231.543 118.669 231.543 122.719C231.543 126.769 234.826 130.052 238.876 130.052H244.798C248.848 130.052 252.131 126.769 252.131 122.719Z" fill="#E3F4FF"/>
<path fill-rule="evenodd" clip-rule="evenodd" d="M256.646 139.014C256.646 134.965 253.363 131.681 249.313 131.681H243.391C239.341 131.681 236.058 134.965 236.058 139.014C236.058 143.064 239.341 146.347 243.391 146.347H249.313C253.363 146.347 256.646 143.064 256.646 139.014Z" fill="#E3F4FF"/>
<path d="M249.601 131.681H243.1C243.1 133.181 244.316 134.397 245.816 134.397H246.886C248.385 134.397 249.601 133.181 249.601 131.681Z" fill="#91D6FF"/>
<path d="M245.088 115.386H238.587C238.587 116.886 239.803 118.102 241.303 118.102H242.372C243.872 118.102 245.088 116.886 245.088 115.386Z" fill="#91D6FF"/>
<path fill-rule="evenodd" clip-rule="evenodd" d="M252.249 107.666H254.081L256.058 113.045H254.226L252.249 107.666Z" fill="#7367F0"/>
<path fill-rule="evenodd" clip-rule="evenodd" d="M247.221 102.92C247.3 102.55 247.626 102.286 248.004 102.286H255.068C255.577 102.286 255.956 102.755 255.85 103.253L253.901 112.411C253.823 112.781 253.497 113.045 253.119 113.045H246.055C245.546 113.045 245.166 112.576 245.272 112.078L247.221 102.92Z" fill="#A7C3FF"/>
<path fill-rule="evenodd" clip-rule="evenodd" d="M246.764 102.92C246.843 102.55 247.169 102.286 247.546 102.286H254.611C255.119 102.286 255.499 102.755 255.393 103.253L253.444 112.411C253.365 112.781 253.039 113.045 252.662 113.045H245.597C245.089 113.045 244.709 112.576 244.815 112.078L246.764 102.92Z" fill="url(#paint8_linear_246_1867)"/>
<path d="M247.224 103.305C247.295 102.972 247.589 102.734 247.929 102.734H254.021C254.479 102.734 254.821 103.156 254.725 103.604L252.981 111.802C252.91 112.135 252.616 112.373 252.277 112.373H246.184C245.726 112.373 245.385 111.951 245.48 111.503L247.224 103.305Z" fill="#B3FFEB"/>
<mask id="mask1_246_1867" style="mask-type:luminance" maskUnits="userSpaceOnUse" x="245" y="102" width="10" height="11">
<path d="M247.224 103.305C247.295 102.972 247.589 102.734 247.929 102.734H254.021C254.479 102.734 254.821 103.156 254.725 103.604L252.981 111.802C252.91 112.135 252.616 112.373 252.277 112.373H246.184C245.726 112.373 245.385 111.951 245.48 111.503L247.224 103.305Z" fill="white"/>
</mask>
<g mask="url(#mask1_246_1867)">
<ellipse cx="249.616" cy="105.508" rx="1.00162" ry="0.980621" fill="white"/>
<ellipse cx="246.682" cy="112.863" rx="4.65043" ry="4.5529" fill="#6DE9C9"/>
<ellipse cx="253.98" cy="111.532" rx="5.50898" ry="5.32336" fill="#83F2D5"/>
</g>
<path fill-rule="evenodd" clip-rule="evenodd" d="M122.492 91.1754C119.442 90.4695 119.241 86.309 121.56 84.8658C119.169 79.8839 124.699 74.9376 128.487 77.9881C130.971 76.9317 133.034 81.054 130.724 84.2556C131.692 89.7529 129.721 91.1739 126.166 91.2343L122.492 91.1754Z" fill="#422851"/>
<path fill-rule="evenodd" clip-rule="evenodd" d="M122.531 90.1817C122.531 90.1817 124.015 89.8356 124.066 87.4196C124.118 85.0035 124.082 84.1788 124.082 84.1788L127.35 84.1202C127.35 84.1202 127.386 86.8128 127.386 87.7868C127.387 90.4026 129.221 90.1817 129.221 90.1817C129.221 90.1817 128.84 92.3027 125.879 92.4682C123.567 92.5976 122.531 90.1817 122.531 90.1817Z" fill="url(#paint9_linear_246_1867)"/>
<path fill-rule="evenodd" clip-rule="evenodd" d="M123.319 82.9723C121.861 82.9162 122.099 85.0373 123.613 85.0344C123.613 85.0344 124.493 88.0474 127.547 88.0474C130.027 88.0474 130.188 84.5357 130.211 83.8351C130.235 83.0882 130.238 80.6342 130.238 80.6342L123.262 80.631L123.319 82.9723Z" fill="url(#paint10_linear_246_1867)"/>
<path d="M126.957 86.0234C126.957 86.0234 127.684 86.6355 128.527 86.0624" stroke="#F77B7B" stroke-width="1.5" stroke-linecap="round"/>
<path d="M127.438 86.7322C127.664 86.8359 127.882 86.8435 128.077 86.74" stroke="#F49494" stroke-linecap="round"/>
<path d="M123.469 84.1131C123.484 83.7729 123.38 83.5027 123.031 83.4484" stroke="#F77B7B" stroke-linecap="round"/>
<path fill-rule="evenodd" clip-rule="evenodd" d="M123.088 82.7104C123.088 82.7104 123.887 83.776 124.049 83.7817C124.211 83.7873 124.268 82.3958 124.268 82.3958C125.248 82.3214 127.729 81.8304 128.337 80.6867C128.762 81.6959 129.575 82.1441 130.109 82.058L130.21 84.202L130.46 79.8917H122.893L123.088 82.7104Z" fill="#422851"/>
<path fill-rule="evenodd" clip-rule="evenodd" d="M142.121 91.4448C142.121 91.4448 141.685 89.0146 141.842 88.5225C141.976 88.0972 143.24 87.4839 143.24 87.4839C143.24 87.4839 145.438 84.0059 145.919 84.36C146.311 84.6472 144.774 87.2113 144.774 87.2113C144.774 87.2113 146.175 88.6832 146.156 89.3411C146.136 89.9991 143.869 92.0589 143.869 92.0589L142.121 91.4448Z" fill="url(#paint11_linear_246_1867)"/>
<path fill-rule="evenodd" clip-rule="evenodd" d="M143.287 87.449C143.287 87.449 144.261 87.3164 144.416 87.6199C144.548 87.8784 143.739 88.6117 143.739 88.8179C143.739 89.024 143.751 90.5843 143.816 90.5985C143.881 90.6126 144.791 88.0523 144.597 87.5107C144.437 87.0662 143.287 87.449 143.287 87.449Z" fill="#F28585"/>
<path fill-rule="evenodd" clip-rule="evenodd" d="M130.54 91.1573C129.079 90.5497 127.309 92.2938 128.387 93.9586C130.11 96.6205 136.467 103.61 139.398 103.62C142.03 103.629 144.449 93.1592 144.393 92.3248C144.338 91.4902 142.201 90.446 141.425 91.0355C140.647 91.6249 138.186 98.5316 138.186 98.5316C138.186 98.5316 132.024 91.775 130.54 91.1573Z" fill="#7367F0"/>
<path fill-rule="evenodd" clip-rule="evenodd" d="M138.186 98.5316C138.186 98.5316 139.018 99.9633 139.094 99.7492C139.171 99.5352 138.488 97.6898 138.488 97.6898L138.186 98.5316Z" fill="black" fill-opacity="0.302803"/>
<path fill-rule="evenodd" clip-rule="evenodd" d="M128.666 157.886C128.666 157.886 128.374 160.281 129.461 161.195C130.548 162.11 126.356 161.78 126.356 161.78L126.325 157.848L128.666 157.886Z" fill="url(#paint12_linear_246_1867)"/>
<path fill-rule="evenodd" clip-rule="evenodd" d="M126.314 160.008C126.688 160.028 126.628 161.151 127.129 161.104C127.629 161.057 128.476 159.938 129.202 160.314C129.955 160.706 134.085 163.321 134.328 163.994C134.6 164.743 132.839 164.799 131.58 164.744C130.319 164.689 129.738 164.122 129.126 164.136C128.513 164.15 128.368 164.533 127.909 164.638C127.444 164.745 126.28 164.729 126.173 164.394C126.06 164.046 125.942 159.988 126.314 160.008Z" fill="#222D4E"/>
<path fill-rule="evenodd" clip-rule="evenodd" d="M122.071 109.05C122.071 109.05 124.576 133.173 124.78 135.377C124.985 137.581 124.576 139.177 124.408 141.453C124.241 143.73 125.048 158.048 125.048 158.048C126.234 158.764 127.646 158.905 129.441 158.069C129.441 158.069 131.089 140.233 131.073 136.17C131.063 133.747 131.315 109.323 131.315 109.323L122.071 109.05Z" fill="#2B256A"/>
<path fill-rule="evenodd" clip-rule="evenodd" d="M126.073 135.575C126.279 137.101 125.726 139.991 124.414 144.246L124.398 143.547C124.379 142.621 124.378 141.9 124.404 141.5L124.407 141.453C124.569 139.253 124.957 137.688 124.798 135.595L124.763 135.208C124.677 134.316 124.41 131.7 124.076 128.446L124.259 128.978C125.275 131.945 125.88 134.144 126.073 135.575Z" fill="white" fill-opacity="0.0771689"/>
<path fill-rule="evenodd" clip-rule="evenodd" d="M129.639 160.581C129.466 160.845 129.549 161.2 129.821 161.361L131.725 162.485C132.001 162.648 132.341 162.659 132.627 162.515C131.659 161.811 130.689 161.181 129.639 160.581Z" fill="white" fill-opacity="0.540975"/>
<path fill-rule="evenodd" clip-rule="evenodd" d="M118.026 158.275L118.237 161.925L115.54 161.996L116.047 158.275H118.026Z" fill="url(#paint13_linear_246_1867)"/>
<path fill-rule="evenodd" clip-rule="evenodd" d="M115.515 160.659C117.427 162.1 118.16 160.296 118.323 160.475C118.633 160.815 119.22 164.203 118.901 164.678C118.619 165.098 114.786 165.105 114.574 164.709C114.296 164.185 115.303 160.498 115.515 160.659Z" fill="#222D4E"/>
<path fill-rule="evenodd" clip-rule="evenodd" d="M116.324 162.08C116.37 161.8 116.611 161.595 116.895 161.595C117.178 161.595 117.419 161.8 117.465 162.08L117.512 162.368C117.574 162.749 117.28 163.095 116.895 163.095C116.509 163.095 116.215 162.749 116.277 162.368L116.324 162.08Z" fill="white" fill-opacity="0.540975"/>
<path fill-rule="evenodd" clip-rule="evenodd" d="M120.533 108.27C120.533 108.27 117.846 110.691 117.141 114.169C115.966 119.966 116.557 130.674 116.522 133.022C116.489 135.37 115.645 136.787 115.192 140.107C114.739 143.427 115.187 158.264 115.187 158.264C116.388 158.988 117.69 159.04 119.122 158.22L127.53 109.044L120.533 108.27Z" fill="#38308B"/>
<path fill-rule="evenodd" clip-rule="evenodd" d="M118.743 110.43L119.793 110.575C118.871 112.338 118.405 116.36 118.395 122.64L118.395 122.839C118.395 132.334 116.681 135.679 115.991 139.766L115.971 139.891C115.558 142.425 115.248 146.487 115.043 152.076L115.022 150.691C114.964 146.468 114.963 141.785 115.192 140.107C115.645 136.787 116.489 135.37 116.522 133.022L116.524 132.788C116.523 130.036 116.001 119.792 117.141 114.169C117.439 112.7 118.09 111.419 118.743 110.43Z" fill="white" fill-opacity="0.0771689"/>
<path fill-rule="evenodd" clip-rule="evenodd" d="M117.649 92.0626C117.649 92.0626 120.222 100.683 120.298 102.315C120.374 103.946 118.194 108.743 118.565 109.955C119.421 112.756 130.348 113.962 131.52 110.194C132.021 108.585 131.058 106.859 131.525 104.788C131.99 102.717 133.357 99.64 132.296 96.7468C131.236 93.8536 131.52 91.1769 130.761 90.671C130.003 90.165 128.229 89.6278 128.229 89.6278C127.367 90.8977 124.456 90.8792 123.067 89.5382C123.067 89.5382 119.616 90.2082 117.649 92.0626Z" fill="#7367F0"/>
<path fill-rule="evenodd" clip-rule="evenodd" d="M119.955 93.4589C121.669 96.1822 121.664 100.924 122.585 101.545C123.506 102.166 127.091 101.556 127.091 102.048C127.091 102.54 122.137 107.047 122.95 109.201C123.376 110.329 123.261 111.338 122.604 112.229L122.389 112.182C120.438 111.741 118.869 110.948 118.565 109.955C118.194 108.743 120.374 103.947 120.298 102.315C120.234 100.934 118.382 94.5501 117.814 92.6182C118.316 91.7095 119.03 91.9897 119.955 93.4589Z" fill="black" fill-opacity="0.0564904"/>
<path fill-rule="evenodd" clip-rule="evenodd" d="M125.381 107.5C125.381 107.5 127.055 106.758 127.597 106.76C128.139 106.762 128.553 106.779 128.553 106.779L128.555 107.53C128.555 107.53 131.305 107.78 131.595 107.77C131.887 107.76 130.534 109.795 129.623 110.163C128.617 110.57 125.198 109.363 125.198 109.363L125.381 107.5Z" fill="url(#paint14_linear_246_1867)"/>
<path fill-rule="evenodd" clip-rule="evenodd" d="M117.797 91.8174C115.688 93.3559 110.304 106.557 112.861 108.409C115.041 109.988 124.303 110.194 124.988 109.69C125.559 109.269 125.88 107.99 125.343 107.29C124.63 106.358 116.594 105.012 116.594 105.012C116.594 105.012 119.483 98.0996 120.086 96.888C122.155 92.7291 120.785 89.6384 117.797 91.8174Z" fill="#7367F0"/>
<path fill-rule="evenodd" clip-rule="evenodd" d="M116.605 105.003C116.605 105.003 115.685 106.444 115.874 106.48C116.064 106.516 117.298 105.135 117.298 105.135L116.605 105.003Z" fill="black" fill-opacity="0.302803"/>
<defs>
<filter id="filter0_f_246_1867" x="143.147" y="11.0112" width="41.5937" height="41.5807" filterUnits="userSpaceOnUse" color-interpolation-filters="sRGB">
<feFlood flood-opacity="0" result="BackgroundImageFix"/>
<feBlend mode="normal" in="SourceGraphic" in2="BackgroundImageFix" result="shape"/>
<feGaussianBlur stdDeviation="4.07742" result="effect1_foregroundBlur_246_1867"/>
</filter>
<filter id="filter1_dd_246_1867" x="101.727" y="78.5221" width="90.8119" height="65.1646" filterUnits="userSpaceOnUse" color-interpolation-filters="sRGB">
<feFlood flood-opacity="0" result="BackgroundImageFix"/>
<feColorMatrix in="SourceAlpha" type="matrix" values="0 0 0 0 0 0 0 0 0 0 0 0 0 0 0 0 0 0 127 0" result="hardAlpha"/>
<feOffset dx="7" dy="8"/>
<feGaussianBlur stdDeviation="12.5"/>
<feColorMatrix type="matrix" values="0 0 0 0 0.0755213 0 0 0 0 0.582569 0 0 0 0 0.878793 0 0 0 0.229458 0"/>
<feBlend mode="normal" in2="BackgroundImageFix" result="effect1_dropShadow_246_1867"/>
<feColorMatrix in="SourceAlpha" type="matrix" values="0 0 0 0 0 0 0 0 0 0 0 0 0 0 0 0 0 0 127 0" result="hardAlpha"/>
<feOffset dy="2"/>
<feGaussianBlur stdDeviation="7"/>
<feColorMatrix type="matrix" values="0 0 0 0 0.503982 0 0 0 0 0.700178 0 0 0 0 1 0 0 0 0.233829 0"/>
<feBlend mode="normal" in2="effect1_dropShadow_246_1867" result="effect2_dropShadow_246_1867"/>
<feBlend mode="normal" in="SourceGraphic" in2="effect2_dropShadow_246_1867" result="shape"/>
</filter>
<filter id="filter2_dd_246_1867" x="99.7266" y="37.2369" width="96.7097" height="90.3977" filterUnits="userSpaceOnUse" color-interpolation-filters="sRGB">
<feFlood flood-opacity="0" result="BackgroundImageFix"/>
<feColorMatrix in="SourceAlpha" type="matrix" values="0 0 0 0 0 0 0 0 0 0 0 0 0 0 0 0 0 0 127 0" result="hardAlpha"/>
<feOffset dx="8" dy="9"/>
<feGaussianBlur stdDeviation="14"/>
<feColorMatrix type="matrix" values="0 0 0 0 0.0755213 0 0 0 0 0.582569 0 0 0 0 0.878793 0 0 0 0.229458 0"/>
<feBlend mode="normal" in2="BackgroundImageFix" result="effect1_dropShadow_246_1867"/>
<feColorMatrix in="SourceAlpha" type="matrix" values="0 0 0 0 0 0 0 0 0 0 0 0 0 0 0 0 0 0 127 0" result="hardAlpha"/>
<feOffset dy="2"/>
<feGaussianBlur stdDeviation="7.5"/>
<feColorMatrix type="matrix" values="0 0 0 0 0.503982 0 0 0 0 0.700178 0 0 0 0 1 0 0 0 0.233829 0"/>
<feBlend mode="normal" in2="effect1_dropShadow_246_1867" result="effect2_dropShadow_246_1867"/>
<feBlend mode="normal" in="SourceGraphic" in2="effect2_dropShadow_246_1867" result="shape"/>
</filter>
<filter id="filter3_d_246_1867" x="116.852" y="65.0349" width="47.2747" height="31.8424" filterUnits="userSpaceOnUse" color-interpolation-filters="sRGB">
<feFlood flood-opacity="0" result="BackgroundImageFix"/>
<feColorMatrix in="SourceAlpha" type="matrix" values="0 0 0 0 0 0 0 0 0 0 0 0 0 0 0 0 0 0 127 0" result="hardAlpha"/>
<feOffset dy="6"/>
<feGaussianBlur stdDeviation="3.5"/>
<feColorMatrix type="matrix" values="0 0 0 0 0 0 0 0 0 0 0 0 0 0 0 0 0 0 0.144395 0"/>
<feBlend mode="normal" in2="BackgroundImageFix" result="effect1_dropShadow_246_1867"/>
<feBlend mode="normal" in="SourceGraphic" in2="effect1_dropShadow_246_1867" result="shape"/>
</filter>
<linearGradient id="paint0_linear_246_1867" x1="111.921" y1="54.7808" x2="111.921" y2="164.713" gradientUnits="userSpaceOnUse">
<stop stop-color="#A2FFEA"/>
<stop offset="1" stop-color="#8CA5FF"/>
</linearGradient>
<linearGradient id="paint1_linear_246_1867" x1="196.41" y1="150.9" x2="195.995" y2="158.666" gradientUnits="userSpaceOnUse">
<stop stop-color="#FDC6C6"/>
<stop offset="1" stop-color="#FAB2B2"/>
</linearGradient>
<linearGradient id="paint2_linear_246_1867" x1="195.203" y1="106.066" x2="194.099" y2="121.819" gradientUnits="userSpaceOnUse">
<stop stop-color="#FDC6C6"/>
<stop offset="1" stop-color="#FAB2B2"/>
</linearGradient>
<linearGradient id="paint3_linear_246_1867" x1="209.342" y1="99.8223" x2="206.422" y2="112.71" gradientUnits="userSpaceOnUse">
<stop stop-color="#FFAFAF"/>
<stop offset="1" stop-color="#F07777"/>
</linearGradient>
<linearGradient id="paint4_linear_246_1867" x1="209.146" y1="97.3727" x2="207.413" y2="105.853" gradientUnits="userSpaceOnUse">
<stop stop-color="#FDC6C6"/>
<stop offset="1" stop-color="#FAB2B2"/>
</linearGradient>
<linearGradient id="paint5_linear_246_1867" x1="187.233" y1="151.213" x2="186.826" y2="159.87" gradientUnits="userSpaceOnUse">
<stop stop-color="#FDC6C6"/>
<stop offset="1" stop-color="#FAB2B2"/>
</linearGradient>
<linearGradient id="paint6_linear_246_1867" x1="215.831" y1="114.618" x2="215.439" y2="124.864" gradientUnits="userSpaceOnUse">
<stop stop-color="#FDC6C6"/>
<stop offset="1" stop-color="#FAB2B2"/>
</linearGradient>
<linearGradient id="paint7_linear_246_1867" x1="162.718" y1="120.074" x2="157.248" y2="120.074" gradientUnits="userSpaceOnUse">
<stop stop-color="#F16B79"/>
<stop offset="1" stop-color="#F69D88"/>
</linearGradient>
<linearGradient id="paint8_linear_246_1867" x1="245.411" y1="99.8381" x2="245.411" y2="113.045" gradientUnits="userSpaceOnUse">
<stop stop-color="#9FF6EC"/>
<stop offset="1" stop-color="#7D9DFF"/>
</linearGradient>
<linearGradient id="paint9_linear_246_1867" x1="120.353" y1="82.8799" x2="123.088" y2="95.1757" gradientUnits="userSpaceOnUse">
<stop stop-color="#FFAFAF"/>
<stop offset="1" stop-color="#F07777"/>
</linearGradient>
<linearGradient id="paint10_linear_246_1867" x1="120.568" y1="80.5469" x2="122.208" y2="88.6275" gradientUnits="userSpaceOnUse">
<stop stop-color="#FDC6C6"/>
<stop offset="1" stop-color="#FAB2B2"/>
</linearGradient>
<linearGradient id="paint11_linear_246_1867" x1="140.831" y1="84.2471" x2="143.763" y2="91.8837" gradientUnits="userSpaceOnUse">
<stop stop-color="#FDC6C6"/>
<stop offset="1" stop-color="#FAB2B2"/>
</linearGradient>
<linearGradient id="paint12_linear_246_1867" x1="125.751" y1="156.876" x2="126.12" y2="161.625" gradientUnits="userSpaceOnUse">
<stop stop-color="#FDC6C6"/>
<stop offset="1" stop-color="#FAB2B2"/>
</linearGradient>
<linearGradient id="paint13_linear_246_1867" x1="115.073" y1="157.369" x2="115.466" y2="161.79" gradientUnits="userSpaceOnUse">
<stop stop-color="#FDC6C6"/>
<stop offset="1" stop-color="#FAB2B2"/>
</linearGradient>
<linearGradient id="paint14_linear_246_1867" x1="123.75" y1="106.72" x2="124.207" y2="110.623" gradientUnits="userSpaceOnUse">
<stop stop-color="#FDC6C6"/>
<stop offset="1" stop-color="#FAB2B2"/>
</linearGradient>
</defs>
</svg>
