<svg width="31" height="30" viewBox="0 0 31 30" fill="none" xmlns="http://www.w3.org/2000/svg">
<rect x="0.65625" width="30" height="30" rx="6" fill="#211F1F"/>
<path d="M18.6194 18.1025C18.7385 18.4515 18.798 18.8587 18.798 19.2077V21.4183C18.798 21.7673 18.5598 22 18.2026 22C17.8453 22 17.6071 21.7673 17.6071 21.4183V19.1496C17.6667 18.6842 17.488 18.3351 17.1903 18.0443C17.0117 17.8698 16.9522 17.6371 17.0712 17.4626C17.1308 17.2299 17.369 17.1135 17.5476 17.0554C19.2744 16.8808 20.8821 16.2991 20.8821 13.565C20.8821 12.9251 20.6439 12.2852 20.1675 11.7617C19.9889 11.5871 19.9889 11.3545 20.0485 11.1799C20.2271 10.7146 20.2271 10.2492 20.108 9.7838C19.8103 9.84197 19.3339 10.0165 18.5598 10.54C18.4408 10.6564 18.2621 10.6564 18.0835 10.5982C16.8331 10.2492 15.4635 10.2492 14.2131 10.5982C14.0345 10.6564 13.8558 10.6564 13.6772 10.54C12.9627 10.0165 12.4268 9.84197 12.1291 9.7838C12.01 10.2492 12.01 10.7146 12.1886 11.1799C12.2482 11.4126 12.2482 11.6453 12.0695 11.7617C11.5932 12.2852 11.355 12.9251 11.355 13.565C11.355 16.2991 12.9627 16.8808 14.6895 17.0554C14.9276 17.0554 15.1063 17.2299 15.1658 17.4626C15.2254 17.6953 15.1658 17.9279 15.0467 18.0443C14.749 18.3351 14.6299 18.6842 14.6299 19.0914V19.6149V19.6731V21.3601C14.6299 21.7091 14.3917 21.9418 14.0345 21.9418C13.6772 21.9418 13.439 21.7091 13.439 21.3601V20.3712C11.6527 20.662 10.8786 19.6731 10.3427 19.0332C10.1046 18.7424 9.92593 18.5097 9.68775 18.4515C9.39003 18.3933 9.15185 18.0443 9.27094 17.7534C9.33049 17.4626 9.68775 17.2299 9.98547 17.3462C10.5809 17.5207 10.9382 17.9279 11.2954 18.3351C11.7718 18.975 12.1886 19.4404 13.439 19.2077V19.1496C13.439 18.8005 13.4986 18.3933 13.6177 18.1025C11.9504 17.7534 10.1641 16.7063 10.1641 13.6232C10.1641 12.7506 10.4618 11.9362 10.9977 11.2963C10.7595 10.4819 10.8191 9.72563 11.1764 8.96939C11.2359 8.79487 11.355 8.67852 11.5336 8.62035C11.7718 8.56218 12.5459 8.44583 14.1536 9.43477C15.4635 9.1439 16.8331 9.1439 18.0835 9.43477C19.6316 8.44583 20.4653 8.56218 20.7034 8.62035C20.8821 8.67852 21.0012 8.79487 21.0607 8.96939C21.3584 9.72563 21.418 10.4819 21.2393 11.2381C21.7752 11.878 22.073 12.6924 22.073 13.565C22.073 16.8808 20.0485 17.8116 18.6194 18.1025Z" fill="black"/>
<mask id="mask0_246_3031" style="mask-type:luminance" maskUnits="userSpaceOnUse" x="9" y="8" width="14" height="14">
<path d="M18.6194 18.1025C18.7385 18.4515 18.798 18.8587 18.798 19.2077V21.4183C18.798 21.7673 18.5598 22 18.2026 22C17.8453 22 17.6071 21.7673 17.6071 21.4183V19.1496C17.6667 18.6842 17.488 18.3351 17.1903 18.0443C17.0117 17.8698 16.9522 17.6371 17.0712 17.4626C17.1308 17.2299 17.369 17.1135 17.5476 17.0554C19.2744 16.8808 20.8821 16.2991 20.8821 13.565C20.8821 12.9251 20.6439 12.2852 20.1675 11.7617C19.9889 11.5871 19.9889 11.3545 20.0485 11.1799C20.2271 10.7146 20.2271 10.2492 20.108 9.7838C19.8103 9.84197 19.3339 10.0165 18.5598 10.54C18.4408 10.6564 18.2621 10.6564 18.0835 10.5982C16.8331 10.2492 15.4635 10.2492 14.2131 10.5982C14.0345 10.6564 13.8558 10.6564 13.6772 10.54C12.9627 10.0165 12.4268 9.84197 12.1291 9.7838C12.01 10.2492 12.01 10.7146 12.1886 11.1799C12.2482 11.4126 12.2482 11.6453 12.0695 11.7617C11.5932 12.2852 11.355 12.9251 11.355 13.565C11.355 16.2991 12.9627 16.8808 14.6895 17.0554C14.9276 17.0554 15.1063 17.2299 15.1658 17.4626C15.2254 17.6953 15.1658 17.9279 15.0467 18.0443C14.749 18.3351 14.6299 18.6842 14.6299 19.0914V19.6149V19.6731V21.3601C14.6299 21.7091 14.3917 21.9418 14.0345 21.9418C13.6772 21.9418 13.439 21.7091 13.439 21.3601V20.3712C11.6527 20.662 10.8786 19.6731 10.3427 19.0332C10.1046 18.7424 9.92593 18.5097 9.68775 18.4515C9.39003 18.3933 9.15185 18.0443 9.27094 17.7534C9.33049 17.4626 9.68775 17.2299 9.98547 17.3462C10.5809 17.5207 10.9382 17.9279 11.2954 18.3351C11.7718 18.975 12.1886 19.4404 13.439 19.2077V19.1496C13.439 18.8005 13.4986 18.3933 13.6177 18.1025C11.9504 17.7534 10.1641 16.7063 10.1641 13.6232C10.1641 12.7506 10.4618 11.9362 10.9977 11.2963C10.7595 10.4819 10.8191 9.72563 11.1764 8.96939C11.2359 8.79487 11.355 8.67852 11.5336 8.62035C11.7718 8.56218 12.5459 8.44583 14.1536 9.43477C15.4635 9.1439 16.8331 9.1439 18.0835 9.43477C19.6316 8.44583 20.4653 8.56218 20.7034 8.62035C20.8821 8.67852 21.0012 8.79487 21.0607 8.96939C21.3584 9.72563 21.418 10.4819 21.2393 11.2381C21.7752 11.878 22.073 12.6924 22.073 13.565C22.073 16.8808 20.0485 17.8116 18.6194 18.1025Z" fill="white"/>
</mask>
<g mask="url(#mask0_246_3031)">
<rect x="8.65625" y="8" width="14" height="14" fill="white"/>
</g>
</svg>
