<svg width="375" height="180" viewBox="0 0 375 180" fill="none" xmlns="http://www.w3.org/2000/svg">
<rect width="375" height="180" fill="#F8F8F8"/>
<path opacity="0.0845424" d="M270.672 60.2925C273.258 56.8405 278.154 56.1372 281.608 58.7215C285.028 61.28 285.752 66.1016 283.257 69.5472L283.18 69.6512L262.692 97.0023C260.082 100.486 255.236 101.369 251.568 99.0508L251.457 98.9796L238.559 90.5425L225.555 109.472C223.137 112.991 218.346 113.912 214.799 111.561L214.692 111.489C211.171 109.073 210.25 104.285 212.601 100.74L212.674 100.633L229.715 75.8277C232.254 72.1324 237.256 71.114 241.034 73.4999L241.148 73.5733L254.286 82.167L270.672 60.2925Z" fill="#7367F0"/>
<path opacity="0.0845424" d="M203.608 15.9084C204.264 14.9558 205.57 14.7136 206.525 15.3673C207.468 16.0124 207.717 17.289 207.093 18.238L207.068 18.2757L201.962 25.6935C201.213 26.7389 199.765 26.9907 198.707 26.2675L198.669 26.2413L195.737 24.1536L192.558 29.1887C191.949 30.1537 190.68 30.4525 189.704 29.8683L189.665 29.8448C188.697 29.2374 188.398 27.9713 188.984 26.9984L189.007 26.9601L193.222 20.2829C193.917 19.1829 195.374 18.8525 196.477 19.5448L196.535 19.5822L196.591 19.6212L199.585 21.7528L203.608 15.9084Z" fill="#7367F0"/>
<path opacity="0.070266" fill-rule="evenodd" clip-rule="evenodd" d="M258.176 50.6574C259.227 50.6574 260.078 49.8058 260.078 48.7553V45.0107H263.845C264.885 45.0107 265.728 44.1678 265.728 43.128C265.728 42.0882 264.885 41.2453 263.845 41.2453H260.078V37.4642C260.078 36.4137 259.227 35.5621 258.176 35.5621C257.126 35.5621 256.274 36.4137 256.274 37.4642V41.2453H252.507C251.467 41.2453 250.624 42.0882 250.624 43.128C250.624 44.1678 251.467 45.0107 252.507 45.0107H256.274V48.7553C256.274 49.8058 257.126 50.6574 258.176 50.6574Z" fill="#00CFE8"/>
<path opacity="0.0739397" fill-rule="evenodd" clip-rule="evenodd" d="M110.26 20.5151C124.211 20.5151 135.521 31.8179 135.521 45.7607C135.521 59.7034 124.211 71.0063 110.26 71.0063C96.3094 71.0063 85 59.7034 85 45.7607C85 31.8179 96.3094 20.5151 110.26 20.5151ZM110.26 33.0078C103.213 33.0078 97.5 38.7174 97.5 45.7607C97.5 52.8039 103.213 58.5136 110.26 58.5136C117.308 58.5136 123.021 52.8039 123.021 45.7607C123.021 38.7174 117.308 33.0078 110.26 33.0078Z" fill="#00CFE8"/>
<path fill-rule="evenodd" clip-rule="evenodd" d="M101.708 54.4392C101.708 45.6026 108.872 38.4392 117.708 38.4392H224.173C233.01 38.4392 240.173 45.6027 240.173 54.4392V87.5794C240.173 96.416 233.01 103.579 224.173 103.579H117.708C108.872 103.579 101.708 96.416 101.708 87.5794V54.4392Z" fill="#E7FCFF"/>
<path opacity="0.383371" fill-rule="evenodd" clip-rule="evenodd" d="M103.791 54.4392C103.791 45.6026 110.954 38.4392 119.791 38.4392H224.173C233.01 38.4392 240.173 45.6027 240.173 54.4392V87.5794C240.173 96.416 233.01 103.579 224.173 103.579H119.791C110.954 103.579 103.791 96.416 103.791 87.5794V54.4392Z" fill="#00CFE8"/>
<path fill-rule="evenodd" clip-rule="evenodd" d="M105.873 50.5237C105.873 45.0008 110.35 40.5237 115.873 40.5237H228.091C233.614 40.5237 238.091 45.0008 238.091 50.5237V91.4949C238.091 97.0178 233.614 101.495 228.091 101.495H115.873C110.35 101.495 105.873 97.0178 105.873 91.4949L105.873 50.5237Z" fill="#E7FCFF"/>
<path fill-rule="evenodd" clip-rule="evenodd" d="M160.79 101.495C160.79 98.473 163.24 96.0232 166.262 96.0232H177.702C180.724 96.0232 183.174 98.473 183.174 101.495H160.79Z" fill="#D4EFFF"/>
<path d="M162.872 102.023C162.872 98.7095 165.559 96.0232 168.872 96.0232H179.256C182.569 96.0232 185.256 98.7095 185.256 102.023V103.579H162.872V102.023Z" fill="#91D6FF"/>
<g filter="url(#filter0_dd_246_3781)">
<path fill-rule="evenodd" clip-rule="evenodd" d="M109.777 48.5181C109.777 45.5419 112.19 43.1293 115.166 43.1293H141.836C144.813 43.1293 147.225 45.5419 147.225 48.5181V51.922C147.225 54.8981 144.813 57.3107 141.836 57.3107H115.166C112.19 57.3107 109.777 54.8981 109.777 51.922V48.5181Z" fill="white"/>
</g>
<path opacity="0.454078" fill-rule="evenodd" clip-rule="evenodd" d="M120.858 51.5539C120.858 51.3213 121.046 51.1327 121.279 51.1327H128.291C128.523 51.1327 128.712 51.3213 128.712 51.5539C128.712 51.7866 128.523 51.9752 128.291 51.9752H121.279C121.046 51.9752 120.858 51.7866 120.858 51.5539Z" fill="#C7C1FF"/>
<path fill-rule="evenodd" clip-rule="evenodd" d="M120.858 49.1669C120.858 48.9343 121.046 48.7457 121.279 48.7457H125.485C125.718 48.7457 125.907 48.9343 125.907 49.1669C125.907 49.3996 125.718 49.5882 125.485 49.5882H121.279C121.046 49.5882 120.858 49.3996 120.858 49.1669Z" fill="#8478FF"/>
<path fill-rule="evenodd" clip-rule="evenodd" d="M141.478 48.1689C142.076 47.3818 143.199 47.2293 143.985 47.8283C144.166 47.9661 144.319 48.1372 144.436 48.3323C144.496 48.4328 144.463 48.5632 144.363 48.6236C144.262 48.6839 144.132 48.6512 144.072 48.5507C143.983 48.4018 143.866 48.2713 143.728 48.1662C143.14 47.7185 142.307 47.821 141.844 48.3899L141.815 48.4261L141.158 49.2911C140.131 50.6424 138.393 51.2382 136.757 50.8064L136.687 50.7873L136.158 50.6378C136.124 50.6282 136.09 50.6195 136.055 50.6119C135.088 50.3986 134.131 50.9974 133.894 51.9542L133.883 52.0015L133.773 52.4973C133.735 52.6728 133.66 52.8382 133.554 52.983C133.133 53.5554 132.328 53.6781 131.757 53.2569C131.662 53.1875 131.642 53.0546 131.711 52.9601C131.781 52.8657 131.914 52.8454 132.008 52.9149C132.391 53.1971 132.93 53.1149 133.212 52.7313C133.274 52.6465 133.32 52.551 133.348 52.4497L133.359 52.4059L133.468 51.9102C133.735 50.6968 134.934 49.9299 136.146 50.1972L136.21 50.2123L136.273 50.2291L136.802 50.3786C138.268 50.7927 139.836 50.2817 140.777 49.0895L140.82 49.034L141.478 48.1689Z" fill="#8478FF"/>
<path fill-rule="evenodd" clip-rule="evenodd" d="M139.567 47.9123C140 46.9481 141.132 46.5179 142.095 46.9514C142.288 47.0385 142.466 47.1572 142.62 47.3027C142.984 47.6451 143.321 48.1865 143.637 48.9275C143.683 49.0354 143.633 49.1601 143.525 49.2061C143.417 49.2521 143.293 49.202 143.247 49.0941C142.952 48.4024 142.644 47.908 142.33 47.612C142.21 47.4988 142.071 47.4064 141.921 47.3387C141.185 47.0075 140.322 47.3241 139.972 48.0459L139.953 48.0864L139.817 48.3902C139.785 48.461 139.749 48.5295 139.708 48.5953C139.204 49.405 138.14 49.6524 137.331 49.1479C137.235 49.0879 137.129 49.0443 137.018 49.0189C136.48 48.8955 135.944 49.2218 135.802 49.7512L135.793 49.7885L135.557 50.8203C135.486 51.1312 135.335 51.4181 135.119 51.6527C134.446 52.3845 133.316 52.4436 132.571 51.7951L132.531 51.7597L131.57 50.8735C131.484 50.7941 131.478 50.6598 131.558 50.5736C131.632 50.4931 131.753 50.4829 131.839 50.5464L131.857 50.5612L132.819 51.4473C133.39 51.9743 134.281 51.9375 134.807 51.3651C134.96 51.1987 135.071 50.998 135.13 50.7803L135.143 50.7255L135.379 49.6937C135.558 48.9138 136.334 48.4264 137.113 48.605C137.25 48.6364 137.382 48.6876 137.504 48.7568L137.555 48.7876C138.165 49.168 138.968 48.9814 139.348 48.3708C139.368 48.3377 139.388 48.3037 139.405 48.2689L139.43 48.2161L139.567 47.9123Z" fill="#C7C1FF"/>
<ellipse cx="116.019" cy="50.3604" rx="2.87522" ry="2.87841" fill="#8478FF"/>
<g filter="url(#filter1_dd_246_3781)">
<path fill-rule="evenodd" clip-rule="evenodd" d="M109.777 64.2841C109.777 61.5227 112.016 59.2841 114.777 59.2841H151.366C154.127 59.2841 156.366 61.5227 156.366 64.2841V93.6288C156.366 96.3902 154.127 98.6288 151.366 98.6288H114.777C112.016 98.6288 109.777 96.3902 109.777 93.6288V64.2841Z" fill="white"/>
</g>
<mask id="mask0_246_3781" style="mask-type:luminance" maskUnits="userSpaceOnUse" x="109" y="59" width="48" height="40">
<path fill-rule="evenodd" clip-rule="evenodd" d="M109.777 64.2841C109.777 61.5227 112.016 59.2841 114.777 59.2841H151.366C154.127 59.2841 156.366 61.5227 156.366 64.2841V93.6288C156.366 96.3902 154.127 98.6288 151.366 98.6288H114.777C112.016 98.6288 109.777 96.3902 109.777 93.6288V64.2841Z" fill="white"/>
</mask>
<g mask="url(#mask0_246_3781)">
<g filter="url(#filter2_d_246_3781)">
<path d="M116.024 89.5092C116.024 89.5092 121.562 87.9168 124.004 84.6667C126.447 81.4165 127.27 78.2662 131.47 78.2662C135.67 78.2662 136.209 83.0911 140.749 83.0911C145.29 83.0911 145.538 76.938 147.047 74.4948C148.556 72.0516 151.16 72.0516 151.16 72.0516" stroke="#8EEAF6" stroke-width="4.004" stroke-linecap="round"/>
</g>
<path opacity="0.414737" fill-rule="evenodd" clip-rule="evenodd" d="M116.024 89.1732C116.024 89.1732 121.562 87.5877 124.004 84.3516C126.447 81.1155 127.27 77.9788 131.47 77.9788C135.67 77.9788 136.209 82.7829 140.749 82.7829C145.29 82.7829 145.538 76.6564 147.047 74.2237C148.556 71.791 151.16 71.791 151.16 71.791V90.077C151.16 91.778 149.781 93.157 148.08 93.157H119.104C117.403 93.157 116.024 91.778 116.024 90.077V89.1732Z" fill="#CEF9FF"/>
<rect x="113.421" y="63.1925" width="14.5752" height="1.56336" rx="0.781682" fill="#8EEAF6"/>
<path fill-rule="evenodd" clip-rule="evenodd" d="M113.421 67.8826C113.421 67.4509 113.771 67.1009 114.203 67.1009H119.407C119.838 67.1009 120.188 67.4509 120.188 67.8826C120.188 68.3143 119.838 68.6643 119.407 68.6643H114.203C113.771 68.6643 113.421 68.3143 113.421 67.8826Z" fill="#8EEAF6" fill-opacity="0.401934"/>
<ellipse cx="147.386" cy="64.1045" rx="0.910952" ry="0.911963" fill="#8EEAF6" fill-opacity="0.451705"/>
<ellipse cx="149.989" cy="64.1045" rx="0.910952" ry="0.911963" fill="#8EEAF6" fill-opacity="0.451705"/>
<ellipse cx="152.592" cy="64.1045" rx="0.910952" ry="0.911963" fill="#8EEAF6" fill-opacity="0.451705"/>
</g>
<g filter="url(#filter3_d_246_3781)">
<path fill-rule="evenodd" clip-rule="evenodd" d="M163.655 54.2616C163.655 50.128 167.006 46.7772 171.139 46.7772H222.402C226.535 46.7772 229.886 50.128 229.886 54.2616V84.9261C229.886 89.0596 226.535 92.4105 222.402 92.4105H171.139C167.006 92.4105 163.655 89.0596 163.655 84.9261V54.2616Z" fill="white"/>
</g>
<path fill-rule="evenodd" clip-rule="evenodd" d="M174.855 70.1789V86.4998H172.42V70.1789H174.855Z" fill="#E7E4FF"/>
<path fill-rule="evenodd" clip-rule="evenodd" d="M174.855 74.0791V86.4998H172.42V74.0791H174.855Z" fill="#C7C1FF"/>
<path fill-rule="evenodd" clip-rule="evenodd" d="M174.855 81.8797V86.4998H172.42V81.8797H174.855Z" fill="#8478FF"/>
<path fill-rule="evenodd" clip-rule="evenodd" d="M180.7 66.2786V86.4998H178.265V66.2786H180.7Z" fill="#E7E4FF"/>
<path fill-rule="evenodd" clip-rule="evenodd" d="M180.7 72.129V86.4998H178.265V72.129H180.7Z" fill="#C7C1FF"/>
<path fill-rule="evenodd" clip-rule="evenodd" d="M180.7 81.8797V86.4998H178.265V81.8797H180.7Z" fill="#8478FF"/>
<path fill-rule="evenodd" clip-rule="evenodd" d="M186.543 69.2038V86.4999H184.108V69.2038H186.543Z" fill="#E7E4FF"/>
<path fill-rule="evenodd" clip-rule="evenodd" d="M186.543 75.0542V86.4999H184.108V75.0542H186.543Z" fill="#C7C1FF"/>
<path fill-rule="evenodd" clip-rule="evenodd" d="M186.543 82.8548V86.4999H184.108V82.8548H186.543Z" fill="#8478FF"/>
<path fill-rule="evenodd" clip-rule="evenodd" d="M192.387 64.3284V86.4998H189.952V64.3284H192.387Z" fill="#E7E4FF"/>
<path fill-rule="evenodd" clip-rule="evenodd" d="M192.387 70.1789V86.4998H189.952V70.1789H192.387Z" fill="#C7C1FF"/>
<path fill-rule="evenodd" clip-rule="evenodd" d="M192.387 77.9794V86.4998H189.952V77.9794H192.387Z" fill="#8478FF"/>
<path fill-rule="evenodd" clip-rule="evenodd" d="M198.231 60.4282V86.4999H195.796V60.4282H198.231Z" fill="#E7E4FF"/>
<path fill-rule="evenodd" clip-rule="evenodd" d="M198.231 68.2287V86.4999H195.796V68.2287H198.231Z" fill="#C7C1FF"/>
<path fill-rule="evenodd" clip-rule="evenodd" d="M198.231 79.9296V86.4998H195.796V79.9296H198.231Z" fill="#8478FF"/>
<path fill-rule="evenodd" clip-rule="evenodd" d="M204.076 66.2786V86.4998H201.641V66.2786H204.076Z" fill="#E7E4FF"/>
<path fill-rule="evenodd" clip-rule="evenodd" d="M204.076 72.129V86.4998H201.641V72.129H204.076Z" fill="#C7C1FF"/>
<path fill-rule="evenodd" clip-rule="evenodd" d="M204.076 81.0996V86.4998H201.641V81.0996H204.076Z" fill="#8478FF"/>
<path fill-rule="evenodd" clip-rule="evenodd" d="M209.919 68.2287V86.4999H207.484V68.2287H209.919Z" fill="#E7E4FF"/>
<path fill-rule="evenodd" clip-rule="evenodd" d="M209.919 72.129V86.4999H207.484V72.129H209.919Z" fill="#C7C1FF"/>
<path fill-rule="evenodd" clip-rule="evenodd" d="M209.919 79.7346V86.4998H207.484V79.7346H209.919Z" fill="#8478FF"/>
<path fill-rule="evenodd" clip-rule="evenodd" d="M215.764 64.3284V86.4998H213.329V64.3284H215.764Z" fill="#E7E4FF"/>
<path fill-rule="evenodd" clip-rule="evenodd" d="M215.764 72.129V86.4998H213.329V72.129H215.764Z" fill="#C7C1FF"/>
<path fill-rule="evenodd" clip-rule="evenodd" d="M215.764 81.6847V86.4998H213.329V81.6847H215.764Z" fill="#8478FF"/>
<path fill-rule="evenodd" clip-rule="evenodd" d="M221.608 68.2287V86.4999H219.173V68.2287H221.608Z" fill="#E7E4FF"/>
<path fill-rule="evenodd" clip-rule="evenodd" d="M221.608 72.129V86.4998H219.173V72.129H221.608Z" fill="#C7C1FF"/>
<path fill-rule="evenodd" clip-rule="evenodd" d="M221.608 81.6847V86.4998H219.173V81.6847H221.608Z" fill="#8478FF"/>
<path opacity="0.57573" fill-rule="evenodd" clip-rule="evenodd" d="M171.641 55.1628C171.641 54.8397 171.903 54.5777 172.227 54.5777H191.705C192.028 54.5777 192.29 54.8397 192.29 55.1628C192.29 55.4859 192.028 55.7478 191.705 55.7478H172.227C171.903 55.7478 171.641 55.4859 171.641 55.1628Z" fill="#8C81FF"/>
<rect x="171.641" y="51.2625" width="10.9087" height="1.17008" rx="0.585042" fill="#8478FF"/>
<path fill-rule="evenodd" clip-rule="evenodd" d="M238.882 139.057L242.038 163.988L240.383 163.966L237.228 139.291L238.882 139.057Z" fill="#BFE7FF"/>
<path fill-rule="evenodd" clip-rule="evenodd" d="M217.532 142.976C216.094 142.976 214.928 141.81 214.928 140.372C214.928 138.933 216.094 137.767 217.532 137.767H223.199C227.467 137.767 231.035 134.52 231.434 130.27L232.375 120.271C232.681 117.013 235.416 114.523 238.688 114.523C242.382 114.523 245.294 117.667 245.011 121.35L244.136 132.738C243.692 138.515 238.875 142.976 233.081 142.976H217.532Z" fill="#91D6FF"/>
<path fill-rule="evenodd" clip-rule="evenodd" d="M214.929 140.349C214.943 140.35 214.957 140.35 214.972 140.35H230.46C236.253 140.35 241.07 135.89 241.515 130.114L242.388 118.788C242.486 117.519 242.203 116.314 241.639 115.28C240.748 114.798 239.725 114.523 238.635 114.523C235.371 114.523 232.643 117.006 232.337 120.255L231.396 130.224C230.997 134.462 227.438 137.701 223.181 137.701H217.526C216.091 137.701 214.928 138.864 214.928 140.299C214.928 140.316 214.929 140.333 214.929 140.349Z" fill="#BFE7FF"/>
<path fill-rule="evenodd" clip-rule="evenodd" d="M235.362 110.229C238.726 109.446 238.947 104.826 236.39 103.224C239.027 97.6921 232.928 92.2 228.751 95.5871C226.012 94.4141 223.736 98.9913 226.284 102.546C225.216 108.65 227.391 110.228 231.311 110.295L235.362 110.229Z" fill="#422851"/>
<path fill-rule="evenodd" clip-rule="evenodd" d="M235.32 109.126C235.32 109.126 233.684 108.742 233.627 106.059C233.57 103.377 233.61 102.461 233.61 102.461L230.006 102.396C230.006 102.396 229.966 105.386 229.966 106.467C229.964 109.371 227.942 109.126 227.942 109.126C227.942 109.126 228.362 111.481 231.628 111.665C234.178 111.809 235.32 109.126 235.32 109.126Z" fill="url(#paint0_linear_246_3781)"/>
<path fill-rule="evenodd" clip-rule="evenodd" d="M234.451 101.121C236.058 101.059 235.796 103.414 234.126 103.411C234.126 103.411 233.156 106.757 229.788 106.757C227.052 106.757 226.874 102.857 226.85 102.079C226.823 101.25 226.82 98.5254 226.82 98.5254L234.513 98.5218L234.451 101.121Z" fill="url(#paint1_linear_246_3781)"/>
<path d="M230.437 104.509C230.437 104.509 229.635 105.189 228.706 104.552" stroke="#F77B7B" stroke-width="1.5" stroke-linecap="round"/>
<path d="M229.907 105.296C229.658 105.411 229.417 105.42 229.203 105.305" stroke="#F49494" stroke-linecap="round"/>
<path d="M234.286 102.388C234.27 102.01 234.385 101.71 234.77 101.65" stroke="#F77B7B" stroke-linecap="round"/>
<path fill-rule="evenodd" clip-rule="evenodd" d="M234.705 100.83C234.705 100.83 233.824 102.014 233.645 102.02C233.466 102.026 233.404 100.481 233.404 100.481C232.323 100.398 229.587 99.8534 228.916 98.5834C228.447 99.704 227.551 100.202 226.962 100.106L226.85 102.487L226.575 97.7007H234.92L234.705 100.83Z" fill="#422851"/>
<path fill-rule="evenodd" clip-rule="evenodd" d="M218.851 156.433C218.851 156.433 220.293 159.348 219.111 160.266C217.927 161.185 214.798 162.906 214.798 162.906L223.086 162.385L221.244 156.028L218.851 156.433Z" fill="url(#paint2_linear_246_3781)"/>
<path fill-rule="evenodd" clip-rule="evenodd" d="M222.285 159.207C221.876 159.255 222.312 160.632 221.427 160.737C220.543 160.842 220.114 159.536 219.111 159.95C218.108 160.364 214.45 162.503 214.306 163.378C214.16 164.252 215.523 164.51 217.392 164.312C219.261 164.115 219.605 163.45 221.008 163.717C222.409 163.985 223.459 163.558 223.413 162.534C223.367 161.51 222.694 159.159 222.285 159.207Z" fill="#222D4E"/>
<path fill-rule="evenodd" clip-rule="evenodd" d="M218.653 160.162C218.841 160.443 218.749 160.825 218.454 160.989L216.605 162.022C216.314 162.184 215.962 162.191 215.665 162.04L215.625 162.02C216.228 161.583 216.72 161.255 217.265 160.933C217.683 160.685 218.146 160.43 218.653 160.162Z" fill="white" fill-opacity="0.540975"/>
<path fill-rule="evenodd" clip-rule="evenodd" d="M231.335 130.741C228.826 130.854 214.862 133.944 212.325 134.469C209.788 134.994 207.643 137.835 209.577 141.124C211.75 144.817 217.357 155.304 218.718 157.668C219.392 158.838 222.791 158.182 221.992 156.218C220.504 152.557 219.813 143.36 216.018 140.007C216.018 140.007 228.779 142.229 234.292 139.683C238.298 137.833 237.391 130.471 231.335 130.741Z" fill="url(#paint3_linear_246_3781)"/>
<path fill-rule="evenodd" clip-rule="evenodd" d="M213.558 115.897C213.558 115.897 213.586 113.854 212.872 112.787C212.158 111.72 212.13 110.586 211.589 110.623C211.049 110.66 211.584 113.295 211.584 113.295C211.584 113.295 210.898 113.033 210.406 112.702C209.913 112.37 208.419 110.736 208.07 111.025C207.478 111.519 208.432 114.303 208.951 114.859C209.472 115.416 212.318 117.247 212.318 117.247L213.558 115.897Z" fill="url(#paint4_linear_246_3781)"/>
<path fill-rule="evenodd" clip-rule="evenodd" d="M228.977 114.673C227.809 117.382 225.672 122.357 224.791 123.841C223.687 125.7 221.946 126.52 219.908 125.14C217.766 123.691 211.868 118.038 211.695 116.758C211.524 115.477 212.968 113.941 214.274 114.736C215.58 115.532 221.007 120.051 221.007 120.051C221.007 120.051 223.198 114.433 224.96 111.179C226.485 108.363 230.753 110.556 228.977 114.673Z" fill="#6A5EE3"/>
<path fill-rule="evenodd" clip-rule="evenodd" d="M220.985 120.054C220.985 120.054 220.397 122.05 220.259 121.934C220.121 121.819 220.364 119.532 220.364 119.532L220.985 120.054Z" fill="black" fill-opacity="0.302803"/>
<path fill-rule="evenodd" clip-rule="evenodd" d="M240.641 111.41C240.641 111.41 237.828 120.832 237.745 122.616C237.662 124.4 240.045 129.642 239.639 130.968C238.704 134.03 226.757 135.348 226.301 131.229C226.088 129.308 226.531 127.584 226.02 125.32C225.512 123.056 223.467 119.692 224.627 116.53C225.786 113.367 225.476 110.441 226.305 109.888C227.135 109.335 229.073 108.748 229.073 108.748C230.016 110.136 233.199 110.116 234.718 108.65C234.718 108.65 238.491 109.382 240.641 111.41Z" fill="#7367F0"/>
<path fill-rule="evenodd" clip-rule="evenodd" d="M238.12 112.936C236.246 115.913 236.251 121.095 235.244 121.774C234.237 122.453 230.318 121.787 230.318 122.325C230.318 122.862 235.734 127.789 234.845 130.144C234.38 131.377 234.506 132.48 235.224 133.453L235.458 133.402C237.592 132.92 239.308 132.053 239.639 130.968C240.045 129.643 237.387 124.4 237.47 122.616C237.541 121.102 239.776 114.083 240.45 111.996C239.901 111.028 239.125 111.341 238.12 112.936Z" fill="black" fill-opacity="0.199355"/>
<path fill-rule="evenodd" clip-rule="evenodd" d="M234.923 120.833C234.923 120.833 232.554 118.736 231.829 118.492C231.104 118.249 226.856 117.956 226.883 118.506C226.914 119.096 229.195 119.062 229.431 119.352C229.668 119.642 229.721 121.623 230.615 121.846C231.507 122.068 234.18 122.452 234.18 122.452L234.923 120.833Z" fill="url(#paint5_linear_246_3781)"/>
<path fill-rule="evenodd" clip-rule="evenodd" d="M241.225 111.951C243.721 115.475 245.852 120.844 246.67 122.937C247.488 125.03 246.663 128.187 243.066 127.567C239.476 126.949 233.764 123.59 233.132 122.611C232.5 121.631 233.46 119.848 234.669 120.081C235.789 120.297 241.346 122.661 241.346 122.661C241.346 122.661 237.771 116.321 236.898 114.622C235.44 111.784 239.027 108.846 241.225 111.951Z" fill="#6A5EE3"/>
<path fill-rule="evenodd" clip-rule="evenodd" d="M241.289 122.618C241.289 122.618 243.161 123.549 242.933 123.158C242.705 122.768 240.575 121.397 240.575 121.397L241.289 122.618Z" fill="black" fill-opacity="0.302803"/>
<path fill-rule="evenodd" clip-rule="evenodd" d="M149.543 155.413C149.543 155.413 149.505 157.815 150.98 158.669C152.454 159.522 154.738 161.108 154.738 161.108L146.049 161.402L146.297 155.391L149.543 155.413Z" fill="#F8CFCF"/>
<path fill-rule="evenodd" clip-rule="evenodd" d="M145.746 158.06L145.604 161.957H147.622L147.761 161.455C147.761 161.455 148.521 161.424 148.96 161.641C149.424 161.87 149.486 161.981 149.486 161.981L155.887 161.995C155.887 161.995 156.203 160.735 154.252 159.824C152.301 158.913 150.88 157.62 150.61 157.487C150.338 157.354 149.79 157.279 149.403 157.592C149.017 157.905 148.712 158.729 147.836 158.755C146.71 158.788 146.063 157.401 145.746 158.06Z" fill="#4B4B4B"/>
<path d="M151.216 157.91L150.553 158.552" stroke="white" stroke-width="2" stroke-linecap="round"/>
<path d="M152.184 158.397L151.52 159.039" stroke="white" stroke-width="2" stroke-linecap="round"/>
<path d="M153.152 158.883L152.488 159.525" stroke="white" stroke-width="2" stroke-linecap="round"/>
<path fill-rule="evenodd" clip-rule="evenodd" d="M143.183 103.518C143.183 103.518 145.597 130.095 145.672 131.942C145.747 133.79 144.897 136.978 144.913 140.434C144.93 143.89 145.224 156.07 145.224 156.07L150.549 156.182C150.549 156.182 152.787 134.172 152.811 130.872C152.835 127.571 153.04 103.835 153.04 103.835L143.183 103.518Z" fill="#383838"/>
<path opacity="0.283552" fill-rule="evenodd" clip-rule="evenodd" d="M147.021 132.769L147.027 132.835C147.108 133.962 146.408 137.669 144.928 143.956L144.914 140.434C144.897 137.04 145.717 133.904 145.675 132.042L145.672 131.942C145.647 131.32 145.356 127.888 144.981 123.612L145.156 124.239C146.183 127.948 146.805 130.792 147.021 132.769Z" fill="white" fill-opacity="0.192499"/>
<path fill-rule="evenodd" clip-rule="evenodd" d="M136.698 155.074L135.671 161.295L139.457 161.276L139.577 154.977L136.698 155.074Z" fill="#F8CFCF"/>
<path fill-rule="evenodd" clip-rule="evenodd" d="M136.816 157.651C136.137 157.799 135.645 158.389 135.622 159.084L135.609 159.471C135.104 160.031 134.85 161.589 134.8 161.924C134.794 161.968 134.788 162.012 134.802 162.053C135.062 162.804 139.831 162.822 140.772 162.165C140.9 162.076 140.911 161.909 140.883 161.755C140.78 161.202 140.479 159.825 139.955 159.415L139.954 159.088C139.952 158.367 139.467 157.737 138.77 157.55C138.217 156.743 137.463 156.772 136.816 157.651Z" fill="#4B4B4B"/>
<path d="M137.031 158.324H138.564" stroke="white" stroke-width="2" stroke-linecap="round"/>
<path d="M137.031 159.053H138.564" stroke="white" stroke-width="2" stroke-linecap="round"/>
<path d="M137.275 159.782H138.32" stroke="white" stroke-width="2" stroke-linecap="round"/>
<path fill-rule="evenodd" clip-rule="evenodd" d="M138.607 103.866C138.607 103.866 136.916 122.084 136.939 125.573C136.962 129.062 137.46 130.594 136.751 133.097C136.043 135.6 135.439 155.576 135.439 155.576L140.676 156.149C140.676 156.149 144.022 134.773 144.386 131.81C144.749 128.846 149.246 103.615 149.246 103.615L138.607 103.866Z" fill="#2E2E2E"/>
<path opacity="0.283552" fill-rule="evenodd" clip-rule="evenodd" d="M140.022 116.231L139.702 117.387C138.767 120.8 137.904 124.409 138.13 129.564L138.141 129.799C138.196 130.916 137.486 137.397 136.009 149.242L135.869 150.075C135.724 150.924 135.595 151.648 135.482 152.248L135.514 151.199C135.703 145.409 136.209 135.013 136.751 133.097C137.459 130.594 136.962 129.062 136.939 125.573C136.923 123.131 137.747 113.471 138.243 107.896L138.607 103.866L140.818 103.814L140.823 104.435C140.862 110.163 140.595 114.095 140.022 116.231Z" fill="white" fill-opacity="0.192499"/>
<path fill-rule="evenodd" clip-rule="evenodd" d="M164.372 81.3373C164.372 81.3373 163.935 78.9277 164.092 78.4398C164.226 78.018 165.495 77.4099 165.495 77.4099C165.495 77.4099 167.702 73.9614 168.185 74.3125C168.578 74.5972 167.036 77.1396 167.036 77.1396C167.036 77.1396 168.443 78.5991 168.423 79.2514C168.403 79.9039 166.127 81.9463 166.127 81.9463L164.372 81.3373Z" fill="#F8CFCF"/>
<path fill-rule="evenodd" clip-rule="evenodd" d="M165.543 77.3753C165.543 77.3753 166.52 77.2438 166.676 77.5447C166.808 77.801 165.996 78.5282 165.996 78.7326C165.996 78.9369 166.008 80.4841 166.073 80.4981C166.138 80.5122 167.052 77.9735 166.857 77.4365C166.697 76.9957 165.543 77.3753 165.543 77.3753Z" fill="#F28585"/>
<path fill-rule="evenodd" clip-rule="evenodd" d="M152.711 84.4032C150.15 82.1911 146.305 86.1791 150.593 89.8867C152.228 91.3011 157.366 94.8294 158.626 95.6051C160.631 96.8402 162.278 95.7257 162.956 93.7826C163.53 92.1352 166.965 83.3165 166.528 82.0212C166.243 81.1764 164.713 80.3544 163.945 81.0192C162.823 81.9908 159.39 90.5127 159.39 90.5127C159.39 90.5127 155.622 86.9184 152.711 84.4032Z" fill="#877BFF"/>
<path fill-rule="evenodd" clip-rule="evenodd" d="M159.39 90.5127C159.39 90.5127 160.514 91.8766 160.595 91.6683C160.676 91.46 159.703 89.7072 159.703 89.7072L159.39 90.5127Z" fill="black" fill-opacity="0.159856"/>
<path d="M163.647 81.5655C164.54 81.1519 165.516 81.6632 166.054 82.4838" stroke="#5386BF" stroke-linecap="round"/>
<path fill-rule="evenodd" clip-rule="evenodd" d="M141.735 81.8518C141.735 81.8518 143.207 81.513 143.258 79.1484C143.309 76.7837 143.273 75.9766 143.273 75.9766L146.763 75.9192C146.763 75.9192 146.798 78.5546 146.799 79.5078C146.8 81.583 148.372 82.1437 148.372 82.1437C148.372 82.1437 148.242 84.4127 145.304 84.5747C143.01 84.7013 141.735 81.8518 141.735 81.8518Z" fill="#F8C5C5"/>
<path fill-rule="evenodd" clip-rule="evenodd" d="M149.871 73.4275L149.793 75.6622C150.453 74.9024 150.898 73.9603 151.03 72.7522L149.871 73.4275Z" fill="url(#paint6_linear_246_3781)"/>
<path fill-rule="evenodd" clip-rule="evenodd" d="M142.952 74.7813C141.506 74.7265 141.742 76.8024 143.244 76.7996C143.244 76.7996 144.859 79.9828 147.394 79.991C148.616 79.995 149.014 78.9286 149.38 78.1799C149.747 77.4313 150.015 76.3114 150.038 75.6258C150.062 74.8947 150.065 72.493 150.065 72.493L142.896 72.4898L142.952 74.7813Z" fill="#F8CFCF"/>
<path fill-rule="evenodd" clip-rule="evenodd" d="M150.064 73.595H145.023C144.97 74.4882 144.667 75.2298 143.899 75.7769C143.921 77.0853 144.367 78.0378 145.141 78.7058C145.815 76.812 149.939 77.3301 149.639 78.5658C149.009 81.1616 143.103 81.2205 143.462 75.2459C143.226 74.931 142.384 74.8722 142.106 75.187C141.633 73.8817 141.835 72.0352 143.204 71.7681C142.129 68.9866 156.75 68.3982 150.064 73.595Z" fill="#424242"/>
<path d="M146.834 78.4511C146.834 78.4511 147.491 78.9242 148.355 78.4069" stroke="#CC6969" stroke-linecap="round"/>
<path d="M143.177 75.9664C143.192 75.6334 143.089 75.3689 142.742 75.3158" stroke="#DE6767" stroke-linecap="round"/>
<path fill-rule="evenodd" clip-rule="evenodd" d="M142.38 81.4571L146.545 84.1583L148.423 81.9775C148.423 81.9775 152.379 83.2018 153.113 84.6331C154.172 86.6987 152.777 103.248 153.385 104.246C154.681 106.374 152.958 107.835 147.252 108.372C141.547 108.909 136.485 108.469 137.404 105.629C138.323 102.789 134.778 84.2552 137.903 83.2342C138.879 82.9152 142.38 81.4571 142.38 81.4571Z" fill="#7367F0"/>
<path fill-rule="evenodd" clip-rule="evenodd" d="M139.57 86.5666C139.822 87.0118 139.692 88.5541 139.18 91.1936C138.743 93.4424 139.242 95.7686 140.56 97.6453L140.634 97.7491C141.079 98.3639 141.49 99.1734 141.866 100.178C142.788 102.641 140.661 104.694 142.291 108.547L142.094 108.538C138.896 108.372 136.783 107.55 137.404 105.629C138.157 103.301 135.91 90.4218 136.798 85.2958C138.337 85.5975 139.261 86.021 139.57 86.5666Z" fill="black" fill-opacity="0.159856"/>
<path fill-rule="evenodd" clip-rule="evenodd" d="M142.38 81.4571L146.106 83.8824C145.559 84.516 145.267 85.2532 145.156 86.0647C143.724 84.947 142.236 83.3852 141.775 81.7058L142.38 81.4571Z" fill="#5E54C7"/>
<path fill-rule="evenodd" clip-rule="evenodd" d="M146.839 83.8192C147.469 84.2445 147.972 84.9975 148.381 85.8537C148.871 84.8698 149.059 83.5704 149.059 82.1849L148.444 81.9421L146.839 83.8192Z" fill="#5E54C7"/>
<path fill-rule="evenodd" clip-rule="evenodd" d="M146.105 83.8821L146.154 83.9093C146.377 84.0338 146.656 83.9972 146.839 83.8192C148.244 88.9595 149.232 94.6172 149.53 100.367L148.064 102.798L146.35 100.523C146.573 94.547 146.572 88.7202 146.105 83.8821Z" fill="#CBC6FF"/>
<path d="M149.638 98.671C149.78 97.319 151.019 96.3569 152.364 96.5535C153.634 96.7392 154.532 97.8944 154.397 99.1713L154.147 101.555C154.005 102.907 152.766 103.869 151.421 103.673C150.151 103.487 149.253 102.332 149.387 101.055L149.638 98.671Z" fill="#6182EC"/>
<path fill-rule="evenodd" clip-rule="evenodd" d="M150.025 98.7201C150.176 97.2808 151.53 96.2812 152.95 96.5597L154.584 96.8802L154.996 96.8733C156.475 96.8485 157.643 98.1233 157.488 99.5945L157.256 101.804C157.126 103.043 156.092 103.99 154.847 104.01L153.833 104.027L151.767 103.622C150.515 103.377 149.658 102.216 149.791 100.947L150.025 98.7201Z" fill="#96EFFA"/>
<path d="M150.832 98.492C150.879 98.0448 151.297 97.7322 151.739 97.8131L152.715 97.9917C153.112 98.0643 153.386 98.4305 153.344 98.8319C153.297 99.2791 152.879 99.5917 152.437 99.5108L151.461 99.3323C151.064 99.2596 150.79 98.8934 150.832 98.492Z" fill="#74CFDB"/>
<path d="M154.305 97.1448C154.322 96.9843 154.465 96.8678 154.626 96.8847C154.787 96.9016 154.903 97.0454 154.886 97.2059L154.198 103.749C154.182 103.909 154.038 104.026 153.877 104.009C153.717 103.992 153.6 103.848 153.617 103.688L154.305 97.1448Z" fill="#EAEFFF"/>
<path d="M154.499 97.1652C154.516 97.0046 154.659 96.8882 154.82 96.905C154.98 96.9219 155.097 97.0657 155.08 97.2263L154.392 103.769C154.375 103.93 154.232 104.046 154.071 104.029C153.911 104.012 153.794 103.869 153.811 103.708L154.499 97.1652Z" fill="#7AD2DD"/>
<path fill-rule="evenodd" clip-rule="evenodd" d="M146.187 99.4953C146.187 99.4953 147.451 99.2426 147.969 98.8389C148.487 98.4352 150.054 98.1498 150.054 98.1498L149.553 99.1991C149.553 99.1991 153.395 98.8408 153.486 99.2174C153.577 99.5939 152.465 100.003 152.465 100.003C152.465 100.003 151.917 101.02 151.387 101.61C150.885 102.168 148.391 102.101 147.517 101.753C146.762 101.452 145.94 101.603 145.94 101.603L146.187 99.4953Z" fill="#F8CFCF"/>
<path fill-rule="evenodd" clip-rule="evenodd" d="M136.015 84.8321C137.389 81.8822 142.093 83.8697 140.907 87.0297C139.759 90.0911 136.976 97.2385 136.976 97.2385C136.976 97.2385 145.793 98.3507 146.48 98.8693C147.397 99.5612 146.83 101.536 146.051 101.887C145.392 102.184 140.494 102.358 135.702 101.983C133.331 101.797 131.578 100.785 131.333 98.1565C131.162 96.3157 134.691 87.6737 136.015 84.8321Z" fill="#877BFF"/>
<path fill-rule="evenodd" clip-rule="evenodd" d="M136.98 97.2368C136.98 97.2368 136.247 98.6209 136.457 98.6491C136.666 98.6774 137.731 97.3381 137.731 97.3381L136.98 97.2368Z" fill="black" fill-opacity="0.159856"/>
<path d="M145.859 98.719C146.131 99.5816 145.94 100.593 145.563 101.308" stroke="#5386BF" stroke-linecap="round"/>
<path fill-rule="evenodd" clip-rule="evenodd" d="M108.538 137.255C110.817 136.232 113.494 137.259 114.503 139.545L115.293 141.333C113.013 142.357 110.337 141.329 109.327 139.043L108.538 137.255Z" fill="#02D3AF"/>
<path fill-rule="evenodd" clip-rule="evenodd" d="M111.795 138.346C114.07 139.965 115.545 141.769 116.224 143.757C116.908 145.756 117.187 149.106 117.06 153.801C117.058 153.873 117.115 153.934 117.187 153.936C117.259 153.938 117.319 153.881 117.321 153.808C117.449 149.084 117.167 145.707 116.471 143.671C115.772 141.626 114.262 139.779 111.945 138.131C111.886 138.089 111.805 138.103 111.763 138.162C111.722 138.222 111.736 138.304 111.795 138.346Z" fill="#02B596"/>
<path fill-rule="evenodd" clip-rule="evenodd" d="M127.876 136.145C125.632 135.09 122.959 136.063 121.919 138.313L121.032 140.23C123.276 141.285 125.949 140.312 126.989 138.062L127.876 136.145Z" fill="#02D3AF"/>
<path d="M109.954 131.751C112.117 131.291 114.243 132.672 114.703 134.835L115.075 136.586C112.912 137.046 110.786 135.665 110.326 133.502L109.954 131.751Z" fill="#02D3AF"/>
<path fill-rule="evenodd" clip-rule="evenodd" d="M111.544 133.148C113.212 134.312 114.339 135.567 114.931 136.911L114.967 136.996L115.004 137.085C115.61 138.589 116.613 142.53 118.008 148.892C118.024 148.963 118.094 149.008 118.164 148.992C118.234 148.977 118.279 148.907 118.263 148.836L118.091 148.051L117.889 147.143C116.628 141.506 115.723 138.064 115.169 136.805C114.557 135.412 113.397 134.121 111.693 132.932C111.633 132.89 111.552 132.905 111.511 132.965C111.47 133.024 111.485 133.106 111.544 133.148Z" fill="#02B596"/>
<path fill-rule="evenodd" clip-rule="evenodd" d="M124.604 130.42C122.22 130.378 120.253 132.277 120.212 134.661L120.175 136.788C122.559 136.83 124.526 134.931 124.567 132.547L124.604 130.42Z" fill="#02D3AF"/>
<path fill-rule="evenodd" clip-rule="evenodd" d="M123.039 131.276C121.506 133.526 120.385 135.698 119.678 137.792C118.973 139.883 118.269 143.111 117.565 147.48C117.554 147.551 117.602 147.619 117.673 147.631C117.745 147.642 117.812 147.594 117.823 147.522L117.91 146.991L117.969 146.633C118.622 142.726 119.274 139.807 119.926 137.877C120.625 135.807 121.734 133.656 123.255 131.425C123.296 131.365 123.28 131.283 123.221 131.242C123.162 131.2 123.08 131.216 123.039 131.276Z" fill="#02B596"/>
<path fill-rule="evenodd" clip-rule="evenodd" d="M119.719 129.802C119.719 129.802 118.475 133.344 117.925 138.563C117.376 143.782 117.696 149 117.696 149L118.303 149.055C118.303 149.055 117.977 142.964 118.369 138.586C118.76 134.208 120.022 129.829 120.022 129.829L119.719 129.802Z" fill="#02B596"/>
<ellipse cx="120.352" cy="128.046" rx="2.00301" ry="3.07113" transform="rotate(14 120.352 128.046)" fill="#C2FFF4"/>
<ellipse cx="120.392" cy="128.232" rx="1.39339" ry="2.00224" transform="rotate(14 120.392 128.232)" fill="#02D3AF"/>
<path fill-rule="evenodd" clip-rule="evenodd" d="M120.221 129.992L121.34 126.499C121.406 126.292 121.293 126.069 121.087 126.002C120.882 125.935 120.661 126.049 120.594 126.256L119.475 129.749C119.409 129.956 119.522 130.179 119.728 130.246C119.933 130.313 120.154 130.199 120.221 129.992Z" fill="url(#paint7_linear_246_3781)"/>
<path fill-rule="evenodd" clip-rule="evenodd" d="M113.664 126.291C113.664 126.291 115.271 129.684 116.363 134.817C117.456 139.95 117.682 145.173 117.682 145.173L117.084 145.291C117.084 145.291 116.772 139.2 115.925 134.886C115.078 130.573 113.365 126.35 113.365 126.35L113.664 126.291Z" fill="#02B596"/>
<ellipse cx="2.00301" cy="3.07113" rx="2.00301" ry="3.07113" transform="matrix(-0.939693 0.34202 0.34202 0.939693 113.683 121.041)" fill="#C2FFF4"/>
<ellipse cx="1.39339" cy="2.00224" rx="1.39339" ry="2.00224" transform="matrix(-0.939693 0.34202 0.34202 0.939693 113.455 122.443)" fill="#02D3AF"/>
<path fill-rule="evenodd" clip-rule="evenodd" d="M113.185 126.533L111.707 123.176C111.619 122.977 111.708 122.744 111.906 122.655C112.103 122.567 112.335 122.657 112.423 122.857L113.901 126.213C113.989 126.412 113.899 126.646 113.702 126.734C113.504 126.822 113.273 126.732 113.185 126.533Z" fill="url(#paint8_linear_246_3781)"/>
<path fill-rule="evenodd" clip-rule="evenodd" d="M126.643 136.704C123.547 137.916 121.389 139.316 120.168 140.91C118.947 142.503 118.141 144.975 117.743 148.325C117.734 148.397 117.786 148.463 117.857 148.471C117.929 148.48 117.994 148.429 118.002 148.356C118.395 145.049 119.187 142.621 120.375 141.071C121.561 139.521 123.682 138.145 126.738 136.95C126.805 136.923 126.838 136.847 126.812 136.779C126.786 136.712 126.711 136.678 126.643 136.704Z" fill="#02B596"/>
<path fill-rule="evenodd" clip-rule="evenodd" d="M118.346 146.424C116.876 141.185 111.071 142.718 111.071 142.718C111.071 142.718 115.417 144.139 117.634 146.424H118.346Z" fill="#02B596"/>
<path fill-rule="evenodd" clip-rule="evenodd" d="M118.331 145.619C119.801 140.38 124.701 141.146 124.701 141.146C124.701 141.146 121.725 143.593 119.044 145.619H118.331Z" fill="#02B596"/>
<path fill-rule="evenodd" clip-rule="evenodd" d="M118.321 146.66C117.007 142.013 120.072 138.012 120.072 138.012C120.072 138.012 119.917 143.516 118.851 146.321L118.321 146.66Z" fill="#02B596"/>
<path fill-rule="evenodd" clip-rule="evenodd" d="M117.035 145.619C116.454 143.94 115.876 141.594 115.443 139.321C117.583 140.182 118.271 143.612 117.583 145.619H117.035Z" fill="#02D3AF"/>
<path fill-rule="evenodd" clip-rule="evenodd" d="M112.996 146.127C112.893 144.949 113.821 143.935 115.004 143.935H120.27C121.453 143.935 122.381 144.949 122.278 146.127L120.905 161.846C120.814 162.887 119.942 163.686 118.896 163.686H116.378C115.332 163.686 114.46 162.887 114.369 161.846L112.996 146.127Z" fill="#7569EC"/>
<mask id="mask1_246_3781" style="mask-type:luminance" maskUnits="userSpaceOnUse" x="112" y="143" width="11" height="21">
<path fill-rule="evenodd" clip-rule="evenodd" d="M112.996 146.127C112.893 144.949 113.821 143.935 115.004 143.935H120.27C121.453 143.935 122.381 144.949 122.278 146.127L120.905 161.846C120.814 162.887 119.942 163.686 118.896 163.686H116.378C115.332 163.686 114.46 162.887 114.369 161.846L112.996 146.127Z" fill="white"/>
</mask>
<g mask="url(#mask1_246_3781)">
<path fill-rule="evenodd" clip-rule="evenodd" d="M111.585 142.702H115.154C112.942 151.1 119.601 156.873 115.154 165.27H111.585V142.702Z" fill="#8175FF"/>
</g>
<path fill-rule="evenodd" clip-rule="evenodd" d="M272.168 139.057L269.013 163.988L270.667 163.966L273.823 139.291L272.168 139.057Z" fill="#91D6FF"/>
<path fill-rule="evenodd" clip-rule="evenodd" d="M262.986 139.057L259.831 163.988L261.485 163.966L264.64 139.291L262.986 139.057Z" fill="#91D6FF"/>
<path fill-rule="evenodd" clip-rule="evenodd" d="M283.129 139.057L286.284 163.988L284.63 163.966L281.474 139.291L283.129 139.057Z" fill="#BFE7FF"/>
<path fill-rule="evenodd" clip-rule="evenodd" d="M261.779 142.976C260.341 142.976 259.175 141.81 259.175 140.372C259.175 138.933 260.341 137.767 261.779 137.767H267.446C271.714 137.767 275.281 134.52 275.681 130.27L276.621 120.271C276.928 117.013 279.663 114.523 282.935 114.523C286.629 114.523 289.541 117.667 289.258 121.35L288.383 132.738C287.939 138.515 283.122 142.976 277.328 142.976H261.779Z" fill="#91D6FF"/>
<path fill-rule="evenodd" clip-rule="evenodd" d="M259.176 140.349C259.19 140.35 259.204 140.35 259.219 140.35H274.707C280.5 140.35 285.317 135.89 285.762 130.114L286.635 118.788C286.732 117.519 286.45 116.314 285.886 115.28C284.995 114.798 283.972 114.523 282.882 114.523C279.618 114.523 276.89 117.006 276.584 120.255L275.643 130.224C275.244 134.462 271.685 137.701 267.428 137.701H261.773C260.338 137.701 259.175 138.864 259.175 140.299C259.175 140.316 259.176 140.333 259.176 140.349Z" fill="#BFE7FF"/>
<path fill-rule="evenodd" clip-rule="evenodd" d="M262.34 156.026C262.34 156.026 263.787 158.947 262.601 159.868C261.413 160.789 258.276 162.514 258.276 162.514L266.588 161.992L264.74 155.62L262.34 156.026Z" fill="url(#paint9_linear_246_3781)"/>
<path fill-rule="evenodd" clip-rule="evenodd" d="M265.764 158.669C265.502 158.794 265.932 159.968 265.012 159.886C264.092 159.803 263.515 158.59 262.836 158.669C262.158 158.747 261.727 159.969 260.435 160.82C259.144 161.672 257.228 162.687 257.357 163.543C257.485 164.398 260.499 164.628 262.026 164.344C263.552 164.061 264.265 163.448 265.256 163.496C266.246 163.545 266.869 163.424 267.179 162.788C267.489 162.152 266.066 158.525 265.764 158.669Z" fill="#EEDFE8"/>
<path fill-rule="evenodd" clip-rule="evenodd" d="M265.69 162.575L265.606 162.57C264.378 162.467 263.536 163.239 262.368 163.457C261.199 163.675 258.117 163.75 257.625 163.019C257.602 162.984 257.58 162.949 257.56 162.913C257.395 163.116 257.317 163.333 257.357 163.587C257.485 164.401 260.499 164.62 262.026 164.35C263.553 164.08 264.265 163.496 265.256 163.543L265.432 163.55C266.321 163.574 266.888 163.437 267.18 162.869C267.251 162.73 267.235 162.432 267.164 162.056C266.749 162.339 266.226 162.592 265.69 162.575Z" fill="#EC7AA5"/>
<path fill-rule="evenodd" clip-rule="evenodd" d="M274.86 130.275C272.344 130.387 258.34 133.484 255.795 134.011C253.251 134.537 251.1 137.384 253.04 140.682C255.219 144.383 260.842 154.895 262.207 157.264C262.883 158.437 266.291 157.779 265.491 155.811C263.998 152.141 263.305 142.922 259.499 139.561C259.499 139.561 272.297 141.789 277.825 139.237C281.843 137.383 280.934 130.003 274.86 130.275Z" fill="#413C75"/>
<path fill-rule="evenodd" clip-rule="evenodd" d="M257.307 114.568C257.307 114.568 257.336 113.072 256.619 112.002C255.903 110.933 255.875 109.796 255.333 109.833C254.791 109.87 255.328 112.512 255.328 112.512C255.328 112.512 254.64 112.249 254.146 111.917C253.652 111.585 252.154 109.946 251.804 110.237C251.21 110.731 252.166 113.522 252.687 114.08C253.209 114.638 255.787 116.197 255.787 116.197L263.38 123.846L264.516 119.785L257.307 114.568Z" fill="url(#paint10_linear_246_3781)"/>
<path fill-rule="evenodd" clip-rule="evenodd" d="M272.494 113.893C271.324 116.608 269.181 121.595 268.297 123.083C267.19 124.946 265.444 125.767 263.4 124.384C262.972 124.095 261.744 123.083 261.744 123.083C261.925 121.313 262.587 119.832 263.728 118.642L264.502 119.283C264.502 119.283 266.699 113.652 268.466 110.39C269.996 107.568 274.276 109.766 272.494 113.893Z" fill="#EA5455"/>
<path fill-rule="evenodd" clip-rule="evenodd" d="M264.479 119.286C264.479 119.286 263.89 121.287 263.752 121.171C263.614 121.055 263.857 118.763 263.857 118.763L264.479 119.286Z" fill="black" fill-opacity="0.159856"/>
<path fill-rule="evenodd" clip-rule="evenodd" d="M277.554 103.355V105.757L279.318 104.337C279.318 104.337 279.86 102.036 280.301 100.326C280.577 99.2542 281.251 95.6264 278.539 95.7964C276.317 91.8796 269.846 94.3038 269.794 99.0889C269.732 104.844 269.783 107.085 269.783 107.085C273.442 107.295 275.502 106.766 277.554 103.355Z" fill="#422851"/>
<path fill-rule="evenodd" clip-rule="evenodd" d="M279.356 107.929C279.356 107.929 277.715 107.544 277.658 104.855C277.601 102.166 277.641 101.248 277.641 101.248L274.026 101.183C274.026 101.183 273.987 104.18 273.986 105.264C273.985 107.899 272.047 108.115 272.047 108.115C272.047 108.115 272.378 110.289 275.653 110.474C278.211 110.618 279.356 107.929 279.356 107.929Z" fill="url(#paint11_linear_246_3781)"/>
<path fill-rule="evenodd" clip-rule="evenodd" d="M278.483 99.9055C280.096 99.8431 279.833 102.204 278.158 102.2C278.158 102.2 277.185 105.554 273.807 105.554C271.064 105.554 270.885 101.645 270.861 100.866C270.834 100.034 270.83 97.3034 270.83 97.3034L278.546 97.2998L278.483 99.9055Z" fill="url(#paint12_linear_246_3781)"/>
<path fill-rule="evenodd" clip-rule="evenodd" d="M278.608 99.89C277.94 100 278.021 100.443 277.839 100.404C276.917 100.208 273.182 100.467 272.701 98.4128C272.102 99.6958 271.956 100.011 270.639 100.356V96.5958L278.972 95.7964C278.972 95.7964 278.843 99.851 278.608 99.89Z" fill="#422851"/>
<path d="M274.459 103.301C274.459 103.301 273.654 103.982 272.722 103.344" stroke="#F77B7B" stroke-width="1.5" stroke-linecap="round"/>
<path d="M273.927 104.09C273.677 104.205 273.436 104.214 273.221 104.099" stroke="#F49494" stroke-linecap="round"/>
<path d="M278.319 101.175C278.303 100.796 278.418 100.496 278.804 100.435" stroke="#F77B7B" stroke-linecap="round"/>
<path fill-rule="evenodd" clip-rule="evenodd" d="M278.988 107.654C276.929 108.915 274.548 109.378 272.332 108.008C268.715 115.139 267.814 123.648 268.684 133.053C273.957 135.141 278.39 134.73 282.164 132.344L278.988 107.654Z" fill="#FFE4F4"/>
<path fill-rule="evenodd" clip-rule="evenodd" d="M253.324 156.143C253.324 156.143 253.368 159.582 250.534 160.867C247.702 162.153 245.685 162.076 245.942 163.07C246.199 164.063 253.569 164.023 254.258 163.246C254.844 162.585 256.12 156.427 256.472 156.898L253.324 156.143Z" fill="url(#paint13_linear_246_3781)"/>
<path fill-rule="evenodd" clip-rule="evenodd" d="M255.383 160.999C254.948 160.687 254.583 162.489 253.404 161.988C252.224 161.487 253.154 159.83 252.412 159.525C251.67 159.22 250.236 160.862 248.332 161.261C246.429 161.66 244.883 162.009 244.444 162.75C244.065 163.387 244.444 163.591 244.444 163.591C244.444 163.591 246.276 164.506 247.415 164.707C249.07 165 253.851 165.195 254.375 164.661C254.697 164.334 255.6 161.156 255.383 160.999Z" fill="#EEDFE8"/>
<path fill-rule="evenodd" clip-rule="evenodd" d="M244.34 162.825C243.981 163.41 244.548 163.715 244.615 163.749L244.889 163.865C245.407 164.08 246.577 164.543 247.441 164.708C249.026 165.011 253.935 165.191 254.463 164.67C254.555 164.578 254.67 164.244 254.781 163.809L254.444 163.846C252.823 164.017 249.205 164.328 247.42 163.907C245.835 163.534 244.967 162.92 244.571 162.561C244.475 162.644 244.397 162.732 244.34 162.825Z" fill="#EC7AA5"/>
<path fill-rule="evenodd" clip-rule="evenodd" d="M282.744 129.211C282.744 129.211 286.402 136.937 281.261 139.59C276.29 142.155 261.407 139.121 261.407 139.121C261.407 139.121 261.673 141.262 261.407 143.172C260.712 148.159 257.409 156.469 256.71 157.513C255.743 158.957 252.799 157.868 252.743 156.666C252.688 155.463 254.963 140.108 255.309 137.18C255.653 134.252 256.74 133.827 259.913 133.026C260.642 132.842 269.264 130.7 270.054 130.762C276.841 131.299 282.744 129.211 282.744 129.211Z" fill="#524D87"/>
<path fill-rule="evenodd" clip-rule="evenodd" d="M278.734 138.792C273.812 139.344 260.781 138.207 260.258 138.724C259.758 139.217 259.841 147.797 258.721 152.763L258.891 152.294C259.945 149.367 261.04 145.806 261.407 143.172C261.673 141.262 261.407 139.121 261.407 139.121L262.007 139.237C264.836 139.768 276.886 141.847 281.261 139.59C283.632 138.366 284.599 136.334 284.163 133.493C283.413 136.704 281.603 138.471 278.734 138.792Z" fill="white" fill-opacity="0.056108"/>
<path fill-rule="evenodd" clip-rule="evenodd" d="M278.898 107.66C275.487 118.832 273.442 134.672 284.094 131.916C278.435 121.498 286.128 116.809 284.384 111.425C283.788 109.584 278.942 107.515 278.898 107.66Z" fill="#EA5455"/>
<path fill-rule="evenodd" clip-rule="evenodd" d="M282.745 112.299C278.89 112.881 282.068 119.611 280.795 120.625C279.523 121.639 277.308 121.749 277.069 122.368C276.589 123.613 278.909 126.756 284.03 131.796L284.094 131.916C279.165 122.841 284.366 118.114 284.637 113.486C284.066 112.591 283.435 112.195 282.745 112.299Z" fill="black" fill-opacity="0.159856"/>
<path fill-rule="evenodd" clip-rule="evenodd" d="M272.512 107.93C271.211 111.194 270.585 113.755 270.001 118.547C269.515 122.538 269.758 130.773 269.758 130.773L268.15 131.089C268.15 131.089 267 118.366 267.384 116.728C268.029 113.979 268.467 112.373 269.318 109.86C269.788 108.481 272.512 107.93 272.512 107.93Z" fill="#EA5455"/>
<path fill-rule="evenodd" clip-rule="evenodd" d="M278.182 120.343C278.182 120.343 276.082 118.241 275.354 117.997C274.627 117.753 270.643 117.46 270.67 118.011C270.701 118.602 273.264 118.568 273.501 118.858C273.738 119.149 274.068 121.411 274.964 121.634C275.858 121.857 277.712 122.517 277.712 122.517L285.964 126.781L285.085 122.517L278.182 120.343Z" fill="url(#paint14_linear_246_3781)"/>
<path fill-rule="evenodd" clip-rule="evenodd" d="M284.502 111.44C287.005 114.973 289.142 120.354 289.963 122.452C290.783 124.55 289.955 127.714 286.348 127.093C285.919 127.019 285.22 126.747 285.22 126.747C283.894 124.929 283.661 123.368 284.156 121.979L284.623 122.175C284.623 122.175 281.038 115.821 280.162 114.117C278.7 111.272 282.297 108.328 284.502 111.44Z" fill="#EA5455"/>
<path fill-rule="evenodd" clip-rule="evenodd" d="M284.623 122.175C284.623 122.175 286.444 123.065 286.215 122.674C285.986 122.282 283.929 120.94 283.929 120.94L284.623 122.175Z" fill="black" fill-opacity="0.159856"/>
<path fill-rule="evenodd" clip-rule="evenodd" d="M247.015 112.155C246.686 110.835 247.489 109.498 248.81 109.168L251.819 108.418C253.139 108.089 254.476 108.892 254.805 110.213L256.292 116.175C256.621 117.496 255.818 118.833 254.497 119.162L251.489 119.912C250.168 120.241 248.831 119.438 248.502 118.117L247.015 112.155Z" fill="url(#paint15_linear_246_3781)"/>
<path fill-rule="evenodd" clip-rule="evenodd" d="M247.268 112.307C246.938 110.987 247.742 109.649 249.062 109.32L252.071 108.57C253.391 108.241 254.729 109.044 255.058 110.365L256.545 116.327C256.874 117.647 256.07 118.985 254.75 119.314L251.741 120.064C250.421 120.393 249.083 119.59 248.754 118.269L247.268 112.307Z" fill="#518DF8"/>
<path d="M247.5 112.217C247.204 111.028 247.927 109.825 249.116 109.529L252.085 108.788C253.274 108.492 254.477 109.215 254.774 110.403L256.121 115.808C256.418 116.997 255.694 118.2 254.506 118.497L251.536 119.237C250.348 119.533 249.144 118.81 248.848 117.622L247.5 112.217Z" fill="white"/>
<path fill-rule="evenodd" clip-rule="evenodd" d="M190.671 124.164H193.819V164.115H190.671L190.671 124.164Z" fill="#E9E9E9"/>
<path fill-rule="evenodd" clip-rule="evenodd" d="M159.834 125.477L184.704 125.477V132.897H163.978V164.115H159.834V125.477Z" fill="#D3D3D3"/>
<path fill-rule="evenodd" clip-rule="evenodd" d="M159.673 125.477H161.879V164.115H159.673V125.477Z" fill="#DBDBDB"/>
<path fill-rule="evenodd" clip-rule="evenodd" d="M267.944 125.477H272.357V164.115H267.944V125.477Z" fill="#E9E9E9"/>
<path fill-rule="evenodd" clip-rule="evenodd" d="M267.944 124.164H270.702V164.115H267.944L267.944 124.164Z" fill="#DBDBDB"/>
<path fill-rule="evenodd" clip-rule="evenodd" d="M231.428 125.477L269.758 125.477V132.8H236.587V164.115H231.428V125.477Z" fill="#D3D3D3"/>
<path fill-rule="evenodd" clip-rule="evenodd" d="M162.926 124.164L231.558 124.164V135.257H162.926V124.164Z" fill="#DBDBDB"/>
<path fill-rule="evenodd" clip-rule="evenodd" d="M229.984 125.477H233.133V135.257H229.984V125.477Z" fill="#E9E9E9"/>
<path fill-rule="evenodd" clip-rule="evenodd" d="M231.438 125.477H233.919V164.115H231.438V125.477Z" fill="#DBDBDB"/>
<path fill-rule="evenodd" clip-rule="evenodd" d="M231.833 126.134C231.833 125.046 232.715 124.164 233.803 124.164L273.822 124.164C274.91 124.164 275.792 125.046 275.792 126.134C275.792 127.221 274.91 128.103 273.822 128.103H233.803C232.715 128.103 231.833 127.221 231.833 126.134Z" fill="#E9E9E9"/>
<path fill-rule="evenodd" clip-rule="evenodd" d="M162.139 124.952H230.772V128.891H162.139V124.952Z" fill="#E9E9E9"/>
<path fill-rule="evenodd" clip-rule="evenodd" d="M156.367 126.134C156.367 125.046 157.249 124.164 158.337 124.164H234.573C235.661 124.164 236.543 125.046 236.543 126.134C236.543 127.221 235.661 128.103 234.573 128.103H158.337C157.249 128.103 156.367 127.221 156.367 126.134Z" fill="#DBDBDB"/>
<path fill-rule="evenodd" clip-rule="evenodd" d="M168.66 154.306L166.482 161.378L171.05 161.543C171.05 161.543 170.534 159.124 171.271 156.857C171.862 155.037 172.344 154.128 172.344 154.128L168.66 154.306Z" fill="#92691F"/>
<path fill-rule="evenodd" clip-rule="evenodd" d="M170.931 159.6C170.931 159.6 172.675 161.216 174.351 161.815C176.028 162.414 176.67 162.42 176.79 162.645L176.811 162.688C177.156 163.4 176.947 164.346 173.125 164.399C172.196 164.411 171.23 163.872 168.666 163.301L168.481 164.299C167.046 164.28 166.208 164.054 165.969 163.62C165.607 162.972 166.221 159.775 166.645 159.714C167.068 159.653 167.152 160.954 168.289 160.982C169.427 161.011 170.931 159.6 170.931 159.6Z" fill="#391B0B"/>
<path fill-rule="evenodd" clip-rule="evenodd" d="M174.504 161.869C174.434 161.937 174.339 162.018 174.218 162.092C173.928 162.27 173.496 162.406 172.928 162.277C172.629 162.208 172.312 162.023 172.019 161.807C171.721 161.588 171.425 161.321 171.164 161.065C170.903 160.809 170.674 160.56 170.511 160.376C170.429 160.284 170.363 160.207 170.318 160.154C170.308 160.142 170.299 160.132 170.291 160.122C170.637 159.868 170.88 159.646 170.924 159.606L170.748 159.888C170.786 159.932 170.832 159.984 170.885 160.044C171.043 160.222 171.264 160.462 171.514 160.708C171.766 160.955 172.043 161.204 172.315 161.404C172.592 161.608 172.842 161.744 173.039 161.789C173.465 161.887 173.764 161.784 173.957 161.666C173.96 161.664 173.962 161.662 173.965 161.66C174.094 161.717 174.223 161.769 174.351 161.815C174.403 161.833 174.454 161.851 174.504 161.869Z" fill="#81411E"/>
<path fill-rule="evenodd" clip-rule="evenodd" d="M158.248 132.172C158.248 132.172 176.391 133.623 178.891 133.7C181.39 133.778 183.3 137.346 181.364 140.639C179.19 144.336 173.283 154.979 172.129 157.44C171.152 159.521 166.713 158.668 167.512 155.49C168.465 151.686 170.243 143.153 174.039 139.795C174.039 139.795 164.805 143.143 159.604 139.896C156.637 138.044 158.248 132.172 158.248 132.172Z" fill="#7A3636"/>
<path fill-rule="evenodd" clip-rule="evenodd" d="M181.364 140.639L181.082 141.124C179.981 143.025 178.205 146.238 176.508 149.367L176.598 149.081C177.909 144.906 179.948 139.989 180.819 138.488C181.124 137.962 181.54 137.426 182.067 136.88C182.29 138.025 182.12 139.353 181.364 140.639Z" fill="white" fill-opacity="0.192499"/>
<path fill-rule="evenodd" clip-rule="evenodd" d="M188.404 154.389C188.404 154.389 189.617 159.782 191.196 160.359C191.804 160.582 186.538 161.216 186.538 161.216L185.216 156.042L188.404 154.389Z" fill="#92691F"/>
<path fill-rule="evenodd" clip-rule="evenodd" d="M185.777 159.394L185.689 163.947L187.504 163.961L187.523 162.937C187.523 162.937 188.938 163.786 189.896 164.084C191.184 164.486 196.274 164.276 196.849 163.662C197.424 163.047 197.437 162.067 196.256 161.947C195.075 161.826 193.123 161.468 192.282 160.825C191.266 160.049 190.879 158.819 190.584 158.818C190.131 158.817 190.097 160.264 187.802 160.284C186.929 160.292 185.777 159.394 185.777 159.394Z" fill="#391B0B"/>
<path fill-rule="evenodd" clip-rule="evenodd" d="M190.114 159.224C190.114 159.224 191.284 161.051 191.98 161.315C192.676 161.577 193.237 161.283 193.237 161.283C193.237 161.283 192.037 160.805 191.574 159.971C190.524 158.08 190.314 159.042 190.114 159.224Z" fill="#81411E"/>
<path fill-rule="evenodd" clip-rule="evenodd" d="M159.75 133.638C159.75 133.638 159.725 139.434 163.619 140.891C167.514 142.348 180.196 141.8 180.196 141.8C180.196 141.8 184.221 156.607 185.185 158.05C186.149 159.492 190.722 159.641 190.474 156.319C190.225 152.998 188.441 140.665 188.096 137.741C187.752 134.816 186.668 134.115 183.502 133.591C182.389 133.407 182.861 133.112 175.707 132.777C174.17 132.705 171.593 133.28 169.223 133.541C166.854 133.801 159.75 133.638 159.75 133.638Z" fill="#7A3636"/>
<path fill-rule="evenodd" clip-rule="evenodd" d="M172.408 133.763L172.408 133.09L172.725 133.042C173.878 132.871 174.927 132.741 175.707 132.777L176.529 132.817C182.826 133.135 182.433 133.415 183.502 133.591L183.707 133.626C186.648 134.136 187.712 134.847 188.072 137.551L188.172 138.365C188.649 142.113 190.24 153.197 190.474 156.319C190.493 156.569 190.484 156.8 190.452 157.011L189.525 152.343C188.159 145.423 187.393 141.323 187.228 140.042L187.194 139.776C186.885 137.503 186.078 134.682 183.472 134.866L183.247 134.885C181.413 135.025 177.934 134.673 172.81 133.83L172.408 133.763Z" fill="white" fill-opacity="0.192499"/>
<ellipse cx="190.978" cy="138.238" rx="1.04115" ry="1.82382" transform="rotate(13 190.978 138.238)" fill="white" fill-opacity="0.192499"/>
<path fill-rule="evenodd" clip-rule="evenodd" d="M162.559 125.941C162.559 125.941 166.803 126.923 166.76 127.309C166.718 127.696 164.85 127.756 164.85 127.756C164.85 127.756 168.304 129.987 168.029 130.422C167.754 130.857 165.502 131.347 164.567 130.996C163.632 130.645 161.209 128.091 161.209 128.091L162.559 125.941Z" fill="url(#paint16_linear_246_3781)"/>
<path fill-rule="evenodd" clip-rule="evenodd" d="M162.597 113.366C161.176 115.121 156.329 120.48 156.329 120.48C156.329 120.48 161.176 123.932 162.396 124.663C164.398 125.86 162.363 129.035 160.895 128.682C158.906 128.203 153.885 124.739 151.525 123.338C149.166 121.936 150.069 119.673 151.814 117.607C153.155 116.021 156.07 112.771 158.121 109.918C160.161 107.079 165.356 109.962 162.597 113.366Z" fill="#EA5455"/>
<path fill-rule="evenodd" clip-rule="evenodd" d="M156.329 120.48C156.329 120.48 154.964 121.795 155.106 121.897C155.248 121.998 156.892 120.884 156.892 120.884L156.329 120.48Z" fill="black" fill-opacity="0.159856"/>
<path fill-rule="evenodd" clip-rule="evenodd" d="M171.059 100.486C172.251 100.617 172.167 102.715 170.716 102.824C170.419 104.847 169.362 105.81 168.072 105.922L168.143 108.981L162.439 108.978C162.439 108.978 164.046 106.817 163.966 103.858C163.885 100.899 164.019 98.1201 164.019 98.1201L171.407 98.2528L171.059 100.486Z" fill="url(#paint17_linear_246_3781)"/>
<path fill-rule="evenodd" clip-rule="evenodd" d="M168.726 94.7798C173.12 95.8889 171.307 100.575 171.307 100.575C169.98 100.394 168.702 102.005 168.217 103.585C166.816 105.025 165.001 105.023 163.795 104.184C163.795 104.184 162.134 99.0484 162.677 97.3384C163.221 95.6284 164.72 93.7688 168.726 94.7798Z" fill="#2C272E"/>
<path fill-rule="evenodd" clip-rule="evenodd" d="M158.338 109.663C157.943 110.335 157.661 113.041 158.338 123.76C158.689 129.311 157.197 134.782 157.582 137.19C157.968 139.598 160.617 139.886 160.617 139.886L162.162 134.859L162.889 139.886C162.889 139.886 173.846 138.861 174.806 136.367C175.769 133.867 174.56 127.991 174.273 122.457C173.984 116.902 174.201 111.2 173.67 110.335C172.61 108.61 169.882 107.804 168.189 107.546C166.041 107.219 163.267 107.206 161.619 107.729C159.97 108.252 158.733 108.992 158.338 109.663Z" fill="#EA5455"/>
<path fill-rule="evenodd" clip-rule="evenodd" d="M169.487 113.481C170.351 119.86 171.508 124.337 172.956 126.91C173.554 127.974 174.162 128.412 174.78 128.226L174.633 126.812C174.487 125.381 174.348 123.908 174.273 122.457C174.22 121.446 174.185 120.43 174.158 119.439L169.487 113.481Z" fill="black" fill-opacity="0.159856"/>
<path fill-rule="evenodd" clip-rule="evenodd" d="M161.619 107.729C161.519 107.761 161.422 107.794 161.329 107.828C163.696 108.86 167.605 108.722 169.73 107.881C169.176 107.725 168.645 107.616 168.189 107.546C166.041 107.219 163.268 107.206 161.619 107.729Z" fill="#E5AA41"/>
<path fill-rule="evenodd" clip-rule="evenodd" d="M190.656 119.006C190.656 119.006 194.182 116.653 194.805 116.18C195.426 115.709 196.205 112.14 195.722 111.639C195.489 111.397 193.725 113.027 193.41 113.246C193.098 113.462 191.499 114.425 191.499 114.425C191.499 114.425 191.951 111.693 191.561 111.473C191.273 111.313 190.697 112.016 190.62 112.759C190.543 113.502 189.741 114.471 189.637 115.599C189.591 116.092 189.106 117.033 189.106 117.033L190.656 119.006Z" fill="url(#paint18_linear_246_3781)"/>
<path fill-rule="evenodd" clip-rule="evenodd" d="M169.66 114.493C171.011 117.3 173.305 121.404 174.566 123.81C176.057 126.658 177.834 127.864 181.418 125.751C184.419 123.982 188.748 121.136 190.984 119.589C193.065 118.149 190.605 114.596 188.639 115.797C186.031 117.387 179.361 120.539 179.361 120.539C179.361 120.539 175.929 114.27 174.504 111.259C172.691 107.433 167.046 109.06 169.66 114.493Z" fill="#EA5455"/>
<path fill-rule="evenodd" clip-rule="evenodd" d="M179.361 120.539C179.361 120.539 179.989 122.75 180.137 122.663C180.285 122.575 180.033 120.223 180.033 120.223L179.361 120.539Z" fill="black" fill-opacity="0.159856"/>
<path fill-rule="evenodd" clip-rule="evenodd" d="M165.457 142.184L162.301 164.509L163.956 164.487L167.111 142.418L165.457 142.184Z" fill="#BFE7FF"/>
<path fill-rule="evenodd" clip-rule="evenodd" d="M175.98 142.184L179.135 164.509L177.481 164.487L174.325 142.418L175.98 142.184Z" fill="#91D6FF"/>
<path fill-rule="evenodd" clip-rule="evenodd" d="M155.837 142.184L152.681 164.509L154.336 164.487L157.491 142.418L155.837 142.184Z" fill="#BFE7FF"/>
<path fill-rule="evenodd" clip-rule="evenodd" d="M177.187 143.497C178.625 143.497 179.791 142.331 179.791 140.893C179.791 139.454 178.625 138.288 177.187 138.288H171.52C167.252 138.288 163.684 135.041 163.285 130.791L162.344 120.792C162.038 117.534 159.303 115.044 156.031 115.044C152.337 115.044 149.425 118.189 149.708 121.871L150.583 133.259C151.027 139.036 155.844 143.497 161.638 143.497H177.187Z" fill="#BFE7FF"/>
<path fill-rule="evenodd" clip-rule="evenodd" d="M179.791 140.871C179.777 140.871 179.763 140.871 179.748 140.871H172.084C166.723 140.871 162.265 136.743 161.853 131.397L160.751 117.098C161.653 118.082 162.249 119.356 162.383 120.776L163.324 130.745C163.723 134.983 167.282 138.222 171.539 138.222H177.194C178.629 138.222 179.792 139.385 179.792 140.82C179.792 140.837 179.791 140.854 179.791 140.871Z" fill="#91D6FF"/>
<path fill-rule="evenodd" clip-rule="evenodd" d="M238.866 123.949C238.866 123.751 238.706 123.591 238.509 123.591H215.61C215.413 123.591 215.253 123.751 215.253 123.949C215.253 124.146 215.413 124.306 215.61 124.306H238.509C238.706 124.306 238.866 124.146 238.866 123.949Z" fill="url(#paint19_linear_246_3781)"/>
<path fill-rule="evenodd" clip-rule="evenodd" d="M238.868 123.949C238.868 123.751 238.708 123.591 238.511 123.591H229.899C229.702 123.591 229.542 123.751 229.542 123.949C229.542 124.146 229.702 124.306 229.899 124.306H238.511C238.708 124.306 238.868 124.146 238.868 123.949Z" fill="#518DF8"/>
<path fill-rule="evenodd" clip-rule="evenodd" d="M240.175 116.756C240.45 114.604 238.774 112.699 236.604 112.699H226.471C224.659 112.699 223.13 114.045 222.9 115.842L222.423 119.565C222.148 121.717 223.824 123.623 225.994 123.623H236.127C237.939 123.623 239.468 122.277 239.698 120.48L240.175 116.756Z" fill="#518DF8"/>
<path fill-rule="evenodd" clip-rule="evenodd" d="M239.706 116.756C239.982 114.604 238.305 112.699 236.135 112.699H226.328C224.516 112.699 222.987 114.045 222.757 115.842L222.28 119.565C222.004 121.717 223.681 123.623 225.851 123.623H235.658C237.47 123.623 238.999 122.277 239.229 120.48L239.706 116.756Z" fill="url(#paint20_linear_246_3781)"/>
<path d="M239.207 116.867C239.454 114.93 237.945 113.216 235.993 113.216H226.451C224.821 113.216 223.445 114.427 223.238 116.045L222.807 119.414C222.559 121.351 224.068 123.065 226.02 123.065H235.562C237.192 123.065 238.569 121.853 238.776 120.236L239.207 116.867Z" fill="white"/>
<path fill-rule="evenodd" clip-rule="evenodd" d="M201.822 126.466C201.822 126.466 205.573 127.341 205.535 127.684C205.497 128.029 203.846 128.082 203.846 128.082C203.846 128.082 206.899 130.069 206.655 130.456C206.413 130.844 204.422 131.28 203.596 130.968C202.77 130.655 200.629 128.381 200.629 128.381L194.621 125.154L196.629 122.506L201.822 126.466Z" fill="url(#paint21_linear_246_3781)"/>
<path fill-rule="evenodd" clip-rule="evenodd" d="M201.856 115.269C200.6 116.832 196.316 121.604 196.316 121.604L197.162 122.238L194.412 125.574C194.412 125.574 192.656 124.498 192.071 124.148C189.986 122.9 190.784 120.885 192.327 119.046C193.512 117.633 196.088 114.739 197.9 112.199C199.703 109.671 204.294 112.238 201.856 115.269Z" fill="#FFB66F"/>
<path fill-rule="evenodd" clip-rule="evenodd" d="M196.316 121.604C196.316 121.604 195.11 122.774 195.235 122.865C195.361 122.956 196.814 121.964 196.814 121.964L196.316 121.604Z" fill="black" fill-opacity="0.159856"/>
<path fill-rule="evenodd" clip-rule="evenodd" d="M196.991 121.889L193.407 125.438L195.199 126.61L197.661 122.395L196.991 121.889Z" fill="#FFEDC2"/>
<path fill-rule="evenodd" clip-rule="evenodd" d="M208.437 153.769L206.498 160.015L209.757 160.161C209.757 160.161 209.298 158.025 209.954 156.022C210.48 154.414 210.909 153.612 210.909 153.612L208.437 153.769Z" fill="url(#paint22_linear_246_3781)"/>
<path fill-rule="evenodd" clip-rule="evenodd" d="M209.784 158.332C209.784 158.332 209.716 159.922 210.271 160.425C210.826 160.927 213.771 162.782 214.018 163.156C214.265 163.53 213.903 163.986 213.903 163.986C213.903 163.986 210.896 164.457 209.478 163.73C208.453 163.204 207.722 162.775 207.722 162.775L207.408 163.583L205.766 163.347C205.766 163.347 205.26 162.065 205.477 161.427C205.695 160.79 206.817 157.811 206.817 157.811C206.817 157.811 209.784 158.332 209.784 158.332Z" fill="#391B0B"/>
<path fill-rule="evenodd" clip-rule="evenodd" d="M198.955 132.48C201.406 132.719 213.479 135.595 215.965 136.106C218.451 136.616 220.553 139.38 218.657 142.579C216.528 146.171 210.509 157.333 210.509 157.333C210.472 157.342 210.436 157.358 210.398 157.358C209.174 157.358 208.082 157.191 207.031 156.458C207.031 156.458 208.628 144.754 212.346 141.492C212.346 141.492 202.745 144.945 197.944 141.178C195.111 138.956 196.253 132.217 198.955 132.48Z" fill="#33373E"/>
<path fill-rule="evenodd" clip-rule="evenodd" d="M217.625 136.827L216.926 145.61C217.128 145.249 217.323 144.902 217.51 144.573L218.096 137.21C217.948 137.072 217.791 136.944 217.625 136.827Z" fill="white" fill-opacity="0.192499"/>
<path fill-rule="evenodd" clip-rule="evenodd" d="M226.488 153.276C226.488 153.276 227.557 158.038 228.949 158.548C229.484 158.744 225.644 159.304 225.644 159.304L224.478 154.735L226.488 153.276Z" fill="url(#paint23_linear_246_3781)"/>
<path fill-rule="evenodd" clip-rule="evenodd" d="M225.154 157.991L226.168 163.954L227.926 163.676L227.709 162.201C227.709 162.201 228.48 163.485 229.34 163.43C230.203 163.374 234.516 162.724 234.516 162.724C234.516 162.724 234.613 161.296 232.629 160.97C230.979 160.699 228.165 157.513 228.165 157.513L225.154 157.991Z" fill="#391B0B"/>
<path fill-rule="evenodd" clip-rule="evenodd" d="M201.011 131.692C201.011 131.692 197.472 139.186 202.445 141.76C207.254 144.249 220.05 141.038 220.05 141.038C220.05 141.038 219.793 143.115 220.05 144.967C220.722 149.806 224.026 155.759 224.327 156.74C224.478 157.234 228.163 156.504 228.163 155.918C228.163 155.332 226.283 141.996 225.948 139.155C225.616 136.314 224.564 135.902 221.495 135.125C220.789 134.947 211.649 132.868 210.885 132.929C204.32 133.449 201.011 131.692 201.011 131.692Z" fill="#42474F"/>
<path fill-rule="evenodd" clip-rule="evenodd" d="M210.885 132.929C211.649 132.868 220.789 134.947 221.495 135.125L221.999 135.254C224.617 135.939 225.588 136.451 225.925 138.965L226.015 139.687C226.292 141.794 227.039 146.747 227.629 150.872C226.963 149.356 226.411 147.674 225.974 145.826C224.956 141.519 225.174 137.982 224.9 137.363C224.627 136.743 211.256 134.766 208.959 134.358C207.959 134.18 207.395 133.74 207.266 133.037C208.377 133.068 209.583 133.032 210.885 132.929Z" fill="white" fill-opacity="0.192499"/>
<path fill-rule="evenodd" clip-rule="evenodd" d="M209.145 102.932C210.207 103.049 210.132 104.918 208.839 105.016C208.574 106.818 207.632 107.677 206.483 107.776L206.547 110.503L201.464 110.5C201.464 110.5 202.895 108.574 202.824 105.937C202.752 103.3 202.872 100.824 202.872 100.824L209.455 100.942L209.145 102.932Z" fill="url(#paint24_linear_246_3781)"/>
<path fill-rule="evenodd" clip-rule="evenodd" d="M209.376 103.072C208.139 102.582 207.225 104.691 206.278 106.157C205.332 107.623 202.879 107.374 202.541 106.157C201.261 103.492 200.158 99.8691 201.652 99.5717C201.862 95.7201 211.931 96.6294 209.376 103.072Z" fill="#9E5229"/>
<path fill-rule="evenodd" clip-rule="evenodd" d="M202.738 97.8644L204.658 97.8644H204.77L204.844 97.9477C206.705 100.028 207.207 103.015 206.509 105.789C206.433 105.915 206.356 106.038 206.279 106.157C206.117 106.409 205.91 106.609 205.678 106.764C206.788 103.87 206.454 100.57 204.545 98.3644H202.306L202.099 98.4117C202.272 98.1997 202.489 98.0171 202.738 97.8644ZM204.508 107.157L203.925 107.14C204.114 107.167 204.311 107.173 204.508 107.157Z" fill="black" fill-opacity="0.199355"/>
<ellipse cx="1.21354" cy="1.21502" rx="1.21354" ry="1.21502" transform="matrix(-1 0 0 1 205.027 96.8994)" fill="#FB9934"/>
<path fill-rule="evenodd" clip-rule="evenodd" d="M210.388 110.963C211.513 112.614 213.389 118.216 213.495 119.476C213.615 120.93 212.054 123.246 212.028 125.351C212.005 127.455 213.192 132.724 212.836 133.316C212.482 133.908 200.731 137.331 200.069 137.05C199.407 136.768 197.122 133.735 197.644 132.502C198.169 131.27 200.338 128.473 200.09 126.794C199.845 125.114 198.42 118.914 197.712 116.804C197.007 114.694 197.242 112.479 198.558 111.571C199.209 111.122 200.945 109.846 204.038 109.851C207.131 109.857 210.301 110.835 210.388 110.963Z" fill="#FF9F43"/>
<path fill-rule="evenodd" clip-rule="evenodd" d="M212.91 118.123L207.518 114.249L207.52 114.957C207.54 119.327 207.815 121.641 212.391 128.803L212.286 128.073C212.136 127.014 212.021 126.021 212.028 125.351C212.044 124.023 212.672 122.611 213.102 121.385L212.91 118.123Z" fill="black" fill-opacity="0.159856"/>
<path fill-rule="evenodd" clip-rule="evenodd" d="M206.896 109.731C206.896 109.731 207.026 110.441 206.456 110.441C205.886 110.441 202.064 110.566 201.547 110.342C201.029 110.117 201.184 109.731 201.184 109.731H206.896Z" fill="#FFF6E1"/>
<path fill-rule="evenodd" clip-rule="evenodd" d="M225.945 119.473C225.945 119.473 229.057 117.396 229.607 116.979C230.156 116.563 230.844 113.413 230.417 112.971C230.211 112.757 228.654 114.196 228.377 114.389C228.101 114.58 226.689 115.43 226.689 115.43C226.689 115.43 227.088 113.019 226.744 112.824C226.49 112.683 225.981 113.303 225.913 113.959C225.845 114.615 225.137 115.471 225.046 116.466C225.004 116.901 224.843 117.464 224.843 117.464L216.208 121.173L217.111 125.205L225.945 119.473Z" fill="url(#paint25_linear_246_3781)"/>
<path fill-rule="evenodd" clip-rule="evenodd" d="M207.409 115.49C208.602 117.967 210.627 121.589 211.74 123.713C213.056 126.226 214.625 127.29 217.789 125.426C218.16 125.207 218.961 124.721 218.961 124.721L217.002 120.372L215.973 120.826C215.973 120.826 212.943 115.293 211.685 112.636C210.085 109.259 205.101 110.695 207.409 115.49Z" fill="#FFB66F"/>
<path fill-rule="evenodd" clip-rule="evenodd" d="M215.974 120.826C215.974 120.826 216.528 122.777 216.659 122.7C216.789 122.623 216.567 120.546 216.567 120.546L215.974 120.826Z" fill="black" fill-opacity="0.159856"/>
<path fill-rule="evenodd" clip-rule="evenodd" d="M216.974 120.18L218.338 125.594L220.368 124.496L217.705 119.758L216.974 120.18Z" fill="#FFEDC2"/>
<path fill-rule="evenodd" clip-rule="evenodd" d="M203.943 97.2164C203.943 97.2164 202.799 95.7522 201.478 96.1363C200.157 96.5205 198.962 98.8751 199.53 101.088C200.094 103.302 199.629 104.565 198.944 106.056C197.104 110.069 203.474 112.617 203.474 112.617C203.474 112.617 202.977 109.644 203.943 107.848C204.939 105.999 205.504 103.628 205.504 102.176C205.504 99.653 203.943 97.2164 203.943 97.2164Z" fill="#9E5229"/>
<path fill-rule="evenodd" clip-rule="evenodd" d="M203.756 142.184L206.911 164.509L205.257 164.487L202.102 142.418L203.756 142.184Z" fill="#91D6FF"/>
<path fill-rule="evenodd" clip-rule="evenodd" d="M212.938 142.184L216.094 164.509L214.439 164.487L211.284 142.418L212.938 142.184Z" fill="#91D6FF"/>
<path fill-rule="evenodd" clip-rule="evenodd" d="M192.795 142.184L189.64 164.509L191.294 164.487L194.45 142.418L192.795 142.184Z" fill="#BFE7FF"/>
<path fill-rule="evenodd" clip-rule="evenodd" d="M214.145 143.497C215.584 143.497 216.75 142.331 216.75 140.893C216.75 139.454 215.584 138.288 214.145 138.288H208.478C204.21 138.288 200.643 135.041 200.243 130.791L199.303 120.792C198.996 117.534 196.261 115.044 192.989 115.044C189.295 115.044 186.383 118.189 186.666 121.871L187.541 133.259C187.985 139.036 192.802 143.497 198.597 143.497H214.145Z" fill="#BFE7FF"/>
<path fill-rule="evenodd" clip-rule="evenodd" d="M216.75 140.871C216.735 140.871 216.721 140.871 216.707 140.871H209.043C203.681 140.871 199.223 136.743 198.811 131.397L197.709 117.098C198.611 118.082 199.208 119.356 199.342 120.776L200.282 130.745C200.682 134.983 204.24 138.222 208.498 138.222H214.152C215.587 138.222 216.75 139.385 216.75 140.82C216.75 140.837 216.75 140.854 216.75 140.871Z" fill="#91D6FF"/>
<defs>
<filter id="filter0_dd_246_3781" x="89.7772" y="24.1293" width="93.4479" height="70.1814" filterUnits="userSpaceOnUse" color-interpolation-filters="sRGB">
<feFlood flood-opacity="0" result="BackgroundImageFix"/>
<feColorMatrix in="SourceAlpha" type="matrix" values="0 0 0 0 0 0 0 0 0 0 0 0 0 0 0 0 0 0 127 0" result="hardAlpha"/>
<feOffset dx="8" dy="9"/>
<feGaussianBlur stdDeviation="14"/>
<feColorMatrix type="matrix" values="0 0 0 0 0.0755213 0 0 0 0 0.582569 0 0 0 0 0.878793 0 0 0 0.229458 0"/>
<feBlend mode="normal" in2="BackgroundImageFix" result="effect1_dropShadow_246_3781"/>
<feColorMatrix in="SourceAlpha" type="matrix" values="0 0 0 0 0 0 0 0 0 0 0 0 0 0 0 0 0 0 127 0" result="hardAlpha"/>
<feOffset dy="2"/>
<feGaussianBlur stdDeviation="7.5"/>
<feColorMatrix type="matrix" values="0 0 0 0 0.503982 0 0 0 0 0.700178 0 0 0 0 1 0 0 0 0.233829 0"/>
<feBlend mode="normal" in2="effect1_dropShadow_246_3781" result="effect2_dropShadow_246_3781"/>
<feBlend mode="normal" in="SourceGraphic" in2="effect2_dropShadow_246_3781" result="shape"/>
</filter>
<filter id="filter1_dd_246_3781" x="89.7772" y="40.2841" width="102.589" height="95.3447" filterUnits="userSpaceOnUse" color-interpolation-filters="sRGB">
<feFlood flood-opacity="0" result="BackgroundImageFix"/>
<feColorMatrix in="SourceAlpha" type="matrix" values="0 0 0 0 0 0 0 0 0 0 0 0 0 0 0 0 0 0 127 0" result="hardAlpha"/>
<feOffset dx="8" dy="9"/>
<feGaussianBlur stdDeviation="14"/>
<feColorMatrix type="matrix" values="0 0 0 0 0.0755213 0 0 0 0 0.582569 0 0 0 0 0.878793 0 0 0 0.229458 0"/>
<feBlend mode="normal" in2="BackgroundImageFix" result="effect1_dropShadow_246_3781"/>
<feColorMatrix in="SourceAlpha" type="matrix" values="0 0 0 0 0 0 0 0 0 0 0 0 0 0 0 0 0 0 127 0" result="hardAlpha"/>
<feOffset dy="2"/>
<feGaussianBlur stdDeviation="7.5"/>
<feColorMatrix type="matrix" values="0 0 0 0 0.503982 0 0 0 0 0.700178 0 0 0 0 1 0 0 0 0.233829 0"/>
<feBlend mode="normal" in2="effect1_dropShadow_246_3781" result="effect2_dropShadow_246_3781"/>
<feBlend mode="normal" in="SourceGraphic" in2="effect2_dropShadow_246_3781" result="shape"/>
</filter>
<filter id="filter2_d_246_3781" x="99.0212" y="68.0496" width="69.1412" height="51.4621" filterUnits="userSpaceOnUse" color-interpolation-filters="sRGB">
<feFlood flood-opacity="0" result="BackgroundImageFix"/>
<feColorMatrix in="SourceAlpha" type="matrix" values="0 0 0 0 0 0 0 0 0 0 0 0 0 0 0 0 0 0 127 0" result="hardAlpha"/>
<feOffset dy="13"/>
<feGaussianBlur stdDeviation="7.5"/>
<feColorMatrix type="matrix" values="0 0 0 0 0 0 0 0 0 0 0 0 0 0 0 0 0 0 0.144395 0"/>
<feBlend mode="normal" in2="BackgroundImageFix" result="effect1_dropShadow_246_3781"/>
<feBlend mode="normal" in="SourceGraphic" in2="effect1_dropShadow_246_3781" result="shape"/>
</filter>
<filter id="filter3_d_246_3781" x="153.655" y="36.7772" width="98.2313" height="77.6333" filterUnits="userSpaceOnUse" color-interpolation-filters="sRGB">
<feFlood flood-opacity="0" result="BackgroundImageFix"/>
<feColorMatrix in="SourceAlpha" type="matrix" values="0 0 0 0 0 0 0 0 0 0 0 0 0 0 0 0 0 0 127 0" result="hardAlpha"/>
<feOffset dx="6" dy="6"/>
<feGaussianBlur stdDeviation="8"/>
<feColorMatrix type="matrix" values="0 0 0 0 0.70188 0 0 0 0 0.70188 0 0 0 0 0.70188 0 0 0 0.208725 0"/>
<feBlend mode="normal" in2="BackgroundImageFix" result="effect1_dropShadow_246_3781"/>
<feBlend mode="normal" in="SourceGraphic" in2="effect1_dropShadow_246_3781" result="shape"/>
</filter>
<linearGradient id="paint0_linear_246_3781" x1="237.722" y1="101.019" x2="234.666" y2="114.662" gradientUnits="userSpaceOnUse">
<stop stop-color="#FFAFAF"/>
<stop offset="1" stop-color="#F07777"/>
</linearGradient>
<linearGradient id="paint1_linear_246_3781" x1="237.485" y1="98.4284" x2="235.651" y2="107.396" gradientUnits="userSpaceOnUse">
<stop stop-color="#FDC6C6"/>
<stop offset="1" stop-color="#FAB2B2"/>
</linearGradient>
<linearGradient id="paint2_linear_246_3781" x1="224.52" y1="154.354" x2="224.081" y2="162.566" gradientUnits="userSpaceOnUse">
<stop stop-color="#FDC6C6"/>
<stop offset="1" stop-color="#FAB2B2"/>
</linearGradient>
<linearGradient id="paint3_linear_246_3781" x1="215.952" y1="164.929" x2="202.695" y2="139.483" gradientUnits="userSpaceOnUse">
<stop stop-color="#28324F"/>
<stop offset="1" stop-color="#222735"/>
</linearGradient>
<linearGradient id="paint4_linear_246_3781" x1="214.54" y1="109.009" x2="213.947" y2="116.897" gradientUnits="userSpaceOnUse">
<stop stop-color="#FDC6C6"/>
<stop offset="1" stop-color="#FAB2B2"/>
</linearGradient>
<linearGradient id="paint5_linear_246_3781" x1="236.314" y1="117.156" x2="236.14" y2="122.249" gradientUnits="userSpaceOnUse">
<stop stop-color="#FDC6C6"/>
<stop offset="1" stop-color="#FAB2B2"/>
</linearGradient>
<linearGradient id="paint6_linear_246_3781" x1="151.549" y1="70.7767" x2="148.822" y2="71.0318" gradientUnits="userSpaceOnUse">
<stop stop-color="#4D63A0"/>
<stop offset="1" stop-color="#222735"/>
</linearGradient>
<linearGradient id="paint7_linear_246_3781" x1="119.748" y1="125.697" x2="119.748" y2="130.265" gradientUnits="userSpaceOnUse">
<stop stop-color="#FE62BE"/>
<stop offset="1" stop-color="#FDB3A8"/>
</linearGradient>
<linearGradient id="paint8_linear_246_3781" x1="113.206" y1="122.212" x2="113.683" y2="126.755" gradientUnits="userSpaceOnUse">
<stop stop-color="#FE62BE"/>
<stop offset="1" stop-color="#FDB3A8"/>
</linearGradient>
<linearGradient id="paint9_linear_246_3781" x1="268.026" y1="153.942" x2="267.586" y2="162.173" gradientUnits="userSpaceOnUse">
<stop stop-color="#FDC6C6"/>
<stop offset="1" stop-color="#FAB2B2"/>
</linearGradient>
<linearGradient id="paint10_linear_246_3781" x1="266.748" y1="106.421" x2="265.579" y2="123.118" gradientUnits="userSpaceOnUse">
<stop stop-color="#FDC6C6"/>
<stop offset="1" stop-color="#FAB2B2"/>
</linearGradient>
<linearGradient id="paint11_linear_246_3781" x1="281.735" y1="99.8026" x2="278.64" y2="113.463" gradientUnits="userSpaceOnUse">
<stop stop-color="#FFAFAF"/>
<stop offset="1" stop-color="#F07777"/>
</linearGradient>
<linearGradient id="paint12_linear_246_3781" x1="281.526" y1="97.2062" x2="279.69" y2="106.195" gradientUnits="userSpaceOnUse">
<stop stop-color="#FDC6C6"/>
<stop offset="1" stop-color="#FAB2B2"/>
</linearGradient>
<linearGradient id="paint13_linear_246_3781" x1="258.297" y1="154.273" x2="257.867" y2="163.449" gradientUnits="userSpaceOnUse">
<stop stop-color="#FDC6C6"/>
<stop offset="1" stop-color="#FAB2B2"/>
</linearGradient>
<linearGradient id="paint14_linear_246_3781" x1="288.61" y1="115.486" x2="288.195" y2="126.346" gradientUnits="userSpaceOnUse">
<stop stop-color="#FDC6C6"/>
<stop offset="1" stop-color="#FAB2B2"/>
</linearGradient>
<linearGradient id="paint15_linear_246_3781" x1="246.378" y1="107.178" x2="249.666" y2="120.367" gradientUnits="userSpaceOnUse">
<stop stop-color="#9FF6EC"/>
<stop offset="1" stop-color="#7D9DFF"/>
</linearGradient>
<linearGradient id="paint16_linear_246_3781" x1="165.23" y1="122.628" x2="168.47" y2="129.831" gradientUnits="userSpaceOnUse">
<stop stop-color="#FDC6C6"/>
<stop offset="1" stop-color="#A47070"/>
</linearGradient>
<linearGradient id="paint17_linear_246_3781" x1="173.52" y1="95.4761" x2="172.561" y2="108.409" gradientUnits="userSpaceOnUse">
<stop stop-color="#FDC6C6"/>
<stop offset="1" stop-color="#A47070"/>
</linearGradient>
<linearGradient id="paint18_linear_246_3781" x1="197.044" y1="109.61" x2="196.396" y2="118.611" gradientUnits="userSpaceOnUse">
<stop stop-color="#FDC6C6"/>
<stop offset="1" stop-color="#A47070"/>
</linearGradient>
<linearGradient id="paint19_linear_246_3781" x1="237.144" y1="123.429" x2="237.144" y2="124.306" gradientUnits="userSpaceOnUse">
<stop stop-color="#9FF6EC"/>
<stop offset="1" stop-color="#7D9DFF"/>
</linearGradient>
<linearGradient id="paint20_linear_246_3781" x1="238.879" y1="110.213" x2="238.879" y2="123.623" gradientUnits="userSpaceOnUse">
<stop stop-color="#9FF6EC"/>
<stop offset="1" stop-color="#7D9DFF"/>
</linearGradient>
<linearGradient id="paint21_linear_246_3781" x1="201.15" y1="116.719" x2="206.816" y2="129.664" gradientUnits="userSpaceOnUse">
<stop stop-color="#FDC6C6"/>
<stop offset="1" stop-color="#FFCCA1"/>
</linearGradient>
<linearGradient id="paint22_linear_246_3781" x1="211.672" y1="152.018" x2="210.928" y2="159.788" gradientUnits="userSpaceOnUse">
<stop stop-color="#FDC6C6"/>
<stop offset="1" stop-color="#FAB2B2"/>
</linearGradient>
<linearGradient id="paint23_linear_246_3781" x1="229.782" y1="151.809" x2="229.167" y2="158.973" gradientUnits="userSpaceOnUse">
<stop stop-color="#FDC6C6"/>
<stop offset="1" stop-color="#FAB2B2"/>
</linearGradient>
<linearGradient id="paint24_linear_246_3781" x1="211.337" y1="98.4674" x2="210.483" y2="109.993" gradientUnits="userSpaceOnUse">
<stop stop-color="#FDC6C6"/>
<stop offset="1" stop-color="#FFCCA1"/>
</linearGradient>
<linearGradient id="paint25_linear_246_3781" x1="233.032" y1="109.785" x2="232.207" y2="124.587" gradientUnits="userSpaceOnUse">
<stop stop-color="#FDC6C6"/>
<stop offset="1" stop-color="#FFCCA1"/>
</linearGradient>
</defs>
</svg>
