<svg width="31" height="30" viewBox="0 0 31 30" fill="none" xmlns="http://www.w3.org/2000/svg">
<rect x="0.65625" width="30" height="30" rx="6" fill="#DB3236"/>
<path fill-rule="evenodd" clip-rule="evenodd" d="M20.323 9.75H10.9896C9.99796 9.75 9.23962 10.5083 9.23962 11.5V18.5C9.23962 19.4917 9.99796 20.25 10.9896 20.25H20.323C21.3146 20.25 22.073 19.4917 22.073 18.5V11.5C22.073 10.5083 21.3146 9.75 20.323 9.75ZM10.9896 10.9167H20.323C20.5563 10.9167 20.7313 11.0333 20.848 11.2667L15.6563 14.8833L10.4646 11.2667C10.5813 11.0333 10.7563 10.9167 10.9896 10.9167ZM10.4063 18.5C10.4063 18.85 10.6396 19.0833 10.9896 19.0833H20.323C20.673 19.0833 20.9063 18.85 20.9063 18.5V12.6083L16.0063 16.05C15.8896 16.1083 15.773 16.1667 15.6563 16.1667C15.5396 16.1667 15.423 16.1083 15.3063 16.05L10.4063 12.6083V18.5Z" fill="black"/>
<mask id="mask0_246_3034" style="mask-type:luminance" maskUnits="userSpaceOnUse" x="9" y="9" width="14" height="12">
<path fill-rule="evenodd" clip-rule="evenodd" d="M20.323 9.75H10.9896C9.99796 9.75 9.23962 10.5083 9.23962 11.5V18.5C9.23962 19.4917 9.99796 20.25 10.9896 20.25H20.323C21.3146 20.25 22.073 19.4917 22.073 18.5V11.5C22.073 10.5083 21.3146 9.75 20.323 9.75ZM10.9896 10.9167H20.323C20.5563 10.9167 20.7313 11.0333 20.848 11.2667L15.6563 14.8833L10.4646 11.2667C10.5813 11.0333 10.7563 10.9167 10.9896 10.9167ZM10.4063 18.5C10.4063 18.85 10.6396 19.0833 10.9896 19.0833H20.323C20.673 19.0833 20.9063 18.85 20.9063 18.5V12.6083L16.0063 16.05C15.8896 16.1083 15.773 16.1667 15.6563 16.1667C15.5396 16.1667 15.423 16.1083 15.3063 16.05L10.4063 12.6083V18.5Z" fill="white"/>
</mask>
<g mask="url(#mask0_246_3034)">
<rect x="8.65625" y="8" width="14" height="14" fill="white"/>
</g>
</svg>
